%TF.GenerationSoftware,KiCad,Pcbnew,(6.0.7)*%
%TF.CreationDate,2022-10-05T21:28:45-05:00*%
%TF.ProjectId,ScareBanger_PCB,53636172-6542-4616-9e67-65725f504342,rev?*%
%TF.SameCoordinates,Original*%
%TF.FileFunction,Legend,Bot*%
%TF.FilePolarity,Positive*%
%FSLAX46Y46*%
G04 Gerber Fmt 4.6, Leading zero omitted, Abs format (unit mm)*
G04 Created by KiCad (PCBNEW (6.0.7)) date 2022-10-05 21:28:45*
%MOMM*%
%LPD*%
G01*
G04 APERTURE LIST*
%ADD10C,0.150000*%
%ADD11C,0.120000*%
G04 APERTURE END LIST*
D10*
X186142857Y-124714285D02*
X185714285Y-124857142D01*
X185000000Y-124857142D01*
X184714285Y-124714285D01*
X184571428Y-124571428D01*
X184428571Y-124285714D01*
X184428571Y-124000000D01*
X184571428Y-123714285D01*
X184714285Y-123571428D01*
X185000000Y-123428571D01*
X185571428Y-123285714D01*
X185857142Y-123142857D01*
X186000000Y-123000000D01*
X186142857Y-122714285D01*
X186142857Y-122428571D01*
X186000000Y-122142857D01*
X185857142Y-122000000D01*
X185571428Y-121857142D01*
X184857142Y-121857142D01*
X184428571Y-122000000D01*
X181857142Y-124714285D02*
X182142857Y-124857142D01*
X182714285Y-124857142D01*
X183000000Y-124714285D01*
X183142857Y-124571428D01*
X183285714Y-124285714D01*
X183285714Y-123428571D01*
X183142857Y-123142857D01*
X183000000Y-123000000D01*
X182714285Y-122857142D01*
X182142857Y-122857142D01*
X181857142Y-123000000D01*
X179285714Y-124857142D02*
X179285714Y-123285714D01*
X179428571Y-123000000D01*
X179714285Y-122857142D01*
X180285714Y-122857142D01*
X180571428Y-123000000D01*
X179285714Y-124714285D02*
X179571428Y-124857142D01*
X180285714Y-124857142D01*
X180571428Y-124714285D01*
X180714285Y-124428571D01*
X180714285Y-124142857D01*
X180571428Y-123857142D01*
X180285714Y-123714285D01*
X179571428Y-123714285D01*
X179285714Y-123571428D01*
X177857142Y-124857142D02*
X177857142Y-122857142D01*
X177857142Y-123428571D02*
X177714285Y-123142857D01*
X177571428Y-123000000D01*
X177285714Y-122857142D01*
X177000000Y-122857142D01*
X174857142Y-124714285D02*
X175142857Y-124857142D01*
X175714285Y-124857142D01*
X176000000Y-124714285D01*
X176142857Y-124428571D01*
X176142857Y-123285714D01*
X176000000Y-123000000D01*
X175714285Y-122857142D01*
X175142857Y-122857142D01*
X174857142Y-123000000D01*
X174714285Y-123285714D01*
X174714285Y-123571428D01*
X176142857Y-123857142D01*
X172428571Y-123285714D02*
X172000000Y-123428571D01*
X171857142Y-123571428D01*
X171714285Y-123857142D01*
X171714285Y-124285714D01*
X171857142Y-124571428D01*
X172000000Y-124714285D01*
X172285714Y-124857142D01*
X173428571Y-124857142D01*
X173428571Y-121857142D01*
X172428571Y-121857142D01*
X172142857Y-122000000D01*
X172000000Y-122142857D01*
X171857142Y-122428571D01*
X171857142Y-122714285D01*
X172000000Y-123000000D01*
X172142857Y-123142857D01*
X172428571Y-123285714D01*
X173428571Y-123285714D01*
X169142857Y-124857142D02*
X169142857Y-123285714D01*
X169285714Y-123000000D01*
X169571428Y-122857142D01*
X170142857Y-122857142D01*
X170428571Y-123000000D01*
X169142857Y-124714285D02*
X169428571Y-124857142D01*
X170142857Y-124857142D01*
X170428571Y-124714285D01*
X170571428Y-124428571D01*
X170571428Y-124142857D01*
X170428571Y-123857142D01*
X170142857Y-123714285D01*
X169428571Y-123714285D01*
X169142857Y-123571428D01*
X167714285Y-122857142D02*
X167714285Y-124857142D01*
X167714285Y-123142857D02*
X167571428Y-123000000D01*
X167285714Y-122857142D01*
X166857142Y-122857142D01*
X166571428Y-123000000D01*
X166428571Y-123285714D01*
X166428571Y-124857142D01*
X163714285Y-122857142D02*
X163714285Y-125285714D01*
X163857142Y-125571428D01*
X164000000Y-125714285D01*
X164285714Y-125857142D01*
X164714285Y-125857142D01*
X165000000Y-125714285D01*
X163714285Y-124714285D02*
X164000000Y-124857142D01*
X164571428Y-124857142D01*
X164857142Y-124714285D01*
X165000000Y-124571428D01*
X165142857Y-124285714D01*
X165142857Y-123428571D01*
X165000000Y-123142857D01*
X164857142Y-123000000D01*
X164571428Y-122857142D01*
X164000000Y-122857142D01*
X163714285Y-123000000D01*
X161142857Y-124714285D02*
X161428571Y-124857142D01*
X162000000Y-124857142D01*
X162285714Y-124714285D01*
X162428571Y-124428571D01*
X162428571Y-123285714D01*
X162285714Y-123000000D01*
X162000000Y-122857142D01*
X161428571Y-122857142D01*
X161142857Y-123000000D01*
X161000000Y-123285714D01*
X161000000Y-123571428D01*
X162428571Y-123857142D01*
X159714285Y-124857142D02*
X159714285Y-122857142D01*
X159714285Y-123428571D02*
X159571428Y-123142857D01*
X159428571Y-123000000D01*
X159142857Y-122857142D01*
X158857142Y-122857142D01*
X154571428Y-123285714D02*
X154142857Y-123428571D01*
X154000000Y-123571428D01*
X153857142Y-123857142D01*
X153857142Y-124285714D01*
X154000000Y-124571428D01*
X154142857Y-124714285D01*
X154428571Y-124857142D01*
X155571428Y-124857142D01*
X155571428Y-121857142D01*
X154571428Y-121857142D01*
X154285714Y-122000000D01*
X154142857Y-122142857D01*
X154000000Y-122428571D01*
X154000000Y-122714285D01*
X154142857Y-123000000D01*
X154285714Y-123142857D01*
X154571428Y-123285714D01*
X155571428Y-123285714D01*
X152142857Y-124857142D02*
X152428571Y-124714285D01*
X152571428Y-124571428D01*
X152714285Y-124285714D01*
X152714285Y-123428571D01*
X152571428Y-123142857D01*
X152428571Y-123000000D01*
X152142857Y-122857142D01*
X151714285Y-122857142D01*
X151428571Y-123000000D01*
X151285714Y-123142857D01*
X151142857Y-123428571D01*
X151142857Y-124285714D01*
X151285714Y-124571428D01*
X151428571Y-124714285D01*
X151714285Y-124857142D01*
X152142857Y-124857142D01*
X148571428Y-124857142D02*
X148571428Y-123285714D01*
X148714285Y-123000000D01*
X149000000Y-122857142D01*
X149571428Y-122857142D01*
X149857142Y-123000000D01*
X148571428Y-124714285D02*
X148857142Y-124857142D01*
X149571428Y-124857142D01*
X149857142Y-124714285D01*
X150000000Y-124428571D01*
X150000000Y-124142857D01*
X149857142Y-123857142D01*
X149571428Y-123714285D01*
X148857142Y-123714285D01*
X148571428Y-123571428D01*
X147142857Y-124857142D02*
X147142857Y-122857142D01*
X147142857Y-123428571D02*
X147000000Y-123142857D01*
X146857142Y-123000000D01*
X146571428Y-122857142D01*
X146285714Y-122857142D01*
X144000000Y-124857142D02*
X144000000Y-121857142D01*
X144000000Y-124714285D02*
X144285714Y-124857142D01*
X144857142Y-124857142D01*
X145142857Y-124714285D01*
X145285714Y-124571428D01*
X145428571Y-124285714D01*
X145428571Y-123428571D01*
X145285714Y-123142857D01*
X145142857Y-123000000D01*
X144857142Y-122857142D01*
X144285714Y-122857142D01*
X144000000Y-123000000D01*
X179000000Y-126972857D02*
X178857142Y-126830000D01*
X178571428Y-126687142D01*
X177857142Y-126687142D01*
X177571428Y-126830000D01*
X177428571Y-126972857D01*
X177285714Y-127258571D01*
X177285714Y-127544285D01*
X177428571Y-127972857D01*
X179142857Y-129687142D01*
X177285714Y-129687142D01*
X175428571Y-126687142D02*
X175142857Y-126687142D01*
X174857142Y-126830000D01*
X174714285Y-126972857D01*
X174571428Y-127258571D01*
X174428571Y-127830000D01*
X174428571Y-128544285D01*
X174571428Y-129115714D01*
X174714285Y-129401428D01*
X174857142Y-129544285D01*
X175142857Y-129687142D01*
X175428571Y-129687142D01*
X175714285Y-129544285D01*
X175857142Y-129401428D01*
X176000000Y-129115714D01*
X176142857Y-128544285D01*
X176142857Y-127830000D01*
X176000000Y-127258571D01*
X175857142Y-126972857D01*
X175714285Y-126830000D01*
X175428571Y-126687142D01*
X173285714Y-126972857D02*
X173142857Y-126830000D01*
X172857142Y-126687142D01*
X172142857Y-126687142D01*
X171857142Y-126830000D01*
X171714285Y-126972857D01*
X171571428Y-127258571D01*
X171571428Y-127544285D01*
X171714285Y-127972857D01*
X173428571Y-129687142D01*
X171571428Y-129687142D01*
X170428571Y-126972857D02*
X170285714Y-126830000D01*
X170000000Y-126687142D01*
X169285714Y-126687142D01*
X169000000Y-126830000D01*
X168857142Y-126972857D01*
X168714285Y-127258571D01*
X168714285Y-127544285D01*
X168857142Y-127972857D01*
X170571428Y-129687142D01*
X168714285Y-129687142D01*
X165285714Y-126544285D02*
X167857142Y-130401428D01*
X162714285Y-129687142D02*
X164428571Y-129687142D01*
X163571428Y-129687142D02*
X163571428Y-126687142D01*
X163857142Y-127115714D01*
X164142857Y-127401428D01*
X164428571Y-127544285D01*
X160857142Y-126687142D02*
X160571428Y-126687142D01*
X160285714Y-126830000D01*
X160142857Y-126972857D01*
X160000000Y-127258571D01*
X159857142Y-127830000D01*
X159857142Y-128544285D01*
X160000000Y-129115714D01*
X160142857Y-129401428D01*
X160285714Y-129544285D01*
X160571428Y-129687142D01*
X160857142Y-129687142D01*
X161142857Y-129544285D01*
X161285714Y-129401428D01*
X161428571Y-129115714D01*
X161571428Y-128544285D01*
X161571428Y-127830000D01*
X161428571Y-127258571D01*
X161285714Y-126972857D01*
X161142857Y-126830000D01*
X160857142Y-126687142D01*
X156428571Y-126544285D02*
X159000000Y-130401428D01*
X154857142Y-126687142D02*
X154571428Y-126687142D01*
X154285714Y-126830000D01*
X154142857Y-126972857D01*
X154000000Y-127258571D01*
X153857142Y-127830000D01*
X153857142Y-128544285D01*
X154000000Y-129115714D01*
X154142857Y-129401428D01*
X154285714Y-129544285D01*
X154571428Y-129687142D01*
X154857142Y-129687142D01*
X155142857Y-129544285D01*
X155285714Y-129401428D01*
X155428571Y-129115714D01*
X155571428Y-128544285D01*
X155571428Y-127830000D01*
X155428571Y-127258571D01*
X155285714Y-126972857D01*
X155142857Y-126830000D01*
X154857142Y-126687142D01*
X152714285Y-126972857D02*
X152571428Y-126830000D01*
X152285714Y-126687142D01*
X151571428Y-126687142D01*
X151285714Y-126830000D01*
X151142857Y-126972857D01*
X151000000Y-127258571D01*
X151000000Y-127544285D01*
X151142857Y-127972857D01*
X152857142Y-129687142D01*
X151000000Y-129687142D01*
X151478452Y-95842380D02*
X150907023Y-95842380D01*
X151192738Y-96842380D02*
X151192738Y-95842380D01*
X150668928Y-95842380D02*
X150002261Y-96842380D01*
X150002261Y-95842380D02*
X150668928Y-96842380D01*
X148907023Y-95794761D02*
X149764166Y-97080476D01*
X148002261Y-96842380D02*
X148335595Y-96366190D01*
X148573690Y-96842380D02*
X148573690Y-95842380D01*
X148192738Y-95842380D01*
X148097500Y-95890000D01*
X148049880Y-95937619D01*
X148002261Y-96032857D01*
X148002261Y-96175714D01*
X148049880Y-96270952D01*
X148097500Y-96318571D01*
X148192738Y-96366190D01*
X148573690Y-96366190D01*
X147668928Y-95842380D02*
X147002261Y-96842380D01*
X147002261Y-95842380D02*
X147668928Y-96842380D01*
X145907023Y-96794761D02*
X145764166Y-96842380D01*
X145526071Y-96842380D01*
X145430833Y-96794761D01*
X145383214Y-96747142D01*
X145335595Y-96651904D01*
X145335595Y-96556666D01*
X145383214Y-96461428D01*
X145430833Y-96413809D01*
X145526071Y-96366190D01*
X145716547Y-96318571D01*
X145811785Y-96270952D01*
X145859404Y-96223333D01*
X145907023Y-96128095D01*
X145907023Y-96032857D01*
X145859404Y-95937619D01*
X145811785Y-95890000D01*
X145716547Y-95842380D01*
X145478452Y-95842380D01*
X145335595Y-95890000D01*
X144907023Y-96318571D02*
X144573690Y-96318571D01*
X144430833Y-96842380D02*
X144907023Y-96842380D01*
X144907023Y-95842380D01*
X144430833Y-95842380D01*
X143430833Y-96842380D02*
X143764166Y-96366190D01*
X144002261Y-96842380D02*
X144002261Y-95842380D01*
X143621309Y-95842380D01*
X143526071Y-95890000D01*
X143478452Y-95937619D01*
X143430833Y-96032857D01*
X143430833Y-96175714D01*
X143478452Y-96270952D01*
X143526071Y-96318571D01*
X143621309Y-96366190D01*
X144002261Y-96366190D01*
X143002261Y-96842380D02*
X143002261Y-95842380D01*
X142573690Y-96556666D02*
X142097500Y-96556666D01*
X142668928Y-96842380D02*
X142335595Y-95842380D01*
X142002261Y-96842380D01*
X141192738Y-96842380D02*
X141668928Y-96842380D01*
X141668928Y-95842380D01*
X148192738Y-98404761D02*
X148049880Y-98452380D01*
X147811785Y-98452380D01*
X147716547Y-98404761D01*
X147668928Y-98357142D01*
X147621309Y-98261904D01*
X147621309Y-98166666D01*
X147668928Y-98071428D01*
X147716547Y-98023809D01*
X147811785Y-97976190D01*
X148002261Y-97928571D01*
X148097500Y-97880952D01*
X148145119Y-97833333D01*
X148192738Y-97738095D01*
X148192738Y-97642857D01*
X148145119Y-97547619D01*
X148097500Y-97500000D01*
X148002261Y-97452380D01*
X147764166Y-97452380D01*
X147621309Y-97500000D01*
X147287976Y-97452380D02*
X147049880Y-98452380D01*
X146859404Y-97738095D01*
X146668928Y-98452380D01*
X146430833Y-97452380D01*
X146049880Y-98452380D02*
X146049880Y-97452380D01*
X145716547Y-97452380D02*
X145145119Y-97452380D01*
X145430833Y-98452380D02*
X145430833Y-97452380D01*
X144240357Y-98357142D02*
X144287976Y-98404761D01*
X144430833Y-98452380D01*
X144526071Y-98452380D01*
X144668928Y-98404761D01*
X144764166Y-98309523D01*
X144811785Y-98214285D01*
X144859404Y-98023809D01*
X144859404Y-97880952D01*
X144811785Y-97690476D01*
X144764166Y-97595238D01*
X144668928Y-97500000D01*
X144526071Y-97452380D01*
X144430833Y-97452380D01*
X144287976Y-97500000D01*
X144240357Y-97547619D01*
X143811785Y-98452380D02*
X143811785Y-97452380D01*
X143811785Y-97928571D02*
X143240357Y-97928571D01*
X143240357Y-98452380D02*
X143240357Y-97452380D01*
X142764166Y-97928571D02*
X142430833Y-97928571D01*
X142287976Y-98452380D02*
X142764166Y-98452380D01*
X142764166Y-97452380D01*
X142287976Y-97452380D01*
X141287976Y-98452380D02*
X141621309Y-97976190D01*
X141859404Y-98452380D02*
X141859404Y-97452380D01*
X141478452Y-97452380D01*
X141383214Y-97500000D01*
X141335595Y-97547619D01*
X141287976Y-97642857D01*
X141287976Y-97785714D01*
X141335595Y-97880952D01*
X141383214Y-97928571D01*
X141478452Y-97976190D01*
X141859404Y-97976190D01*
X152716547Y-100062380D02*
X152716547Y-99062380D01*
X152478452Y-99062380D01*
X152335595Y-99110000D01*
X152240357Y-99205238D01*
X152192738Y-99300476D01*
X152145119Y-99490952D01*
X152145119Y-99633809D01*
X152192738Y-99824285D01*
X152240357Y-99919523D01*
X152335595Y-100014761D01*
X152478452Y-100062380D01*
X152716547Y-100062380D01*
X151716547Y-99538571D02*
X151383214Y-99538571D01*
X151240357Y-100062380D02*
X151716547Y-100062380D01*
X151716547Y-99062380D01*
X151240357Y-99062380D01*
X150478452Y-99538571D02*
X150811785Y-99538571D01*
X150811785Y-100062380D02*
X150811785Y-99062380D01*
X150335595Y-99062380D01*
X150002261Y-99776666D02*
X149526071Y-99776666D01*
X150097500Y-100062380D02*
X149764166Y-99062380D01*
X149430833Y-100062380D01*
X149097500Y-99062380D02*
X149097500Y-99871904D01*
X149049880Y-99967142D01*
X149002261Y-100014761D01*
X148907023Y-100062380D01*
X148716547Y-100062380D01*
X148621309Y-100014761D01*
X148573690Y-99967142D01*
X148526071Y-99871904D01*
X148526071Y-99062380D01*
X147573690Y-100062380D02*
X148049880Y-100062380D01*
X148049880Y-99062380D01*
X147383214Y-99062380D02*
X146811785Y-99062380D01*
X147097500Y-100062380D02*
X147097500Y-99062380D01*
X146478452Y-99681428D02*
X145716547Y-99681428D01*
X145287976Y-100014761D02*
X145145119Y-100062380D01*
X144907023Y-100062380D01*
X144811785Y-100014761D01*
X144764166Y-99967142D01*
X144716547Y-99871904D01*
X144716547Y-99776666D01*
X144764166Y-99681428D01*
X144811785Y-99633809D01*
X144907023Y-99586190D01*
X145097500Y-99538571D01*
X145192738Y-99490952D01*
X145240357Y-99443333D01*
X145287976Y-99348095D01*
X145287976Y-99252857D01*
X145240357Y-99157619D01*
X145192738Y-99110000D01*
X145097500Y-99062380D01*
X144859404Y-99062380D01*
X144716547Y-99110000D01*
X143811785Y-100062380D02*
X144287976Y-100062380D01*
X144287976Y-99062380D01*
X143526071Y-99776666D02*
X143049880Y-99776666D01*
X143621309Y-100062380D02*
X143287976Y-99062380D01*
X142954642Y-100062380D01*
X142764166Y-99062380D02*
X142430833Y-100062380D01*
X142097500Y-99062380D01*
X141764166Y-99538571D02*
X141430833Y-99538571D01*
X141287976Y-100062380D02*
X141764166Y-100062380D01*
X141764166Y-99062380D01*
X141287976Y-99062380D01*
X130571428Y-118357142D02*
X129571428Y-121357142D01*
X128571428Y-118357142D01*
X127714285Y-118642857D02*
X127571428Y-118500000D01*
X127285714Y-118357142D01*
X126571428Y-118357142D01*
X126285714Y-118500000D01*
X126142857Y-118642857D01*
X126000000Y-118928571D01*
X126000000Y-119214285D01*
X126142857Y-119642857D01*
X127857142Y-121357142D01*
X126000000Y-121357142D01*
X124714285Y-121071428D02*
X124571428Y-121214285D01*
X124714285Y-121357142D01*
X124857142Y-121214285D01*
X124714285Y-121071428D01*
X124714285Y-121357142D01*
X122714285Y-118357142D02*
X122428571Y-118357142D01*
X122142857Y-118500000D01*
X122000000Y-118642857D01*
X121857142Y-118928571D01*
X121714285Y-119500000D01*
X121714285Y-120214285D01*
X121857142Y-120785714D01*
X122000000Y-121071428D01*
X122142857Y-121214285D01*
X122428571Y-121357142D01*
X122714285Y-121357142D01*
X123000000Y-121214285D01*
X123142857Y-121071428D01*
X123285714Y-120785714D01*
X123428571Y-120214285D01*
X123428571Y-119500000D01*
X123285714Y-118928571D01*
X123142857Y-118642857D01*
X123000000Y-118500000D01*
X122714285Y-118357142D01*
%TO.C,J16*%
X152082380Y-133810476D02*
X152796666Y-133810476D01*
X152939523Y-133762857D01*
X153034761Y-133667619D01*
X153082380Y-133524761D01*
X153082380Y-133429523D01*
X153082380Y-134810476D02*
X153082380Y-134239047D01*
X153082380Y-134524761D02*
X152082380Y-134524761D01*
X152225238Y-134429523D01*
X152320476Y-134334285D01*
X152368095Y-134239047D01*
X152082380Y-135667619D02*
X152082380Y-135477142D01*
X152130000Y-135381904D01*
X152177619Y-135334285D01*
X152320476Y-135239047D01*
X152510952Y-135191428D01*
X152891904Y-135191428D01*
X152987142Y-135239047D01*
X153034761Y-135286666D01*
X153082380Y-135381904D01*
X153082380Y-135572380D01*
X153034761Y-135667619D01*
X152987142Y-135715238D01*
X152891904Y-135762857D01*
X152653809Y-135762857D01*
X152558571Y-135715238D01*
X152510952Y-135667619D01*
X152463333Y-135572380D01*
X152463333Y-135381904D01*
X152510952Y-135286666D01*
X152558571Y-135239047D01*
X152653809Y-135191428D01*
%TO.C,JP1*%
X151833333Y-103452380D02*
X151833333Y-104166666D01*
X151880952Y-104309523D01*
X151976190Y-104404761D01*
X152119047Y-104452380D01*
X152214285Y-104452380D01*
X151357142Y-104452380D02*
X151357142Y-103452380D01*
X150976190Y-103452380D01*
X150880952Y-103500000D01*
X150833333Y-103547619D01*
X150785714Y-103642857D01*
X150785714Y-103785714D01*
X150833333Y-103880952D01*
X150880952Y-103928571D01*
X150976190Y-103976190D01*
X151357142Y-103976190D01*
X149833333Y-104452380D02*
X150404761Y-104452380D01*
X150119047Y-104452380D02*
X150119047Y-103452380D01*
X150214285Y-103595238D01*
X150309523Y-103690476D01*
X150404761Y-103738095D01*
%TO.C,JP2*%
X151833333Y-105952380D02*
X151833333Y-106666666D01*
X151880952Y-106809523D01*
X151976190Y-106904761D01*
X152119047Y-106952380D01*
X152214285Y-106952380D01*
X151357142Y-106952380D02*
X151357142Y-105952380D01*
X150976190Y-105952380D01*
X150880952Y-106000000D01*
X150833333Y-106047619D01*
X150785714Y-106142857D01*
X150785714Y-106285714D01*
X150833333Y-106380952D01*
X150880952Y-106428571D01*
X150976190Y-106476190D01*
X151357142Y-106476190D01*
X150404761Y-106047619D02*
X150357142Y-106000000D01*
X150261904Y-105952380D01*
X150023809Y-105952380D01*
X149928571Y-106000000D01*
X149880952Y-106047619D01*
X149833333Y-106142857D01*
X149833333Y-106238095D01*
X149880952Y-106380952D01*
X150452380Y-106952380D01*
X149833333Y-106952380D01*
D11*
%TO.C,J16*%
X148590000Y-133290000D02*
X125670000Y-133290000D01*
X151190000Y-134620000D02*
X151190000Y-133290000D01*
X148590000Y-135950000D02*
X148590000Y-133290000D01*
X148590000Y-135950000D02*
X125670000Y-135950000D01*
X151190000Y-133290000D02*
X149860000Y-133290000D01*
X125670000Y-135950000D02*
X125670000Y-133290000D01*
%TO.C,JP1*%
X145450000Y-103500000D02*
X145450000Y-105500000D01*
X146200000Y-103300000D02*
X146500000Y-103000000D01*
X146200000Y-103300000D02*
X145900000Y-103000000D01*
X149550000Y-103500000D02*
X145450000Y-103500000D01*
X149550000Y-105500000D02*
X149550000Y-103500000D01*
X145900000Y-103000000D02*
X146500000Y-103000000D01*
X145450000Y-105500000D02*
X149550000Y-105500000D01*
%TO.C,JP2*%
X149100000Y-109000000D02*
X148500000Y-109000000D01*
X149550000Y-108500000D02*
X149550000Y-106500000D01*
X145450000Y-106500000D02*
X145450000Y-108500000D01*
X145450000Y-108500000D02*
X149550000Y-108500000D01*
X148800000Y-108700000D02*
X149100000Y-109000000D01*
X148800000Y-108700000D02*
X148500000Y-109000000D01*
X149550000Y-106500000D02*
X145450000Y-106500000D01*
%TD*%
M02*
