%TF.GenerationSoftware,KiCad,Pcbnew,(6.0.7)*%
%TF.CreationDate,2022-10-05T08:02:07-05:00*%
%TF.ProjectId,ScareBanger_PCB,53636172-6542-4616-9e67-65725f504342,rev?*%
%TF.SameCoordinates,Original*%
%TF.FileFunction,Drillmap*%
%TF.FilePolarity,Positive*%
%FSLAX45Y45*%
G04 Gerber Fmt 4.5, Leading zero omitted, Abs format (unit mm)*
G04 Created by KiCad (PCBNEW (6.0.7)) date 2022-10-05 08:02:07*
%MOMM*%
%LPD*%
G01*
G04 APERTURE LIST*
%ADD10C,0.100000*%
%ADD11C,0.200000*%
%ADD12C,0.320000*%
%ADD13C,0.400000*%
G04 APERTURE END LIST*
D10*
X17700000Y-8750000D02*
G75*
G03*
X17550000Y-8600000I-150000J0D01*
G01*
X10100000Y-14050000D02*
G75*
G03*
X10250000Y-14200000I150000J0D01*
G01*
X17550000Y-14200000D02*
X10250000Y-14200000D01*
X10100000Y-14050000D02*
X10100000Y-8750000D01*
X10250000Y-8600000D02*
X17550000Y-8600000D01*
X10250000Y-8600000D02*
G75*
G03*
X10100000Y-8750000I0J-150000D01*
G01*
X17550000Y-14200000D02*
G75*
G03*
X17700000Y-14050000I0J150000D01*
G01*
X17700000Y-8750000D02*
X17700000Y-14050000D01*
D11*
D12*
X11043400Y-12070100D02*
X11363400Y-12390100D01*
X11363400Y-12070100D02*
X11043400Y-12390100D01*
X11043400Y-13213100D02*
X11363400Y-13533100D01*
X11363400Y-13213100D02*
X11043400Y-13533100D01*
D13*
X10800000Y-11300000D02*
G75*
G03*
X10800000Y-11300000I-200000J0D01*
G01*
X16150000Y-11300000D02*
G75*
G03*
X16150000Y-11300000I-200000J0D01*
G01*
D11*
X10352619Y-14515476D02*
X10352619Y-14315476D01*
X10400238Y-14315476D01*
X10428810Y-14325000D01*
X10447857Y-14344048D01*
X10457381Y-14363095D01*
X10466905Y-14401190D01*
X10466905Y-14429762D01*
X10457381Y-14467857D01*
X10447857Y-14486905D01*
X10428810Y-14505952D01*
X10400238Y-14515476D01*
X10352619Y-14515476D01*
X10552619Y-14515476D02*
X10552619Y-14382143D01*
X10552619Y-14420238D02*
X10562143Y-14401190D01*
X10571667Y-14391667D01*
X10590714Y-14382143D01*
X10609762Y-14382143D01*
X10676429Y-14515476D02*
X10676429Y-14382143D01*
X10676429Y-14315476D02*
X10666905Y-14325000D01*
X10676429Y-14334524D01*
X10685952Y-14325000D01*
X10676429Y-14315476D01*
X10676429Y-14334524D01*
X10800238Y-14515476D02*
X10781190Y-14505952D01*
X10771667Y-14486905D01*
X10771667Y-14315476D01*
X10905000Y-14515476D02*
X10885952Y-14505952D01*
X10876429Y-14486905D01*
X10876429Y-14315476D01*
X11133571Y-14515476D02*
X11133571Y-14315476D01*
X11200238Y-14458333D01*
X11266905Y-14315476D01*
X11266905Y-14515476D01*
X11447857Y-14515476D02*
X11447857Y-14410714D01*
X11438333Y-14391667D01*
X11419286Y-14382143D01*
X11381190Y-14382143D01*
X11362143Y-14391667D01*
X11447857Y-14505952D02*
X11428809Y-14515476D01*
X11381190Y-14515476D01*
X11362143Y-14505952D01*
X11352619Y-14486905D01*
X11352619Y-14467857D01*
X11362143Y-14448809D01*
X11381190Y-14439286D01*
X11428809Y-14439286D01*
X11447857Y-14429762D01*
X11543095Y-14382143D02*
X11543095Y-14582143D01*
X11543095Y-14391667D02*
X11562143Y-14382143D01*
X11600238Y-14382143D01*
X11619286Y-14391667D01*
X11628809Y-14401190D01*
X11638333Y-14420238D01*
X11638333Y-14477381D01*
X11628809Y-14496428D01*
X11619286Y-14505952D01*
X11600238Y-14515476D01*
X11562143Y-14515476D01*
X11543095Y-14505952D01*
X11724048Y-14496428D02*
X11733571Y-14505952D01*
X11724048Y-14515476D01*
X11714524Y-14505952D01*
X11724048Y-14496428D01*
X11724048Y-14515476D01*
X11724048Y-14391667D02*
X11733571Y-14401190D01*
X11724048Y-14410714D01*
X11714524Y-14401190D01*
X11724048Y-14391667D01*
X11724048Y-14410714D01*
X9895000Y-14745000D02*
X10095000Y-14945000D01*
X10095000Y-14745000D02*
X9895000Y-14945000D01*
X10333571Y-14735476D02*
X10457381Y-14735476D01*
X10390714Y-14811667D01*
X10419286Y-14811667D01*
X10438333Y-14821190D01*
X10447857Y-14830714D01*
X10457381Y-14849762D01*
X10457381Y-14897381D01*
X10447857Y-14916428D01*
X10438333Y-14925952D01*
X10419286Y-14935476D01*
X10362143Y-14935476D01*
X10343095Y-14925952D01*
X10333571Y-14916428D01*
X10543095Y-14916428D02*
X10552619Y-14925952D01*
X10543095Y-14935476D01*
X10533571Y-14925952D01*
X10543095Y-14916428D01*
X10543095Y-14935476D01*
X10628810Y-14754524D02*
X10638333Y-14745000D01*
X10657381Y-14735476D01*
X10705000Y-14735476D01*
X10724048Y-14745000D01*
X10733571Y-14754524D01*
X10743095Y-14773571D01*
X10743095Y-14792619D01*
X10733571Y-14821190D01*
X10619286Y-14935476D01*
X10743095Y-14935476D01*
X10866905Y-14735476D02*
X10885952Y-14735476D01*
X10905000Y-14745000D01*
X10914524Y-14754524D01*
X10924048Y-14773571D01*
X10933571Y-14811667D01*
X10933571Y-14859286D01*
X10924048Y-14897381D01*
X10914524Y-14916428D01*
X10905000Y-14925952D01*
X10885952Y-14935476D01*
X10866905Y-14935476D01*
X10847857Y-14925952D01*
X10838333Y-14916428D01*
X10828810Y-14897381D01*
X10819286Y-14859286D01*
X10819286Y-14811667D01*
X10828810Y-14773571D01*
X10838333Y-14754524D01*
X10847857Y-14745000D01*
X10866905Y-14735476D01*
X11057381Y-14735476D02*
X11076429Y-14735476D01*
X11095476Y-14745000D01*
X11105000Y-14754524D01*
X11114524Y-14773571D01*
X11124048Y-14811667D01*
X11124048Y-14859286D01*
X11114524Y-14897381D01*
X11105000Y-14916428D01*
X11095476Y-14925952D01*
X11076429Y-14935476D01*
X11057381Y-14935476D01*
X11038333Y-14925952D01*
X11028810Y-14916428D01*
X11019286Y-14897381D01*
X11009762Y-14859286D01*
X11009762Y-14811667D01*
X11019286Y-14773571D01*
X11028810Y-14754524D01*
X11038333Y-14745000D01*
X11057381Y-14735476D01*
X11209762Y-14935476D02*
X11209762Y-14802143D01*
X11209762Y-14821190D02*
X11219286Y-14811667D01*
X11238333Y-14802143D01*
X11266905Y-14802143D01*
X11285952Y-14811667D01*
X11295476Y-14830714D01*
X11295476Y-14935476D01*
X11295476Y-14830714D02*
X11305000Y-14811667D01*
X11324048Y-14802143D01*
X11352619Y-14802143D01*
X11371667Y-14811667D01*
X11381190Y-14830714D01*
X11381190Y-14935476D01*
X11476428Y-14935476D02*
X11476428Y-14802143D01*
X11476428Y-14821190D02*
X11485952Y-14811667D01*
X11505000Y-14802143D01*
X11533571Y-14802143D01*
X11552619Y-14811667D01*
X11562143Y-14830714D01*
X11562143Y-14935476D01*
X11562143Y-14830714D02*
X11571667Y-14811667D01*
X11590714Y-14802143D01*
X11619286Y-14802143D01*
X11638333Y-14811667D01*
X11647857Y-14830714D01*
X11647857Y-14935476D01*
X12038333Y-14725952D02*
X11866905Y-14983095D01*
X12295476Y-14735476D02*
X12314524Y-14735476D01*
X12333571Y-14745000D01*
X12343095Y-14754524D01*
X12352619Y-14773571D01*
X12362143Y-14811667D01*
X12362143Y-14859286D01*
X12352619Y-14897381D01*
X12343095Y-14916428D01*
X12333571Y-14925952D01*
X12314524Y-14935476D01*
X12295476Y-14935476D01*
X12276428Y-14925952D01*
X12266905Y-14916428D01*
X12257381Y-14897381D01*
X12247857Y-14859286D01*
X12247857Y-14811667D01*
X12257381Y-14773571D01*
X12266905Y-14754524D01*
X12276428Y-14745000D01*
X12295476Y-14735476D01*
X12447857Y-14916428D02*
X12457381Y-14925952D01*
X12447857Y-14935476D01*
X12438333Y-14925952D01*
X12447857Y-14916428D01*
X12447857Y-14935476D01*
X12647857Y-14935476D02*
X12533571Y-14935476D01*
X12590714Y-14935476D02*
X12590714Y-14735476D01*
X12571667Y-14764048D01*
X12552619Y-14783095D01*
X12533571Y-14792619D01*
X12724048Y-14754524D02*
X12733571Y-14745000D01*
X12752619Y-14735476D01*
X12800238Y-14735476D01*
X12819286Y-14745000D01*
X12828809Y-14754524D01*
X12838333Y-14773571D01*
X12838333Y-14792619D01*
X12828809Y-14821190D01*
X12714524Y-14935476D01*
X12838333Y-14935476D01*
X13009762Y-14735476D02*
X12971667Y-14735476D01*
X12952619Y-14745000D01*
X12943095Y-14754524D01*
X12924048Y-14783095D01*
X12914524Y-14821190D01*
X12914524Y-14897381D01*
X12924048Y-14916428D01*
X12933571Y-14925952D01*
X12952619Y-14935476D01*
X12990714Y-14935476D01*
X13009762Y-14925952D01*
X13019286Y-14916428D01*
X13028809Y-14897381D01*
X13028809Y-14849762D01*
X13019286Y-14830714D01*
X13009762Y-14821190D01*
X12990714Y-14811667D01*
X12952619Y-14811667D01*
X12933571Y-14821190D01*
X12924048Y-14830714D01*
X12914524Y-14849762D01*
X13152619Y-14735476D02*
X13171667Y-14735476D01*
X13190714Y-14745000D01*
X13200238Y-14754524D01*
X13209762Y-14773571D01*
X13219286Y-14811667D01*
X13219286Y-14859286D01*
X13209762Y-14897381D01*
X13200238Y-14916428D01*
X13190714Y-14925952D01*
X13171667Y-14935476D01*
X13152619Y-14935476D01*
X13133571Y-14925952D01*
X13124048Y-14916428D01*
X13114524Y-14897381D01*
X13105000Y-14859286D01*
X13105000Y-14811667D01*
X13114524Y-14773571D01*
X13124048Y-14754524D01*
X13133571Y-14745000D01*
X13152619Y-14735476D01*
X13295476Y-14735476D02*
X13295476Y-14773571D01*
X13371667Y-14735476D02*
X13371667Y-14773571D01*
X13666905Y-15011667D02*
X13657381Y-15002143D01*
X13638333Y-14973571D01*
X13628809Y-14954524D01*
X13619286Y-14925952D01*
X13609762Y-14878333D01*
X13609762Y-14840238D01*
X13619286Y-14792619D01*
X13628809Y-14764048D01*
X13638333Y-14745000D01*
X13657381Y-14716428D01*
X13666905Y-14706905D01*
X13733571Y-14754524D02*
X13743095Y-14745000D01*
X13762143Y-14735476D01*
X13809762Y-14735476D01*
X13828809Y-14745000D01*
X13838333Y-14754524D01*
X13847857Y-14773571D01*
X13847857Y-14792619D01*
X13838333Y-14821190D01*
X13724048Y-14935476D01*
X13847857Y-14935476D01*
X14085952Y-14935476D02*
X14085952Y-14735476D01*
X14171667Y-14935476D02*
X14171667Y-14830714D01*
X14162143Y-14811667D01*
X14143095Y-14802143D01*
X14114524Y-14802143D01*
X14095476Y-14811667D01*
X14085952Y-14821190D01*
X14295476Y-14935476D02*
X14276428Y-14925952D01*
X14266905Y-14916428D01*
X14257381Y-14897381D01*
X14257381Y-14840238D01*
X14266905Y-14821190D01*
X14276428Y-14811667D01*
X14295476Y-14802143D01*
X14324048Y-14802143D01*
X14343095Y-14811667D01*
X14352619Y-14821190D01*
X14362143Y-14840238D01*
X14362143Y-14897381D01*
X14352619Y-14916428D01*
X14343095Y-14925952D01*
X14324048Y-14935476D01*
X14295476Y-14935476D01*
X14476428Y-14935476D02*
X14457381Y-14925952D01*
X14447857Y-14906905D01*
X14447857Y-14735476D01*
X14628809Y-14925952D02*
X14609762Y-14935476D01*
X14571667Y-14935476D01*
X14552619Y-14925952D01*
X14543095Y-14906905D01*
X14543095Y-14830714D01*
X14552619Y-14811667D01*
X14571667Y-14802143D01*
X14609762Y-14802143D01*
X14628809Y-14811667D01*
X14638333Y-14830714D01*
X14638333Y-14849762D01*
X14543095Y-14868809D01*
X14714524Y-14925952D02*
X14733571Y-14935476D01*
X14771667Y-14935476D01*
X14790714Y-14925952D01*
X14800238Y-14906905D01*
X14800238Y-14897381D01*
X14790714Y-14878333D01*
X14771667Y-14868809D01*
X14743095Y-14868809D01*
X14724048Y-14859286D01*
X14714524Y-14840238D01*
X14714524Y-14830714D01*
X14724048Y-14811667D01*
X14743095Y-14802143D01*
X14771667Y-14802143D01*
X14790714Y-14811667D01*
X14866905Y-15011667D02*
X14876428Y-15002143D01*
X14895476Y-14973571D01*
X14905000Y-14954524D01*
X14914524Y-14925952D01*
X14924048Y-14878333D01*
X14924048Y-14840238D01*
X14914524Y-14792619D01*
X14905000Y-14764048D01*
X14895476Y-14745000D01*
X14876428Y-14716428D01*
X14866905Y-14706905D01*
X15228809Y-15011667D02*
X15219286Y-15002143D01*
X15200238Y-14973571D01*
X15190714Y-14954524D01*
X15181190Y-14925952D01*
X15171667Y-14878333D01*
X15171667Y-14840238D01*
X15181190Y-14792619D01*
X15190714Y-14764048D01*
X15200238Y-14745000D01*
X15219286Y-14716428D01*
X15228809Y-14706905D01*
X15305000Y-14802143D02*
X15305000Y-14935476D01*
X15305000Y-14821190D02*
X15314524Y-14811667D01*
X15333571Y-14802143D01*
X15362143Y-14802143D01*
X15381190Y-14811667D01*
X15390714Y-14830714D01*
X15390714Y-14935476D01*
X15514524Y-14935476D02*
X15495476Y-14925952D01*
X15485952Y-14916428D01*
X15476428Y-14897381D01*
X15476428Y-14840238D01*
X15485952Y-14821190D01*
X15495476Y-14811667D01*
X15514524Y-14802143D01*
X15543095Y-14802143D01*
X15562143Y-14811667D01*
X15571667Y-14821190D01*
X15581190Y-14840238D01*
X15581190Y-14897381D01*
X15571667Y-14916428D01*
X15562143Y-14925952D01*
X15543095Y-14935476D01*
X15514524Y-14935476D01*
X15638333Y-14802143D02*
X15714524Y-14802143D01*
X15666905Y-14735476D02*
X15666905Y-14906905D01*
X15676428Y-14925952D01*
X15695476Y-14935476D01*
X15714524Y-14935476D01*
X15933571Y-14802143D02*
X15933571Y-15002143D01*
X15933571Y-14811667D02*
X15952619Y-14802143D01*
X15990714Y-14802143D01*
X16009762Y-14811667D01*
X16019286Y-14821190D01*
X16028809Y-14840238D01*
X16028809Y-14897381D01*
X16019286Y-14916428D01*
X16009762Y-14925952D01*
X15990714Y-14935476D01*
X15952619Y-14935476D01*
X15933571Y-14925952D01*
X16143095Y-14935476D02*
X16124048Y-14925952D01*
X16114524Y-14906905D01*
X16114524Y-14735476D01*
X16305000Y-14935476D02*
X16305000Y-14830714D01*
X16295476Y-14811667D01*
X16276428Y-14802143D01*
X16238333Y-14802143D01*
X16219286Y-14811667D01*
X16305000Y-14925952D02*
X16285952Y-14935476D01*
X16238333Y-14935476D01*
X16219286Y-14925952D01*
X16209762Y-14906905D01*
X16209762Y-14887857D01*
X16219286Y-14868809D01*
X16238333Y-14859286D01*
X16285952Y-14859286D01*
X16305000Y-14849762D01*
X16371667Y-14802143D02*
X16447857Y-14802143D01*
X16400238Y-14735476D02*
X16400238Y-14906905D01*
X16409762Y-14925952D01*
X16428809Y-14935476D01*
X16447857Y-14935476D01*
X16590714Y-14925952D02*
X16571667Y-14935476D01*
X16533571Y-14935476D01*
X16514524Y-14925952D01*
X16505000Y-14906905D01*
X16505000Y-14830714D01*
X16514524Y-14811667D01*
X16533571Y-14802143D01*
X16571667Y-14802143D01*
X16590714Y-14811667D01*
X16600238Y-14830714D01*
X16600238Y-14849762D01*
X16505000Y-14868809D01*
X16771667Y-14935476D02*
X16771667Y-14735476D01*
X16771667Y-14925952D02*
X16752619Y-14935476D01*
X16714524Y-14935476D01*
X16695476Y-14925952D01*
X16685952Y-14916428D01*
X16676428Y-14897381D01*
X16676428Y-14840238D01*
X16685952Y-14821190D01*
X16695476Y-14811667D01*
X16714524Y-14802143D01*
X16752619Y-14802143D01*
X16771667Y-14811667D01*
X16847857Y-15011667D02*
X16857381Y-15002143D01*
X16876429Y-14973571D01*
X16885952Y-14954524D01*
X16895476Y-14925952D01*
X16905000Y-14878333D01*
X16905000Y-14840238D01*
X16895476Y-14792619D01*
X16885952Y-14764048D01*
X16876429Y-14745000D01*
X16857381Y-14716428D01*
X16847857Y-14706905D01*
X10095000Y-15165000D02*
G75*
G03*
X10095000Y-15165000I-100000J0D01*
G01*
X10438333Y-15122143D02*
X10438333Y-15255476D01*
X10390714Y-15045952D02*
X10343095Y-15188809D01*
X10466905Y-15188809D01*
X10543095Y-15236428D02*
X10552619Y-15245952D01*
X10543095Y-15255476D01*
X10533571Y-15245952D01*
X10543095Y-15236428D01*
X10543095Y-15255476D01*
X10676429Y-15055476D02*
X10695476Y-15055476D01*
X10714524Y-15065000D01*
X10724048Y-15074524D01*
X10733571Y-15093571D01*
X10743095Y-15131667D01*
X10743095Y-15179286D01*
X10733571Y-15217381D01*
X10724048Y-15236428D01*
X10714524Y-15245952D01*
X10695476Y-15255476D01*
X10676429Y-15255476D01*
X10657381Y-15245952D01*
X10647857Y-15236428D01*
X10638333Y-15217381D01*
X10628810Y-15179286D01*
X10628810Y-15131667D01*
X10638333Y-15093571D01*
X10647857Y-15074524D01*
X10657381Y-15065000D01*
X10676429Y-15055476D01*
X10866905Y-15055476D02*
X10885952Y-15055476D01*
X10905000Y-15065000D01*
X10914524Y-15074524D01*
X10924048Y-15093571D01*
X10933571Y-15131667D01*
X10933571Y-15179286D01*
X10924048Y-15217381D01*
X10914524Y-15236428D01*
X10905000Y-15245952D01*
X10885952Y-15255476D01*
X10866905Y-15255476D01*
X10847857Y-15245952D01*
X10838333Y-15236428D01*
X10828810Y-15217381D01*
X10819286Y-15179286D01*
X10819286Y-15131667D01*
X10828810Y-15093571D01*
X10838333Y-15074524D01*
X10847857Y-15065000D01*
X10866905Y-15055476D01*
X11057381Y-15055476D02*
X11076429Y-15055476D01*
X11095476Y-15065000D01*
X11105000Y-15074524D01*
X11114524Y-15093571D01*
X11124048Y-15131667D01*
X11124048Y-15179286D01*
X11114524Y-15217381D01*
X11105000Y-15236428D01*
X11095476Y-15245952D01*
X11076429Y-15255476D01*
X11057381Y-15255476D01*
X11038333Y-15245952D01*
X11028810Y-15236428D01*
X11019286Y-15217381D01*
X11009762Y-15179286D01*
X11009762Y-15131667D01*
X11019286Y-15093571D01*
X11028810Y-15074524D01*
X11038333Y-15065000D01*
X11057381Y-15055476D01*
X11209762Y-15255476D02*
X11209762Y-15122143D01*
X11209762Y-15141190D02*
X11219286Y-15131667D01*
X11238333Y-15122143D01*
X11266905Y-15122143D01*
X11285952Y-15131667D01*
X11295476Y-15150714D01*
X11295476Y-15255476D01*
X11295476Y-15150714D02*
X11305000Y-15131667D01*
X11324048Y-15122143D01*
X11352619Y-15122143D01*
X11371667Y-15131667D01*
X11381190Y-15150714D01*
X11381190Y-15255476D01*
X11476428Y-15255476D02*
X11476428Y-15122143D01*
X11476428Y-15141190D02*
X11485952Y-15131667D01*
X11505000Y-15122143D01*
X11533571Y-15122143D01*
X11552619Y-15131667D01*
X11562143Y-15150714D01*
X11562143Y-15255476D01*
X11562143Y-15150714D02*
X11571667Y-15131667D01*
X11590714Y-15122143D01*
X11619286Y-15122143D01*
X11638333Y-15131667D01*
X11647857Y-15150714D01*
X11647857Y-15255476D01*
X12038333Y-15045952D02*
X11866905Y-15303095D01*
X12295476Y-15055476D02*
X12314524Y-15055476D01*
X12333571Y-15065000D01*
X12343095Y-15074524D01*
X12352619Y-15093571D01*
X12362143Y-15131667D01*
X12362143Y-15179286D01*
X12352619Y-15217381D01*
X12343095Y-15236428D01*
X12333571Y-15245952D01*
X12314524Y-15255476D01*
X12295476Y-15255476D01*
X12276428Y-15245952D01*
X12266905Y-15236428D01*
X12257381Y-15217381D01*
X12247857Y-15179286D01*
X12247857Y-15131667D01*
X12257381Y-15093571D01*
X12266905Y-15074524D01*
X12276428Y-15065000D01*
X12295476Y-15055476D01*
X12447857Y-15236428D02*
X12457381Y-15245952D01*
X12447857Y-15255476D01*
X12438333Y-15245952D01*
X12447857Y-15236428D01*
X12447857Y-15255476D01*
X12647857Y-15255476D02*
X12533571Y-15255476D01*
X12590714Y-15255476D02*
X12590714Y-15055476D01*
X12571667Y-15084048D01*
X12552619Y-15103095D01*
X12533571Y-15112619D01*
X12828809Y-15055476D02*
X12733571Y-15055476D01*
X12724048Y-15150714D01*
X12733571Y-15141190D01*
X12752619Y-15131667D01*
X12800238Y-15131667D01*
X12819286Y-15141190D01*
X12828809Y-15150714D01*
X12838333Y-15169762D01*
X12838333Y-15217381D01*
X12828809Y-15236428D01*
X12819286Y-15245952D01*
X12800238Y-15255476D01*
X12752619Y-15255476D01*
X12733571Y-15245952D01*
X12724048Y-15236428D01*
X12905000Y-15055476D02*
X13038333Y-15055476D01*
X12952619Y-15255476D01*
X13209762Y-15055476D02*
X13114524Y-15055476D01*
X13105000Y-15150714D01*
X13114524Y-15141190D01*
X13133571Y-15131667D01*
X13181190Y-15131667D01*
X13200238Y-15141190D01*
X13209762Y-15150714D01*
X13219286Y-15169762D01*
X13219286Y-15217381D01*
X13209762Y-15236428D01*
X13200238Y-15245952D01*
X13181190Y-15255476D01*
X13133571Y-15255476D01*
X13114524Y-15245952D01*
X13105000Y-15236428D01*
X13295476Y-15055476D02*
X13295476Y-15093571D01*
X13371667Y-15055476D02*
X13371667Y-15093571D01*
X13666905Y-15331667D02*
X13657381Y-15322143D01*
X13638333Y-15293571D01*
X13628809Y-15274524D01*
X13619286Y-15245952D01*
X13609762Y-15198333D01*
X13609762Y-15160238D01*
X13619286Y-15112619D01*
X13628809Y-15084048D01*
X13638333Y-15065000D01*
X13657381Y-15036428D01*
X13666905Y-15026905D01*
X13733571Y-15074524D02*
X13743095Y-15065000D01*
X13762143Y-15055476D01*
X13809762Y-15055476D01*
X13828809Y-15065000D01*
X13838333Y-15074524D01*
X13847857Y-15093571D01*
X13847857Y-15112619D01*
X13838333Y-15141190D01*
X13724048Y-15255476D01*
X13847857Y-15255476D01*
X14085952Y-15255476D02*
X14085952Y-15055476D01*
X14171667Y-15255476D02*
X14171667Y-15150714D01*
X14162143Y-15131667D01*
X14143095Y-15122143D01*
X14114524Y-15122143D01*
X14095476Y-15131667D01*
X14085952Y-15141190D01*
X14295476Y-15255476D02*
X14276428Y-15245952D01*
X14266905Y-15236428D01*
X14257381Y-15217381D01*
X14257381Y-15160238D01*
X14266905Y-15141190D01*
X14276428Y-15131667D01*
X14295476Y-15122143D01*
X14324048Y-15122143D01*
X14343095Y-15131667D01*
X14352619Y-15141190D01*
X14362143Y-15160238D01*
X14362143Y-15217381D01*
X14352619Y-15236428D01*
X14343095Y-15245952D01*
X14324048Y-15255476D01*
X14295476Y-15255476D01*
X14476428Y-15255476D02*
X14457381Y-15245952D01*
X14447857Y-15226905D01*
X14447857Y-15055476D01*
X14628809Y-15245952D02*
X14609762Y-15255476D01*
X14571667Y-15255476D01*
X14552619Y-15245952D01*
X14543095Y-15226905D01*
X14543095Y-15150714D01*
X14552619Y-15131667D01*
X14571667Y-15122143D01*
X14609762Y-15122143D01*
X14628809Y-15131667D01*
X14638333Y-15150714D01*
X14638333Y-15169762D01*
X14543095Y-15188809D01*
X14714524Y-15245952D02*
X14733571Y-15255476D01*
X14771667Y-15255476D01*
X14790714Y-15245952D01*
X14800238Y-15226905D01*
X14800238Y-15217381D01*
X14790714Y-15198333D01*
X14771667Y-15188809D01*
X14743095Y-15188809D01*
X14724048Y-15179286D01*
X14714524Y-15160238D01*
X14714524Y-15150714D01*
X14724048Y-15131667D01*
X14743095Y-15122143D01*
X14771667Y-15122143D01*
X14790714Y-15131667D01*
X14866905Y-15331667D02*
X14876428Y-15322143D01*
X14895476Y-15293571D01*
X14905000Y-15274524D01*
X14914524Y-15245952D01*
X14924048Y-15198333D01*
X14924048Y-15160238D01*
X14914524Y-15112619D01*
X14905000Y-15084048D01*
X14895476Y-15065000D01*
X14876428Y-15036428D01*
X14866905Y-15026905D01*
X15228809Y-15331667D02*
X15219286Y-15322143D01*
X15200238Y-15293571D01*
X15190714Y-15274524D01*
X15181190Y-15245952D01*
X15171667Y-15198333D01*
X15171667Y-15160238D01*
X15181190Y-15112619D01*
X15190714Y-15084048D01*
X15200238Y-15065000D01*
X15219286Y-15036428D01*
X15228809Y-15026905D01*
X15305000Y-15122143D02*
X15305000Y-15255476D01*
X15305000Y-15141190D02*
X15314524Y-15131667D01*
X15333571Y-15122143D01*
X15362143Y-15122143D01*
X15381190Y-15131667D01*
X15390714Y-15150714D01*
X15390714Y-15255476D01*
X15514524Y-15255476D02*
X15495476Y-15245952D01*
X15485952Y-15236428D01*
X15476428Y-15217381D01*
X15476428Y-15160238D01*
X15485952Y-15141190D01*
X15495476Y-15131667D01*
X15514524Y-15122143D01*
X15543095Y-15122143D01*
X15562143Y-15131667D01*
X15571667Y-15141190D01*
X15581190Y-15160238D01*
X15581190Y-15217381D01*
X15571667Y-15236428D01*
X15562143Y-15245952D01*
X15543095Y-15255476D01*
X15514524Y-15255476D01*
X15638333Y-15122143D02*
X15714524Y-15122143D01*
X15666905Y-15055476D02*
X15666905Y-15226905D01*
X15676428Y-15245952D01*
X15695476Y-15255476D01*
X15714524Y-15255476D01*
X15933571Y-15122143D02*
X15933571Y-15322143D01*
X15933571Y-15131667D02*
X15952619Y-15122143D01*
X15990714Y-15122143D01*
X16009762Y-15131667D01*
X16019286Y-15141190D01*
X16028809Y-15160238D01*
X16028809Y-15217381D01*
X16019286Y-15236428D01*
X16009762Y-15245952D01*
X15990714Y-15255476D01*
X15952619Y-15255476D01*
X15933571Y-15245952D01*
X16143095Y-15255476D02*
X16124048Y-15245952D01*
X16114524Y-15226905D01*
X16114524Y-15055476D01*
X16305000Y-15255476D02*
X16305000Y-15150714D01*
X16295476Y-15131667D01*
X16276428Y-15122143D01*
X16238333Y-15122143D01*
X16219286Y-15131667D01*
X16305000Y-15245952D02*
X16285952Y-15255476D01*
X16238333Y-15255476D01*
X16219286Y-15245952D01*
X16209762Y-15226905D01*
X16209762Y-15207857D01*
X16219286Y-15188809D01*
X16238333Y-15179286D01*
X16285952Y-15179286D01*
X16305000Y-15169762D01*
X16371667Y-15122143D02*
X16447857Y-15122143D01*
X16400238Y-15055476D02*
X16400238Y-15226905D01*
X16409762Y-15245952D01*
X16428809Y-15255476D01*
X16447857Y-15255476D01*
X16590714Y-15245952D02*
X16571667Y-15255476D01*
X16533571Y-15255476D01*
X16514524Y-15245952D01*
X16505000Y-15226905D01*
X16505000Y-15150714D01*
X16514524Y-15131667D01*
X16533571Y-15122143D01*
X16571667Y-15122143D01*
X16590714Y-15131667D01*
X16600238Y-15150714D01*
X16600238Y-15169762D01*
X16505000Y-15188809D01*
X16771667Y-15255476D02*
X16771667Y-15055476D01*
X16771667Y-15245952D02*
X16752619Y-15255476D01*
X16714524Y-15255476D01*
X16695476Y-15245952D01*
X16685952Y-15236428D01*
X16676428Y-15217381D01*
X16676428Y-15160238D01*
X16685952Y-15141190D01*
X16695476Y-15131667D01*
X16714524Y-15122143D01*
X16752619Y-15122143D01*
X16771667Y-15131667D01*
X16847857Y-15331667D02*
X16857381Y-15322143D01*
X16876429Y-15293571D01*
X16885952Y-15274524D01*
X16895476Y-15245952D01*
X16905000Y-15198333D01*
X16905000Y-15160238D01*
X16895476Y-15112619D01*
X16885952Y-15084048D01*
X16876429Y-15065000D01*
X16857381Y-15036428D01*
X16847857Y-15026905D01*
M02*
