M48
; DRILL file {KiCad (6.0.7)} date Wed Oct  5 08:02:08 2022
; FORMAT={-:-/ absolute / inch / decimal}
; #@! TF.CreationDate,2022-10-05T08:02:08-05:00
; #@! TF.GenerationSoftware,Kicad,Pcbnew,(6.0.7)
; #@! TF.FileFunction,Plated,1,2,PTH
FMAT,2
INCH
; #@! TA.AperFunction,Plated,PTH,ViaDrill
T1C0.0157
; #@! TA.AperFunction,Plated,PTH,ComponentDrill
T2C0.0299
; #@! TA.AperFunction,Plated,PTH,ComponentDrill
T3C0.0315
; #@! TA.AperFunction,Plated,PTH,ComponentDrill
T4C0.0394
; #@! TA.AperFunction,Plated,PTH,ComponentDrill
T5C0.0433
; #@! TA.AperFunction,Plated,PTH,ComponentDrill
T6C0.0437
; #@! TA.AperFunction,Plated,PTH,ComponentDrill
T7C0.0472
; #@! TA.AperFunction,Plated,PTH,ComponentDrill
T8C0.0591
; #@! TA.AperFunction,Plated,PTH,ComponentDrill
T9C0.0598
; #@! TA.AperFunction,Plated,PTH,ComponentDrill
T10C0.0630
%
G90
G05
T1
X4.28Y-5.06
X4.52Y-4.9
X4.6Y-4.43
X4.7Y-4.33
X4.8031Y-4.8425
X4.96Y-4.18
X5.01Y-4.26
X5.0197Y-5.0984
X5.0315Y-4.7303
X5.145Y-4.76
X5.15Y-5.1
X5.59Y-3.83
X5.8Y-4.65
X5.8Y-4.7
X5.8Y-5.41
X5.8957Y-4.311
X5.91Y-4.99
T2
X4.6608Y-4.865
X4.6608Y-4.965
X4.6608Y-5.065
X4.6608Y-5.165
X4.7608Y-4.915
X4.7608Y-5.015
X4.7608Y-5.115
X4.7608Y-5.215
T3
X6.063Y-5.1378
X6.063Y-5.2362
X6.063Y-5.3346
X6.2205Y-4.1929
X6.3189Y-4.1929
X6.4173Y-4.1929
T4
X5.0Y-5.3
X5.1Y-5.3
X5.2Y-5.3
X5.3Y-5.3
X5.4Y-5.3
X5.5Y-5.3
X5.6Y-5.3
X5.7Y-5.3
X5.8Y-5.3
X5.9Y-5.3
T5
X6.565Y-3.4843
X6.565Y-3.7402
X6.7421Y-3.4843
X6.7421Y-3.7402
T6
X4.45Y-4.0004
X4.45Y-4.6004
X4.55Y-4.0004
X4.55Y-4.6004
X4.65Y-4.0004
X4.65Y-4.6004
X4.75Y-4.0004
X4.75Y-4.6004
X4.85Y-4.0004
X4.85Y-4.6004
X4.95Y-4.0004
X4.95Y-4.6004
X5.05Y-4.0004
X5.05Y-4.6004
X5.15Y-4.0004
X5.15Y-4.6004
X5.25Y-4.0004
X5.25Y-4.6004
X5.35Y-4.0004
X5.35Y-4.6004
X5.45Y-4.0004
X5.45Y-4.6004
X5.55Y-4.0004
X5.55Y-4.6004
X5.65Y-4.0004
X5.65Y-4.6004
X5.75Y-4.0004
X5.75Y-4.6004
X5.85Y-4.0004
X5.85Y-4.6004
T7
X6.2567Y-3.937
X6.4567Y-3.937
T8
X4.3898Y-5.5315
X4.5866Y-5.5315
X4.7835Y-5.5315
X4.9803Y-5.5315
X5.1772Y-5.5315
X5.374Y-5.5315
X5.5709Y-5.5315
X5.7677Y-5.5315
X5.9646Y-5.5315
X6.1614Y-5.5315
T9
X4.185Y-3.7008
X4.385Y-3.7008
X4.585Y-3.7008
X4.785Y-3.7008
X4.9724Y-4.8622
X4.985Y-3.7008
X5.1724Y-4.8622
X5.185Y-3.7008
X5.3724Y-4.8622
X5.5724Y-4.8622
X5.7724Y-4.8622
X5.9724Y-4.8622
X6.7323Y-4.0551
X6.7323Y-4.2551
X6.7323Y-4.4551
X6.7323Y-4.6551
X6.7323Y-4.8551
X6.7323Y-5.0551
T10
X5.4992Y-3.622
X5.6992Y-3.622
X5.8992Y-3.622
X6.0992Y-3.622
X6.2992Y-3.622
T3
G00X6.3445Y-4.8504
M15
G01X6.2776Y-4.8504
M16
G05
G00X6.4626Y-4.7441
M15
G01X6.3642Y-4.7441
M16
G05
T4
G00X6.5295Y-4.8957
M15
G01X6.5295Y-5.0256
M16
G05
T0
M30
