%TF.GenerationSoftware,KiCad,Pcbnew,(6.0.7)*%
%TF.CreationDate,2022-10-09T17:30:30-05:00*%
%TF.ProjectId,ScareBanger_PCB,53636172-6542-4616-9e67-65725f504342,rev?*%
%TF.SameCoordinates,Original*%
%TF.FileFunction,Legend,Bot*%
%TF.FilePolarity,Positive*%
%FSLAX46Y46*%
G04 Gerber Fmt 4.6, Leading zero omitted, Abs format (unit mm)*
G04 Created by KiCad (PCBNEW (6.0.7)) date 2022-10-09 17:30:30*
%MOMM*%
%LPD*%
G01*
G04 APERTURE LIST*
%ADD10C,0.150000*%
%ADD11C,0.120000*%
G04 APERTURE END LIST*
D10*
X158614285Y-88073904D02*
X158614285Y-87273904D01*
X157966666Y-87654857D02*
X158233333Y-87654857D01*
X158233333Y-88073904D02*
X158233333Y-87273904D01*
X157852380Y-87273904D01*
X156480952Y-87997714D02*
X156519047Y-88035809D01*
X156633333Y-88073904D01*
X156709523Y-88073904D01*
X156823809Y-88035809D01*
X156900000Y-87959619D01*
X156938095Y-87883428D01*
X156976190Y-87731047D01*
X156976190Y-87616761D01*
X156938095Y-87464380D01*
X156900000Y-87388190D01*
X156823809Y-87312000D01*
X156709523Y-87273904D01*
X156633333Y-87273904D01*
X156519047Y-87312000D01*
X156480952Y-87350095D01*
X155985714Y-87273904D02*
X155833333Y-87273904D01*
X155757142Y-87312000D01*
X155680952Y-87388190D01*
X155642857Y-87540571D01*
X155642857Y-87807238D01*
X155680952Y-87959619D01*
X155757142Y-88035809D01*
X155833333Y-88073904D01*
X155985714Y-88073904D01*
X156061904Y-88035809D01*
X156138095Y-87959619D01*
X156176190Y-87807238D01*
X156176190Y-87540571D01*
X156138095Y-87388190D01*
X156061904Y-87312000D01*
X155985714Y-87273904D01*
X155300000Y-88073904D02*
X155300000Y-87273904D01*
X154842857Y-88073904D01*
X154842857Y-87273904D01*
X154461904Y-88073904D02*
X154461904Y-87273904D01*
X154004761Y-88073904D01*
X154004761Y-87273904D01*
X153623809Y-87654857D02*
X153357142Y-87654857D01*
X153242857Y-88073904D02*
X153623809Y-88073904D01*
X153623809Y-87273904D01*
X153242857Y-87273904D01*
X152442857Y-87997714D02*
X152480952Y-88035809D01*
X152595238Y-88073904D01*
X152671428Y-88073904D01*
X152785714Y-88035809D01*
X152861904Y-87959619D01*
X152900000Y-87883428D01*
X152938095Y-87731047D01*
X152938095Y-87616761D01*
X152900000Y-87464380D01*
X152861904Y-87388190D01*
X152785714Y-87312000D01*
X152671428Y-87273904D01*
X152595238Y-87273904D01*
X152480952Y-87312000D01*
X152442857Y-87350095D01*
X152214285Y-87273904D02*
X151757142Y-87273904D01*
X151985714Y-88073904D02*
X151985714Y-87273904D01*
X151490476Y-88073904D02*
X151490476Y-87273904D01*
X151109523Y-88073904D02*
X151109523Y-87273904D01*
X150652380Y-88073904D01*
X150652380Y-87273904D01*
X149852380Y-87312000D02*
X149928571Y-87273904D01*
X150042857Y-87273904D01*
X150157142Y-87312000D01*
X150233333Y-87388190D01*
X150271428Y-87464380D01*
X150309523Y-87616761D01*
X150309523Y-87731047D01*
X150271428Y-87883428D01*
X150233333Y-87959619D01*
X150157142Y-88035809D01*
X150042857Y-88073904D01*
X149966666Y-88073904D01*
X149852380Y-88035809D01*
X149814285Y-87997714D01*
X149814285Y-87731047D01*
X149966666Y-87731047D01*
X148861904Y-88073904D02*
X148861904Y-87273904D01*
X148595238Y-87845333D01*
X148328571Y-87273904D01*
X148328571Y-88073904D01*
X147947619Y-87273904D02*
X147947619Y-87921523D01*
X147909523Y-87997714D01*
X147871428Y-88035809D01*
X147795238Y-88073904D01*
X147642857Y-88073904D01*
X147566666Y-88035809D01*
X147528571Y-87997714D01*
X147490476Y-87921523D01*
X147490476Y-87273904D01*
X146728571Y-88073904D02*
X147109523Y-88073904D01*
X147109523Y-87273904D01*
X146576190Y-87273904D02*
X146119047Y-87273904D01*
X146347619Y-88073904D02*
X146347619Y-87273904D01*
X145852380Y-88073904D02*
X145852380Y-87273904D01*
X145471428Y-88073904D02*
X145471428Y-87273904D01*
X145166666Y-87273904D01*
X145090476Y-87312000D01*
X145052380Y-87350095D01*
X145014285Y-87426285D01*
X145014285Y-87540571D01*
X145052380Y-87616761D01*
X145090476Y-87654857D01*
X145166666Y-87692952D01*
X145471428Y-87692952D01*
X144290476Y-88073904D02*
X144671428Y-88073904D01*
X144671428Y-87273904D01*
X144023809Y-87654857D02*
X143757142Y-87654857D01*
X143642857Y-88073904D02*
X144023809Y-88073904D01*
X144023809Y-87273904D01*
X143642857Y-87273904D01*
X142423809Y-87654857D02*
X142309523Y-87692952D01*
X142271428Y-87731047D01*
X142233333Y-87807238D01*
X142233333Y-87921523D01*
X142271428Y-87997714D01*
X142309523Y-88035809D01*
X142385714Y-88073904D01*
X142690476Y-88073904D01*
X142690476Y-87273904D01*
X142423809Y-87273904D01*
X142347619Y-87312000D01*
X142309523Y-87350095D01*
X142271428Y-87426285D01*
X142271428Y-87502476D01*
X142309523Y-87578666D01*
X142347619Y-87616761D01*
X142423809Y-87654857D01*
X142690476Y-87654857D01*
X141738095Y-87273904D02*
X141585714Y-87273904D01*
X141509523Y-87312000D01*
X141433333Y-87388190D01*
X141395238Y-87540571D01*
X141395238Y-87807238D01*
X141433333Y-87959619D01*
X141509523Y-88035809D01*
X141585714Y-88073904D01*
X141738095Y-88073904D01*
X141814285Y-88035809D01*
X141890476Y-87959619D01*
X141928571Y-87807238D01*
X141928571Y-87540571D01*
X141890476Y-87388190D01*
X141814285Y-87312000D01*
X141738095Y-87273904D01*
X141090476Y-87845333D02*
X140709523Y-87845333D01*
X141166666Y-88073904D02*
X140900000Y-87273904D01*
X140633333Y-88073904D01*
X139909523Y-88073904D02*
X140176190Y-87692952D01*
X140366666Y-88073904D02*
X140366666Y-87273904D01*
X140061904Y-87273904D01*
X139985714Y-87312000D01*
X139947619Y-87350095D01*
X139909523Y-87426285D01*
X139909523Y-87540571D01*
X139947619Y-87616761D01*
X139985714Y-87654857D01*
X140061904Y-87692952D01*
X140366666Y-87692952D01*
X139566666Y-88073904D02*
X139566666Y-87273904D01*
X139376190Y-87273904D01*
X139261904Y-87312000D01*
X139185714Y-87388190D01*
X139147619Y-87464380D01*
X139109523Y-87616761D01*
X139109523Y-87731047D01*
X139147619Y-87883428D01*
X139185714Y-87959619D01*
X139261904Y-88035809D01*
X139376190Y-88073904D01*
X139566666Y-88073904D01*
X138804761Y-88035809D02*
X138690476Y-88073904D01*
X138500000Y-88073904D01*
X138423809Y-88035809D01*
X138385714Y-87997714D01*
X138347619Y-87921523D01*
X138347619Y-87845333D01*
X138385714Y-87769142D01*
X138423809Y-87731047D01*
X138500000Y-87692952D01*
X138652380Y-87654857D01*
X138728571Y-87616761D01*
X138766666Y-87578666D01*
X138804761Y-87502476D01*
X138804761Y-87426285D01*
X138766666Y-87350095D01*
X138728571Y-87312000D01*
X138652380Y-87273904D01*
X138461904Y-87273904D01*
X138347619Y-87312000D01*
X157680952Y-88561904D02*
X157223809Y-88561904D01*
X157452380Y-89361904D02*
X157452380Y-88561904D01*
X156804761Y-88561904D02*
X156652380Y-88561904D01*
X156576190Y-88600000D01*
X156500000Y-88676190D01*
X156461904Y-88828571D01*
X156461904Y-89095238D01*
X156500000Y-89247619D01*
X156576190Y-89323809D01*
X156652380Y-89361904D01*
X156804761Y-89361904D01*
X156880952Y-89323809D01*
X156957142Y-89247619D01*
X156995238Y-89095238D01*
X156995238Y-88828571D01*
X156957142Y-88676190D01*
X156880952Y-88600000D01*
X156804761Y-88561904D01*
X155547619Y-89323809D02*
X155433333Y-89361904D01*
X155242857Y-89361904D01*
X155166666Y-89323809D01*
X155128571Y-89285714D01*
X155090476Y-89209523D01*
X155090476Y-89133333D01*
X155128571Y-89057142D01*
X155166666Y-89019047D01*
X155242857Y-88980952D01*
X155395238Y-88942857D01*
X155471428Y-88904761D01*
X155509523Y-88866666D01*
X155547619Y-88790476D01*
X155547619Y-88714285D01*
X155509523Y-88638095D01*
X155471428Y-88600000D01*
X155395238Y-88561904D01*
X155204761Y-88561904D01*
X155090476Y-88600000D01*
X154785714Y-89133333D02*
X154404761Y-89133333D01*
X154861904Y-89361904D02*
X154595238Y-88561904D01*
X154328571Y-89361904D01*
X154061904Y-89361904D02*
X154061904Y-88561904D01*
X153795238Y-89133333D01*
X153528571Y-88561904D01*
X153528571Y-89361904D01*
X153147619Y-88942857D02*
X152880952Y-88942857D01*
X152766666Y-89361904D02*
X153147619Y-89361904D01*
X153147619Y-88561904D01*
X152766666Y-88561904D01*
X151928571Y-88561904D02*
X151471428Y-88561904D01*
X151700000Y-89361904D02*
X151700000Y-88561904D01*
X150747619Y-89361904D02*
X151014285Y-88980952D01*
X151204761Y-89361904D02*
X151204761Y-88561904D01*
X150900000Y-88561904D01*
X150823809Y-88600000D01*
X150785714Y-88638095D01*
X150747619Y-88714285D01*
X150747619Y-88828571D01*
X150785714Y-88904761D01*
X150823809Y-88942857D01*
X150900000Y-88980952D01*
X151204761Y-88980952D01*
X150404761Y-89361904D02*
X150404761Y-88561904D01*
X149604761Y-88600000D02*
X149680952Y-88561904D01*
X149795238Y-88561904D01*
X149909523Y-88600000D01*
X149985714Y-88676190D01*
X150023809Y-88752380D01*
X150061904Y-88904761D01*
X150061904Y-89019047D01*
X150023809Y-89171428D01*
X149985714Y-89247619D01*
X149909523Y-89323809D01*
X149795238Y-89361904D01*
X149719047Y-89361904D01*
X149604761Y-89323809D01*
X149566666Y-89285714D01*
X149566666Y-89019047D01*
X149719047Y-89019047D01*
X148804761Y-88600000D02*
X148880952Y-88561904D01*
X148995238Y-88561904D01*
X149109523Y-88600000D01*
X149185714Y-88676190D01*
X149223809Y-88752380D01*
X149261904Y-88904761D01*
X149261904Y-89019047D01*
X149223809Y-89171428D01*
X149185714Y-89247619D01*
X149109523Y-89323809D01*
X148995238Y-89361904D01*
X148919047Y-89361904D01*
X148804761Y-89323809D01*
X148766666Y-89285714D01*
X148766666Y-89019047D01*
X148919047Y-89019047D01*
X148423809Y-88942857D02*
X148157142Y-88942857D01*
X148042857Y-89361904D02*
X148423809Y-89361904D01*
X148423809Y-88561904D01*
X148042857Y-88561904D01*
X147242857Y-89361904D02*
X147509523Y-88980952D01*
X147700000Y-89361904D02*
X147700000Y-88561904D01*
X147395238Y-88561904D01*
X147319047Y-88600000D01*
X147280952Y-88638095D01*
X147242857Y-88714285D01*
X147242857Y-88828571D01*
X147280952Y-88904761D01*
X147319047Y-88942857D01*
X147395238Y-88980952D01*
X147700000Y-88980952D01*
X146290476Y-89361904D02*
X146290476Y-88561904D01*
X146290476Y-88942857D02*
X145833333Y-88942857D01*
X145833333Y-89361904D02*
X145833333Y-88561904D01*
X145490476Y-89133333D02*
X145109523Y-89133333D01*
X145566666Y-89361904D02*
X145300000Y-88561904D01*
X145033333Y-89361904D01*
X144880952Y-88561904D02*
X144614285Y-89361904D01*
X144347619Y-88561904D01*
X144080952Y-88942857D02*
X143814285Y-88942857D01*
X143700000Y-89361904D02*
X144080952Y-89361904D01*
X144080952Y-88561904D01*
X143700000Y-88561904D01*
X142861904Y-88561904D02*
X142404761Y-88561904D01*
X142633333Y-89361904D02*
X142633333Y-88561904D01*
X142138095Y-89361904D02*
X142138095Y-88561904D01*
X142138095Y-88942857D02*
X141680952Y-88942857D01*
X141680952Y-89361904D02*
X141680952Y-88561904D01*
X141300000Y-88942857D02*
X141033333Y-88942857D01*
X140919047Y-89361904D02*
X141300000Y-89361904D01*
X141300000Y-88561904D01*
X140919047Y-88561904D01*
X140576190Y-89361904D02*
X140576190Y-88561904D01*
X140309523Y-89133333D01*
X140042857Y-88561904D01*
X140042857Y-89361904D01*
X159700000Y-90421333D02*
X159319047Y-90421333D01*
X159776190Y-90649904D02*
X159509523Y-89849904D01*
X159242857Y-90649904D01*
X158595238Y-90649904D02*
X158976190Y-90649904D01*
X158976190Y-89849904D01*
X157947619Y-90649904D02*
X158328571Y-90649904D01*
X158328571Y-89849904D01*
X157109523Y-90611809D02*
X156995238Y-90649904D01*
X156804761Y-90649904D01*
X156728571Y-90611809D01*
X156690476Y-90573714D01*
X156652380Y-90497523D01*
X156652380Y-90421333D01*
X156690476Y-90345142D01*
X156728571Y-90307047D01*
X156804761Y-90268952D01*
X156957142Y-90230857D01*
X157033333Y-90192761D01*
X157071428Y-90154666D01*
X157109523Y-90078476D01*
X157109523Y-90002285D01*
X157071428Y-89926095D01*
X157033333Y-89888000D01*
X156957142Y-89849904D01*
X156766666Y-89849904D01*
X156652380Y-89888000D01*
X156309523Y-90649904D02*
X156309523Y-89849904D01*
X156309523Y-90230857D02*
X155852380Y-90230857D01*
X155852380Y-90649904D02*
X155852380Y-89849904D01*
X155509523Y-90421333D02*
X155128571Y-90421333D01*
X155585714Y-90649904D02*
X155319047Y-89849904D01*
X155052380Y-90649904D01*
X154328571Y-90649904D02*
X154595238Y-90268952D01*
X154785714Y-90649904D02*
X154785714Y-89849904D01*
X154480952Y-89849904D01*
X154404761Y-89888000D01*
X154366666Y-89926095D01*
X154328571Y-90002285D01*
X154328571Y-90116571D01*
X154366666Y-90192761D01*
X154404761Y-90230857D01*
X154480952Y-90268952D01*
X154785714Y-90268952D01*
X153985714Y-90230857D02*
X153719047Y-90230857D01*
X153604761Y-90649904D02*
X153985714Y-90649904D01*
X153985714Y-89849904D01*
X153604761Y-89849904D01*
X152766666Y-89849904D02*
X152309523Y-89849904D01*
X152538095Y-90649904D02*
X152538095Y-89849904D01*
X152042857Y-90649904D02*
X152042857Y-89849904D01*
X152042857Y-90230857D02*
X151585714Y-90230857D01*
X151585714Y-90649904D02*
X151585714Y-89849904D01*
X151204761Y-90230857D02*
X150938095Y-90230857D01*
X150823809Y-90649904D02*
X151204761Y-90649904D01*
X151204761Y-89849904D01*
X150823809Y-89849904D01*
X149909523Y-90611809D02*
X149795238Y-90649904D01*
X149604761Y-90649904D01*
X149528571Y-90611809D01*
X149490476Y-90573714D01*
X149452380Y-90497523D01*
X149452380Y-90421333D01*
X149490476Y-90345142D01*
X149528571Y-90307047D01*
X149604761Y-90268952D01*
X149757142Y-90230857D01*
X149833333Y-90192761D01*
X149871428Y-90154666D01*
X149909523Y-90078476D01*
X149909523Y-90002285D01*
X149871428Y-89926095D01*
X149833333Y-89888000D01*
X149757142Y-89849904D01*
X149566666Y-89849904D01*
X149452380Y-89888000D01*
X149147619Y-90421333D02*
X148766666Y-90421333D01*
X149223809Y-90649904D02*
X148957142Y-89849904D01*
X148690476Y-90649904D01*
X148423809Y-90649904D02*
X148423809Y-89849904D01*
X148157142Y-90421333D01*
X147890476Y-89849904D01*
X147890476Y-90649904D01*
X147509523Y-90230857D02*
X147242857Y-90230857D01*
X147128571Y-90649904D02*
X147509523Y-90649904D01*
X147509523Y-89849904D01*
X147128571Y-89849904D01*
X146176190Y-90649904D02*
X146176190Y-89849904D01*
X145871428Y-89849904D01*
X145795238Y-89888000D01*
X145757142Y-89926095D01*
X145719047Y-90002285D01*
X145719047Y-90116571D01*
X145757142Y-90192761D01*
X145795238Y-90230857D01*
X145871428Y-90268952D01*
X146176190Y-90268952D01*
X145223809Y-89849904D02*
X145071428Y-89849904D01*
X144995238Y-89888000D01*
X144919047Y-89964190D01*
X144880952Y-90116571D01*
X144880952Y-90383238D01*
X144919047Y-90535619D01*
X144995238Y-90611809D01*
X145071428Y-90649904D01*
X145223809Y-90649904D01*
X145300000Y-90611809D01*
X145376190Y-90535619D01*
X145414285Y-90383238D01*
X145414285Y-90116571D01*
X145376190Y-89964190D01*
X145300000Y-89888000D01*
X145223809Y-89849904D01*
X144614285Y-89849904D02*
X144423809Y-90649904D01*
X144271428Y-90078476D01*
X144119047Y-90649904D01*
X143928571Y-89849904D01*
X143623809Y-90230857D02*
X143357142Y-90230857D01*
X143242857Y-90649904D02*
X143623809Y-90649904D01*
X143623809Y-89849904D01*
X143242857Y-89849904D01*
X142442857Y-90649904D02*
X142709523Y-90268952D01*
X142900000Y-90649904D02*
X142900000Y-89849904D01*
X142595238Y-89849904D01*
X142519047Y-89888000D01*
X142480952Y-89926095D01*
X142442857Y-90002285D01*
X142442857Y-90116571D01*
X142480952Y-90192761D01*
X142519047Y-90230857D01*
X142595238Y-90268952D01*
X142900000Y-90268952D01*
X141528571Y-90611809D02*
X141414285Y-90649904D01*
X141223809Y-90649904D01*
X141147619Y-90611809D01*
X141109523Y-90573714D01*
X141071428Y-90497523D01*
X141071428Y-90421333D01*
X141109523Y-90345142D01*
X141147619Y-90307047D01*
X141223809Y-90268952D01*
X141376190Y-90230857D01*
X141452380Y-90192761D01*
X141490476Y-90154666D01*
X141528571Y-90078476D01*
X141528571Y-90002285D01*
X141490476Y-89926095D01*
X141452380Y-89888000D01*
X141376190Y-89849904D01*
X141185714Y-89849904D01*
X141071428Y-89888000D01*
X140728571Y-89849904D02*
X140728571Y-90497523D01*
X140690476Y-90573714D01*
X140652380Y-90611809D01*
X140576190Y-90649904D01*
X140423809Y-90649904D01*
X140347619Y-90611809D01*
X140309523Y-90573714D01*
X140271428Y-90497523D01*
X140271428Y-89849904D01*
X139890476Y-90649904D02*
X139890476Y-89849904D01*
X139585714Y-89849904D01*
X139509523Y-89888000D01*
X139471428Y-89926095D01*
X139433333Y-90002285D01*
X139433333Y-90116571D01*
X139471428Y-90192761D01*
X139509523Y-90230857D01*
X139585714Y-90268952D01*
X139890476Y-90268952D01*
X139090476Y-90649904D02*
X139090476Y-89849904D01*
X138785714Y-89849904D01*
X138709523Y-89888000D01*
X138671428Y-89926095D01*
X138633333Y-90002285D01*
X138633333Y-90116571D01*
X138671428Y-90192761D01*
X138709523Y-90230857D01*
X138785714Y-90268952D01*
X139090476Y-90268952D01*
X137909523Y-90649904D02*
X138290476Y-90649904D01*
X138290476Y-89849904D01*
X137490476Y-90268952D02*
X137490476Y-90649904D01*
X137757142Y-89849904D02*
X137490476Y-90268952D01*
X137223809Y-89849904D01*
X151478452Y-95842380D02*
X150907023Y-95842380D01*
X151192738Y-96842380D02*
X151192738Y-95842380D01*
X150668928Y-95842380D02*
X150002261Y-96842380D01*
X150002261Y-95842380D02*
X150668928Y-96842380D01*
X148907023Y-95794761D02*
X149764166Y-97080476D01*
X148002261Y-96842380D02*
X148335595Y-96366190D01*
X148573690Y-96842380D02*
X148573690Y-95842380D01*
X148192738Y-95842380D01*
X148097500Y-95890000D01*
X148049880Y-95937619D01*
X148002261Y-96032857D01*
X148002261Y-96175714D01*
X148049880Y-96270952D01*
X148097500Y-96318571D01*
X148192738Y-96366190D01*
X148573690Y-96366190D01*
X147668928Y-95842380D02*
X147002261Y-96842380D01*
X147002261Y-95842380D02*
X147668928Y-96842380D01*
X145907023Y-96794761D02*
X145764166Y-96842380D01*
X145526071Y-96842380D01*
X145430833Y-96794761D01*
X145383214Y-96747142D01*
X145335595Y-96651904D01*
X145335595Y-96556666D01*
X145383214Y-96461428D01*
X145430833Y-96413809D01*
X145526071Y-96366190D01*
X145716547Y-96318571D01*
X145811785Y-96270952D01*
X145859404Y-96223333D01*
X145907023Y-96128095D01*
X145907023Y-96032857D01*
X145859404Y-95937619D01*
X145811785Y-95890000D01*
X145716547Y-95842380D01*
X145478452Y-95842380D01*
X145335595Y-95890000D01*
X144907023Y-96318571D02*
X144573690Y-96318571D01*
X144430833Y-96842380D02*
X144907023Y-96842380D01*
X144907023Y-95842380D01*
X144430833Y-95842380D01*
X143430833Y-96842380D02*
X143764166Y-96366190D01*
X144002261Y-96842380D02*
X144002261Y-95842380D01*
X143621309Y-95842380D01*
X143526071Y-95890000D01*
X143478452Y-95937619D01*
X143430833Y-96032857D01*
X143430833Y-96175714D01*
X143478452Y-96270952D01*
X143526071Y-96318571D01*
X143621309Y-96366190D01*
X144002261Y-96366190D01*
X143002261Y-96842380D02*
X143002261Y-95842380D01*
X142573690Y-96556666D02*
X142097500Y-96556666D01*
X142668928Y-96842380D02*
X142335595Y-95842380D01*
X142002261Y-96842380D01*
X141192738Y-96842380D02*
X141668928Y-96842380D01*
X141668928Y-95842380D01*
X148192738Y-98404761D02*
X148049880Y-98452380D01*
X147811785Y-98452380D01*
X147716547Y-98404761D01*
X147668928Y-98357142D01*
X147621309Y-98261904D01*
X147621309Y-98166666D01*
X147668928Y-98071428D01*
X147716547Y-98023809D01*
X147811785Y-97976190D01*
X148002261Y-97928571D01*
X148097500Y-97880952D01*
X148145119Y-97833333D01*
X148192738Y-97738095D01*
X148192738Y-97642857D01*
X148145119Y-97547619D01*
X148097500Y-97500000D01*
X148002261Y-97452380D01*
X147764166Y-97452380D01*
X147621309Y-97500000D01*
X147287976Y-97452380D02*
X147049880Y-98452380D01*
X146859404Y-97738095D01*
X146668928Y-98452380D01*
X146430833Y-97452380D01*
X146049880Y-98452380D02*
X146049880Y-97452380D01*
X145716547Y-97452380D02*
X145145119Y-97452380D01*
X145430833Y-98452380D02*
X145430833Y-97452380D01*
X144240357Y-98357142D02*
X144287976Y-98404761D01*
X144430833Y-98452380D01*
X144526071Y-98452380D01*
X144668928Y-98404761D01*
X144764166Y-98309523D01*
X144811785Y-98214285D01*
X144859404Y-98023809D01*
X144859404Y-97880952D01*
X144811785Y-97690476D01*
X144764166Y-97595238D01*
X144668928Y-97500000D01*
X144526071Y-97452380D01*
X144430833Y-97452380D01*
X144287976Y-97500000D01*
X144240357Y-97547619D01*
X143811785Y-98452380D02*
X143811785Y-97452380D01*
X143811785Y-97928571D02*
X143240357Y-97928571D01*
X143240357Y-98452380D02*
X143240357Y-97452380D01*
X142764166Y-97928571D02*
X142430833Y-97928571D01*
X142287976Y-98452380D02*
X142764166Y-98452380D01*
X142764166Y-97452380D01*
X142287976Y-97452380D01*
X141287976Y-98452380D02*
X141621309Y-97976190D01*
X141859404Y-98452380D02*
X141859404Y-97452380D01*
X141478452Y-97452380D01*
X141383214Y-97500000D01*
X141335595Y-97547619D01*
X141287976Y-97642857D01*
X141287976Y-97785714D01*
X141335595Y-97880952D01*
X141383214Y-97928571D01*
X141478452Y-97976190D01*
X141859404Y-97976190D01*
X152716547Y-100062380D02*
X152716547Y-99062380D01*
X152478452Y-99062380D01*
X152335595Y-99110000D01*
X152240357Y-99205238D01*
X152192738Y-99300476D01*
X152145119Y-99490952D01*
X152145119Y-99633809D01*
X152192738Y-99824285D01*
X152240357Y-99919523D01*
X152335595Y-100014761D01*
X152478452Y-100062380D01*
X152716547Y-100062380D01*
X151716547Y-99538571D02*
X151383214Y-99538571D01*
X151240357Y-100062380D02*
X151716547Y-100062380D01*
X151716547Y-99062380D01*
X151240357Y-99062380D01*
X150478452Y-99538571D02*
X150811785Y-99538571D01*
X150811785Y-100062380D02*
X150811785Y-99062380D01*
X150335595Y-99062380D01*
X150002261Y-99776666D02*
X149526071Y-99776666D01*
X150097500Y-100062380D02*
X149764166Y-99062380D01*
X149430833Y-100062380D01*
X149097500Y-99062380D02*
X149097500Y-99871904D01*
X149049880Y-99967142D01*
X149002261Y-100014761D01*
X148907023Y-100062380D01*
X148716547Y-100062380D01*
X148621309Y-100014761D01*
X148573690Y-99967142D01*
X148526071Y-99871904D01*
X148526071Y-99062380D01*
X147573690Y-100062380D02*
X148049880Y-100062380D01*
X148049880Y-99062380D01*
X147383214Y-99062380D02*
X146811785Y-99062380D01*
X147097500Y-100062380D02*
X147097500Y-99062380D01*
X146478452Y-99681428D02*
X145716547Y-99681428D01*
X145287976Y-100014761D02*
X145145119Y-100062380D01*
X144907023Y-100062380D01*
X144811785Y-100014761D01*
X144764166Y-99967142D01*
X144716547Y-99871904D01*
X144716547Y-99776666D01*
X144764166Y-99681428D01*
X144811785Y-99633809D01*
X144907023Y-99586190D01*
X145097500Y-99538571D01*
X145192738Y-99490952D01*
X145240357Y-99443333D01*
X145287976Y-99348095D01*
X145287976Y-99252857D01*
X145240357Y-99157619D01*
X145192738Y-99110000D01*
X145097500Y-99062380D01*
X144859404Y-99062380D01*
X144716547Y-99110000D01*
X143811785Y-100062380D02*
X144287976Y-100062380D01*
X144287976Y-99062380D01*
X143526071Y-99776666D02*
X143049880Y-99776666D01*
X143621309Y-100062380D02*
X143287976Y-99062380D01*
X142954642Y-100062380D01*
X142764166Y-99062380D02*
X142430833Y-100062380D01*
X142097500Y-99062380D01*
X141764166Y-99538571D02*
X141430833Y-99538571D01*
X141287976Y-100062380D02*
X141764166Y-100062380D01*
X141764166Y-99062380D01*
X141287976Y-99062380D01*
X144242857Y-108464285D02*
X143814285Y-108607142D01*
X143100000Y-108607142D01*
X142814285Y-108464285D01*
X142671428Y-108321428D01*
X142528571Y-108035714D01*
X142528571Y-107750000D01*
X142671428Y-107464285D01*
X142814285Y-107321428D01*
X143100000Y-107178571D01*
X143671428Y-107035714D01*
X143957142Y-106892857D01*
X144100000Y-106750000D01*
X144242857Y-106464285D01*
X144242857Y-106178571D01*
X144100000Y-105892857D01*
X143957142Y-105750000D01*
X143671428Y-105607142D01*
X142957142Y-105607142D01*
X142528571Y-105750000D01*
X139957142Y-108464285D02*
X140242857Y-108607142D01*
X140814285Y-108607142D01*
X141100000Y-108464285D01*
X141242857Y-108321428D01*
X141385714Y-108035714D01*
X141385714Y-107178571D01*
X141242857Y-106892857D01*
X141100000Y-106750000D01*
X140814285Y-106607142D01*
X140242857Y-106607142D01*
X139957142Y-106750000D01*
X137385714Y-108607142D02*
X137385714Y-107035714D01*
X137528571Y-106750000D01*
X137814285Y-106607142D01*
X138385714Y-106607142D01*
X138671428Y-106750000D01*
X137385714Y-108464285D02*
X137671428Y-108607142D01*
X138385714Y-108607142D01*
X138671428Y-108464285D01*
X138814285Y-108178571D01*
X138814285Y-107892857D01*
X138671428Y-107607142D01*
X138385714Y-107464285D01*
X137671428Y-107464285D01*
X137385714Y-107321428D01*
X135957142Y-108607142D02*
X135957142Y-106607142D01*
X135957142Y-107178571D02*
X135814285Y-106892857D01*
X135671428Y-106750000D01*
X135385714Y-106607142D01*
X135100000Y-106607142D01*
X132957142Y-108464285D02*
X133242857Y-108607142D01*
X133814285Y-108607142D01*
X134099999Y-108464285D01*
X134242857Y-108178571D01*
X134242857Y-107035714D01*
X134099999Y-106750000D01*
X133814285Y-106607142D01*
X133242857Y-106607142D01*
X132957142Y-106750000D01*
X132814285Y-107035714D01*
X132814285Y-107321428D01*
X134242857Y-107607142D01*
X130528571Y-107035714D02*
X130099999Y-107178571D01*
X129957142Y-107321428D01*
X129814285Y-107607142D01*
X129814285Y-108035714D01*
X129957142Y-108321428D01*
X130099999Y-108464285D01*
X130385714Y-108607142D01*
X131528571Y-108607142D01*
X131528571Y-105607142D01*
X130528571Y-105607142D01*
X130242857Y-105750000D01*
X130099999Y-105892857D01*
X129957142Y-106178571D01*
X129957142Y-106464285D01*
X130099999Y-106750000D01*
X130242857Y-106892857D01*
X130528571Y-107035714D01*
X131528571Y-107035714D01*
X127242857Y-108607142D02*
X127242857Y-107035714D01*
X127385714Y-106750000D01*
X127671428Y-106607142D01*
X128242857Y-106607142D01*
X128528571Y-106750000D01*
X127242857Y-108464285D02*
X127528571Y-108607142D01*
X128242857Y-108607142D01*
X128528571Y-108464285D01*
X128671428Y-108178571D01*
X128671428Y-107892857D01*
X128528571Y-107607142D01*
X128242857Y-107464285D01*
X127528571Y-107464285D01*
X127242857Y-107321428D01*
X125814285Y-106607142D02*
X125814285Y-108607142D01*
X125814285Y-106892857D02*
X125671428Y-106750000D01*
X125385714Y-106607142D01*
X124957142Y-106607142D01*
X124671428Y-106750000D01*
X124528571Y-107035714D01*
X124528571Y-108607142D01*
X121814285Y-106607142D02*
X121814285Y-109035714D01*
X121957142Y-109321428D01*
X122100000Y-109464285D01*
X122385714Y-109607142D01*
X122814285Y-109607142D01*
X123100000Y-109464285D01*
X121814285Y-108464285D02*
X122100000Y-108607142D01*
X122671428Y-108607142D01*
X122957142Y-108464285D01*
X123100000Y-108321428D01*
X123242857Y-108035714D01*
X123242857Y-107178571D01*
X123100000Y-106892857D01*
X122957142Y-106750000D01*
X122671428Y-106607142D01*
X122100000Y-106607142D01*
X121814285Y-106750000D01*
X119242857Y-108464285D02*
X119528571Y-108607142D01*
X120100000Y-108607142D01*
X120385714Y-108464285D01*
X120528571Y-108178571D01*
X120528571Y-107035714D01*
X120385714Y-106750000D01*
X120100000Y-106607142D01*
X119528571Y-106607142D01*
X119242857Y-106750000D01*
X119100000Y-107035714D01*
X119100000Y-107321428D01*
X120528571Y-107607142D01*
X117814285Y-108607142D02*
X117814285Y-106607142D01*
X117814285Y-107178571D02*
X117671428Y-106892857D01*
X117528571Y-106750000D01*
X117242857Y-106607142D01*
X116957142Y-106607142D01*
X112671428Y-107035714D02*
X112242857Y-107178571D01*
X112100000Y-107321428D01*
X111957142Y-107607142D01*
X111957142Y-108035714D01*
X112100000Y-108321428D01*
X112242857Y-108464285D01*
X112528571Y-108607142D01*
X113671428Y-108607142D01*
X113671428Y-105607142D01*
X112671428Y-105607142D01*
X112385714Y-105750000D01*
X112242857Y-105892857D01*
X112100000Y-106178571D01*
X112100000Y-106464285D01*
X112242857Y-106750000D01*
X112385714Y-106892857D01*
X112671428Y-107035714D01*
X113671428Y-107035714D01*
X110242857Y-108607142D02*
X110528571Y-108464285D01*
X110671428Y-108321428D01*
X110814285Y-108035714D01*
X110814285Y-107178571D01*
X110671428Y-106892857D01*
X110528571Y-106750000D01*
X110242857Y-106607142D01*
X109814285Y-106607142D01*
X109528571Y-106750000D01*
X109385714Y-106892857D01*
X109242857Y-107178571D01*
X109242857Y-108035714D01*
X109385714Y-108321428D01*
X109528571Y-108464285D01*
X109814285Y-108607142D01*
X110242857Y-108607142D01*
X106671428Y-108607142D02*
X106671428Y-107035714D01*
X106814285Y-106750000D01*
X107100000Y-106607142D01*
X107671428Y-106607142D01*
X107957142Y-106750000D01*
X106671428Y-108464285D02*
X106957142Y-108607142D01*
X107671428Y-108607142D01*
X107957142Y-108464285D01*
X108100000Y-108178571D01*
X108100000Y-107892857D01*
X107957142Y-107607142D01*
X107671428Y-107464285D01*
X106957142Y-107464285D01*
X106671428Y-107321428D01*
X105242857Y-108607142D02*
X105242857Y-106607142D01*
X105242857Y-107178571D02*
X105099999Y-106892857D01*
X104957142Y-106750000D01*
X104671428Y-106607142D01*
X104385714Y-106607142D01*
X102099999Y-108607142D02*
X102099999Y-105607142D01*
X102099999Y-108464285D02*
X102385714Y-108607142D01*
X102957142Y-108607142D01*
X103242857Y-108464285D01*
X103385714Y-108321428D01*
X103528571Y-108035714D01*
X103528571Y-107178571D01*
X103385714Y-106892857D01*
X103242857Y-106750000D01*
X102957142Y-106607142D01*
X102385714Y-106607142D01*
X102099999Y-106750000D01*
X137100000Y-110722857D02*
X136957142Y-110580000D01*
X136671428Y-110437142D01*
X135957142Y-110437142D01*
X135671428Y-110580000D01*
X135528571Y-110722857D01*
X135385714Y-111008571D01*
X135385714Y-111294285D01*
X135528571Y-111722857D01*
X137242857Y-113437142D01*
X135385714Y-113437142D01*
X133528571Y-110437142D02*
X133242857Y-110437142D01*
X132957142Y-110580000D01*
X132814285Y-110722857D01*
X132671428Y-111008571D01*
X132528571Y-111580000D01*
X132528571Y-112294285D01*
X132671428Y-112865714D01*
X132814285Y-113151428D01*
X132957142Y-113294285D01*
X133242857Y-113437142D01*
X133528571Y-113437142D01*
X133814285Y-113294285D01*
X133957142Y-113151428D01*
X134100000Y-112865714D01*
X134242857Y-112294285D01*
X134242857Y-111580000D01*
X134100000Y-111008571D01*
X133957142Y-110722857D01*
X133814285Y-110580000D01*
X133528571Y-110437142D01*
X131385714Y-110722857D02*
X131242857Y-110580000D01*
X130957142Y-110437142D01*
X130242857Y-110437142D01*
X129957142Y-110580000D01*
X129814285Y-110722857D01*
X129671428Y-111008571D01*
X129671428Y-111294285D01*
X129814285Y-111722857D01*
X131528571Y-113437142D01*
X129671428Y-113437142D01*
X128528571Y-110722857D02*
X128385714Y-110580000D01*
X128100000Y-110437142D01*
X127385714Y-110437142D01*
X127100000Y-110580000D01*
X126957142Y-110722857D01*
X126814285Y-111008571D01*
X126814285Y-111294285D01*
X126957142Y-111722857D01*
X128671428Y-113437142D01*
X126814285Y-113437142D01*
X123385714Y-110294285D02*
X125957142Y-114151428D01*
X120814285Y-113437142D02*
X122528571Y-113437142D01*
X121671428Y-113437142D02*
X121671428Y-110437142D01*
X121957142Y-110865714D01*
X122242857Y-111151428D01*
X122528571Y-111294285D01*
X118957142Y-110437142D02*
X118671428Y-110437142D01*
X118385714Y-110580000D01*
X118242857Y-110722857D01*
X118100000Y-111008571D01*
X117957142Y-111580000D01*
X117957142Y-112294285D01*
X118100000Y-112865714D01*
X118242857Y-113151428D01*
X118385714Y-113294285D01*
X118671428Y-113437142D01*
X118957142Y-113437142D01*
X119242857Y-113294285D01*
X119385714Y-113151428D01*
X119528571Y-112865714D01*
X119671428Y-112294285D01*
X119671428Y-111580000D01*
X119528571Y-111008571D01*
X119385714Y-110722857D01*
X119242857Y-110580000D01*
X118957142Y-110437142D01*
X114528571Y-110294285D02*
X117100000Y-114151428D01*
X112957142Y-110437142D02*
X112671428Y-110437142D01*
X112385714Y-110580000D01*
X112242857Y-110722857D01*
X112100000Y-111008571D01*
X111957142Y-111580000D01*
X111957142Y-112294285D01*
X112100000Y-112865714D01*
X112242857Y-113151428D01*
X112385714Y-113294285D01*
X112671428Y-113437142D01*
X112957142Y-113437142D01*
X113242857Y-113294285D01*
X113385714Y-113151428D01*
X113528571Y-112865714D01*
X113671428Y-112294285D01*
X113671428Y-111580000D01*
X113528571Y-111008571D01*
X113385714Y-110722857D01*
X113242857Y-110580000D01*
X112957142Y-110437142D01*
X110528571Y-113437142D02*
X109957142Y-113437142D01*
X109671428Y-113294285D01*
X109528571Y-113151428D01*
X109242857Y-112722857D01*
X109100000Y-112151428D01*
X109100000Y-111008571D01*
X109242857Y-110722857D01*
X109385714Y-110580000D01*
X109671428Y-110437142D01*
X110242857Y-110437142D01*
X110528571Y-110580000D01*
X110671428Y-110722857D01*
X110814285Y-111008571D01*
X110814285Y-111722857D01*
X110671428Y-112008571D01*
X110528571Y-112151428D01*
X110242857Y-112294285D01*
X109671428Y-112294285D01*
X109385714Y-112151428D01*
X109242857Y-112008571D01*
X109100000Y-111722857D01*
%TO.C,J16*%
X152082380Y-133810476D02*
X152796666Y-133810476D01*
X152939523Y-133762857D01*
X153034761Y-133667619D01*
X153082380Y-133524761D01*
X153082380Y-133429523D01*
X153082380Y-134810476D02*
X153082380Y-134239047D01*
X153082380Y-134524761D02*
X152082380Y-134524761D01*
X152225238Y-134429523D01*
X152320476Y-134334285D01*
X152368095Y-134239047D01*
X152082380Y-135667619D02*
X152082380Y-135477142D01*
X152130000Y-135381904D01*
X152177619Y-135334285D01*
X152320476Y-135239047D01*
X152510952Y-135191428D01*
X152891904Y-135191428D01*
X152987142Y-135239047D01*
X153034761Y-135286666D01*
X153082380Y-135381904D01*
X153082380Y-135572380D01*
X153034761Y-135667619D01*
X152987142Y-135715238D01*
X152891904Y-135762857D01*
X152653809Y-135762857D01*
X152558571Y-135715238D01*
X152510952Y-135667619D01*
X152463333Y-135572380D01*
X152463333Y-135381904D01*
X152510952Y-135286666D01*
X152558571Y-135239047D01*
X152653809Y-135191428D01*
%TO.C,JP1*%
X151833333Y-103452380D02*
X151833333Y-104166666D01*
X151880952Y-104309523D01*
X151976190Y-104404761D01*
X152119047Y-104452380D01*
X152214285Y-104452380D01*
X151357142Y-104452380D02*
X151357142Y-103452380D01*
X150976190Y-103452380D01*
X150880952Y-103500000D01*
X150833333Y-103547619D01*
X150785714Y-103642857D01*
X150785714Y-103785714D01*
X150833333Y-103880952D01*
X150880952Y-103928571D01*
X150976190Y-103976190D01*
X151357142Y-103976190D01*
X149833333Y-104452380D02*
X150404761Y-104452380D01*
X150119047Y-104452380D02*
X150119047Y-103452380D01*
X150214285Y-103595238D01*
X150309523Y-103690476D01*
X150404761Y-103738095D01*
%TO.C,JP2*%
X151833333Y-105952380D02*
X151833333Y-106666666D01*
X151880952Y-106809523D01*
X151976190Y-106904761D01*
X152119047Y-106952380D01*
X152214285Y-106952380D01*
X151357142Y-106952380D02*
X151357142Y-105952380D01*
X150976190Y-105952380D01*
X150880952Y-106000000D01*
X150833333Y-106047619D01*
X150785714Y-106142857D01*
X150785714Y-106285714D01*
X150833333Y-106380952D01*
X150880952Y-106428571D01*
X150976190Y-106476190D01*
X151357142Y-106476190D01*
X150404761Y-106047619D02*
X150357142Y-106000000D01*
X150261904Y-105952380D01*
X150023809Y-105952380D01*
X149928571Y-106000000D01*
X149880952Y-106047619D01*
X149833333Y-106142857D01*
X149833333Y-106238095D01*
X149880952Y-106380952D01*
X150452380Y-106952380D01*
X149833333Y-106952380D01*
D11*
%TO.C,J16*%
X148590000Y-133290000D02*
X125670000Y-133290000D01*
X151190000Y-134620000D02*
X151190000Y-133290000D01*
X148590000Y-135950000D02*
X148590000Y-133290000D01*
X148590000Y-135950000D02*
X125670000Y-135950000D01*
X151190000Y-133290000D02*
X149860000Y-133290000D01*
X125670000Y-135950000D02*
X125670000Y-133290000D01*
%TO.C,JP1*%
X145450000Y-103500000D02*
X145450000Y-105500000D01*
X146200000Y-103300000D02*
X146500000Y-103000000D01*
X146200000Y-103300000D02*
X145900000Y-103000000D01*
X149550000Y-103500000D02*
X145450000Y-103500000D01*
X149550000Y-105500000D02*
X149550000Y-103500000D01*
X145900000Y-103000000D02*
X146500000Y-103000000D01*
X145450000Y-105500000D02*
X149550000Y-105500000D01*
%TO.C,JP2*%
X149100000Y-109000000D02*
X148500000Y-109000000D01*
X149550000Y-108500000D02*
X149550000Y-106500000D01*
X145450000Y-106500000D02*
X145450000Y-108500000D01*
X145450000Y-108500000D02*
X149550000Y-108500000D01*
X148800000Y-108700000D02*
X149100000Y-109000000D01*
X148800000Y-108700000D02*
X148500000Y-109000000D01*
X149550000Y-106500000D02*
X145450000Y-106500000D01*
%TD*%
M02*
