M48
; DRILL file {KiCad (6.0.7)} date Sun Oct  9 17:30:24 2022
; FORMAT={-:-/ absolute / inch / decimal}
; #@! TF.CreationDate,2022-10-09T17:30:24-05:00
; #@! TF.GenerationSoftware,Kicad,Pcbnew,(6.0.7)
; #@! TF.FileFunction,Plated,1,2,PTH
FMAT,2
INCH
; #@! TA.AperFunction,Plated,PTH,ViaDrill
T1C0.0157
; #@! TA.AperFunction,Plated,PTH,ComponentDrill
T2C0.0236
; #@! TA.AperFunction,Plated,PTH,ComponentDrill
T3C0.0299
; #@! TA.AperFunction,Plated,PTH,ComponentDrill
T4C0.0315
; #@! TA.AperFunction,Plated,PTH,ComponentDrill
T5C0.0354
; #@! TA.AperFunction,Plated,PTH,ComponentDrill
T6C0.0394
; #@! TA.AperFunction,Plated,PTH,ComponentDrill
T7C0.0433
; #@! TA.AperFunction,Plated,PTH,ComponentDrill
T8C0.0437
; #@! TA.AperFunction,Plated,PTH,ComponentDrill
T9C0.0591
; #@! TA.AperFunction,Plated,PTH,ComponentDrill
T10C0.0598
; #@! TA.AperFunction,Plated,PTH,ComponentDrill
T11C0.0630
%
G90
G05
T1
X4.28Y-5.06
X4.52Y-4.9
X4.6Y-4.43
X4.7Y-4.33
X4.8031Y-4.8425
X4.874Y-5.063
X4.96Y-4.18
X5.01Y-4.26
X5.0197Y-5.0984
X5.0315Y-4.7303
X5.15Y-5.1
X5.3346Y-5.3661
X5.59Y-3.83
X5.6063Y-4.7087
X5.6299Y-4.3898
X5.7497Y-4.6598
X5.8Y-5.41
X5.8166Y-4.7205
X5.8465Y-4.9902
X6.4173Y-4.4488
X6.4173Y-4.8031
X6.8898Y-5.1181
X6.9685Y-4.3701
X6.9685Y-4.4094
X6.9685Y-4.4488
X6.9685Y-4.4882
T3
X4.6608Y-4.865
X4.6608Y-4.965
X4.6608Y-5.065
X4.6608Y-5.165
X4.7608Y-4.915
X4.7608Y-5.015
X4.7608Y-5.115
X4.7608Y-5.215
T4
X4.0535Y-5.502
X4.0669Y-3.9313
X4.0669Y-4.0313
X4.1535Y-5.502
X4.1929Y-3.9331
X4.1929Y-4.0331
X4.9291Y-5.0711
X4.9291Y-5.1711
X5.2441Y-5.0693
X5.2441Y-5.1693
X6.063Y-5.1378
X6.063Y-5.2362
X6.063Y-5.3346
X6.1417Y-4.0945
X6.2205Y-4.8819
X6.2386Y-5.0787
X6.2417Y-4.0945
X6.3189Y-4.8819
X6.3386Y-5.0787
X6.5035Y-4.0945
X6.8035Y-4.0945
T5
X6.5047Y-3.5039
X6.5047Y-4.2039
X6.6047Y-3.5039
X6.6047Y-4.2039
X6.7047Y-3.5039
X6.7047Y-4.2039
X6.8047Y-3.5039
X6.8047Y-4.2039
X6.9047Y-3.5039
X6.9047Y-4.2039
X7.0047Y-3.5039
X7.0047Y-4.2039
X7.1047Y-3.5039
X7.1047Y-4.2039
X7.2047Y-3.5039
X7.2047Y-4.2039
T6
X5.0Y-5.3
X5.1Y-5.3
X5.2Y-5.3
X5.3Y-5.3
X5.4Y-5.3
X5.5Y-5.3
X5.6Y-5.3
X5.7Y-5.3
X5.8Y-5.3
X5.9Y-5.3
X6.9291Y-3.6909
X6.9291Y-3.7909
X6.9291Y-3.8909
X6.9291Y-3.9909
T7
X6.1122Y-4.252
X6.1122Y-4.5079
X6.2894Y-4.252
X6.2894Y-4.5079
T8
X4.45Y-4.0004
X4.45Y-4.6004
X4.55Y-4.0004
X4.55Y-4.6004
X4.65Y-4.0004
X4.65Y-4.6004
X4.75Y-4.0004
X4.75Y-4.6004
X4.85Y-4.0004
X4.85Y-4.6004
X4.95Y-4.0004
X4.95Y-4.6004
X5.05Y-4.0004
X5.05Y-4.6004
X5.15Y-4.0004
X5.15Y-4.6004
X5.25Y-4.0004
X5.25Y-4.6004
X5.35Y-4.0004
X5.35Y-4.6004
X5.45Y-4.0004
X5.45Y-4.6004
X5.55Y-4.0004
X5.55Y-4.6004
X5.65Y-4.0004
X5.65Y-4.6004
X5.75Y-4.0004
X5.75Y-4.6004
X5.85Y-4.0004
X5.85Y-4.6004
T9
X4.3898Y-5.5315
X4.5866Y-5.5315
X4.7835Y-5.5315
X4.9803Y-5.5315
X5.1772Y-5.5315
X5.374Y-5.5315
X5.5709Y-5.5315
X5.7677Y-5.5315
X5.9646Y-5.5315
X6.1614Y-5.5315
T10
X4.1276Y-3.7008
X4.3276Y-3.7008
X4.5276Y-3.7008
X4.7276Y-3.7008
X4.9276Y-3.7008
X4.9724Y-4.8622
X5.1276Y-3.7008
X5.1724Y-4.8622
X5.3724Y-4.8622
X5.5724Y-4.8622
X5.7724Y-4.8622
X5.9724Y-4.8622
X7.0866Y-4.4488
X7.0866Y-4.6488
X7.0866Y-4.8488
X7.0866Y-5.0488
X7.0866Y-5.2488
X7.0866Y-5.4488
T11
X5.4268Y-3.6691
X5.6268Y-3.6691
X5.8268Y-3.6691
X6.0268Y-3.6691
X6.2268Y-3.6691
T2
G00X6.5157Y-4.4508
M15
G01X6.5157Y-4.5256
M16
G05
G00X6.7598Y-4.6614
M15
G01X6.685Y-4.6614
M16
G05
G00X6.8228Y-4.4508
M15
G01X6.8228Y-4.5256
M16
G05
T4
G00X6.6004Y-4.8898
M15
G01X6.5335Y-4.8898
M16
G05
G00X6.7185Y-4.7835
M15
G01X6.6201Y-4.7835
M16
G05
T6
G00X6.7854Y-4.935
M15
G01X6.7854Y-5.065
M16
G05
T0
M30
