%TF.GenerationSoftware,KiCad,Pcbnew,(6.0.7)*%
%TF.CreationDate,2022-10-09T17:30:30-05:00*%
%TF.ProjectId,ScareBanger_PCB,53636172-6542-4616-9e67-65725f504342,rev?*%
%TF.SameCoordinates,Original*%
%TF.FileFunction,Legend,Top*%
%TF.FilePolarity,Positive*%
%FSLAX46Y46*%
G04 Gerber Fmt 4.6, Leading zero omitted, Abs format (unit mm)*
G04 Created by KiCad (PCBNEW (6.0.7)) date 2022-10-09 17:30:30*
%MOMM*%
%LPD*%
G01*
G04 APERTURE LIST*
%ADD10C,0.150000*%
%ADD11C,0.125000*%
%ADD12C,0.254000*%
%ADD13C,0.120000*%
%ADD14C,0.200000*%
%ADD15C,0.100000*%
G04 APERTURE END LIST*
D10*
X169119047Y-98726190D02*
X169119047Y-99202380D01*
X168785714Y-98202380D02*
X169119047Y-98726190D01*
X169452380Y-98202380D01*
X169690476Y-98202380D02*
X170357142Y-99202380D01*
X170357142Y-98202380D02*
X169690476Y-99202380D01*
X171214285Y-98202380D02*
X170738095Y-98202380D01*
X170690476Y-98678571D01*
X170738095Y-98630952D01*
X170833333Y-98583333D01*
X171071428Y-98583333D01*
X171166666Y-98630952D01*
X171214285Y-98678571D01*
X171261904Y-98773809D01*
X171261904Y-99011904D01*
X171214285Y-99107142D01*
X171166666Y-99154761D01*
X171071428Y-99202380D01*
X170833333Y-99202380D01*
X170738095Y-99154761D01*
X170690476Y-99107142D01*
X171595238Y-98202380D02*
X172214285Y-98202380D01*
X171880952Y-98583333D01*
X172023809Y-98583333D01*
X172119047Y-98630952D01*
X172166666Y-98678571D01*
X172214285Y-98773809D01*
X172214285Y-99011904D01*
X172166666Y-99107142D01*
X172119047Y-99154761D01*
X172023809Y-99202380D01*
X171738095Y-99202380D01*
X171642857Y-99154761D01*
X171595238Y-99107142D01*
X172833333Y-98202380D02*
X172928571Y-98202380D01*
X173023809Y-98250000D01*
X173071428Y-98297619D01*
X173119047Y-98392857D01*
X173166666Y-98583333D01*
X173166666Y-98821428D01*
X173119047Y-99011904D01*
X173071428Y-99107142D01*
X173023809Y-99154761D01*
X172928571Y-99202380D01*
X172833333Y-99202380D01*
X172738095Y-99154761D01*
X172690476Y-99107142D01*
X172642857Y-99011904D01*
X172595238Y-98821428D01*
X172595238Y-98583333D01*
X172642857Y-98392857D01*
X172690476Y-98297619D01*
X172738095Y-98250000D01*
X172833333Y-98202380D01*
X173785714Y-98202380D02*
X173880952Y-98202380D01*
X173976190Y-98250000D01*
X174023809Y-98297619D01*
X174071428Y-98392857D01*
X174119047Y-98583333D01*
X174119047Y-98821428D01*
X174071428Y-99011904D01*
X174023809Y-99107142D01*
X173976190Y-99154761D01*
X173880952Y-99202380D01*
X173785714Y-99202380D01*
X173690476Y-99154761D01*
X173642857Y-99107142D01*
X173595238Y-99011904D01*
X173547619Y-98821428D01*
X173547619Y-98583333D01*
X173595238Y-98392857D01*
X173642857Y-98297619D01*
X173690476Y-98250000D01*
X173785714Y-98202380D01*
X164142857Y-87702380D02*
X164142857Y-86702380D01*
X164380952Y-86702380D01*
X164523809Y-86750000D01*
X164619047Y-86845238D01*
X164666666Y-86940476D01*
X164714285Y-87130952D01*
X164714285Y-87273809D01*
X164666666Y-87464285D01*
X164619047Y-87559523D01*
X164523809Y-87654761D01*
X164380952Y-87702380D01*
X164142857Y-87702380D01*
X165476190Y-87178571D02*
X165142857Y-87178571D01*
X165142857Y-87702380D02*
X165142857Y-86702380D01*
X165619047Y-86702380D01*
X166000000Y-87702380D02*
X166000000Y-86702380D01*
X166380952Y-86702380D01*
X166476190Y-86750000D01*
X166523809Y-86797619D01*
X166571428Y-86892857D01*
X166571428Y-87035714D01*
X166523809Y-87130952D01*
X166476190Y-87178571D01*
X166380952Y-87226190D01*
X166000000Y-87226190D01*
X167476190Y-87702380D02*
X167000000Y-87702380D01*
X167000000Y-86702380D01*
X167761904Y-87416666D02*
X168238095Y-87416666D01*
X167666666Y-87702380D02*
X168000000Y-86702380D01*
X168333333Y-87702380D01*
X168857142Y-87226190D02*
X168857142Y-87702380D01*
X168523809Y-86702380D02*
X168857142Y-87226190D01*
X169190476Y-86702380D01*
X169523809Y-87178571D02*
X169857142Y-87178571D01*
X170000000Y-87702380D02*
X169523809Y-87702380D01*
X169523809Y-86702380D01*
X170000000Y-86702380D01*
X171000000Y-87702380D02*
X170666666Y-87226190D01*
X170428571Y-87702380D02*
X170428571Y-86702380D01*
X170809523Y-86702380D01*
X170904761Y-86750000D01*
X170952380Y-86797619D01*
X171000000Y-86892857D01*
X171000000Y-87035714D01*
X170952380Y-87130952D01*
X170904761Y-87178571D01*
X170809523Y-87226190D01*
X170428571Y-87226190D01*
X172190476Y-87702380D02*
X172190476Y-86702380D01*
X172523809Y-87416666D01*
X172857142Y-86702380D01*
X172857142Y-87702380D01*
X173333333Y-87702380D02*
X173333333Y-86702380D01*
X173809523Y-87702380D02*
X173809523Y-86702380D01*
X174380952Y-87702380D01*
X174380952Y-86702380D01*
X174857142Y-87702380D02*
X174857142Y-86702380D01*
X170085595Y-93293142D02*
X170847500Y-93750285D01*
X170085595Y-94207428D01*
X172609404Y-92836000D02*
X172514166Y-92759809D01*
X172371309Y-92759809D01*
X172228452Y-92836000D01*
X172133214Y-92988380D01*
X172085595Y-93140761D01*
X172037976Y-93445523D01*
X172037976Y-93674095D01*
X172085595Y-93978857D01*
X172133214Y-94131238D01*
X172228452Y-94283619D01*
X172371309Y-94359809D01*
X172466547Y-94359809D01*
X172609404Y-94283619D01*
X172657023Y-94207428D01*
X172657023Y-93674095D01*
X172466547Y-93674095D01*
X173085595Y-94359809D02*
X173085595Y-92759809D01*
X173657023Y-94359809D01*
X173657023Y-92759809D01*
X174133214Y-94359809D02*
X174133214Y-92759809D01*
X174371309Y-92759809D01*
X174514166Y-92836000D01*
X174609404Y-92988380D01*
X174657023Y-93140761D01*
X174704642Y-93445523D01*
X174704642Y-93674095D01*
X174657023Y-93978857D01*
X174609404Y-94131238D01*
X174514166Y-94283619D01*
X174371309Y-94359809D01*
X174133214Y-94359809D01*
X170085595Y-95869142D02*
X170847500Y-96326285D01*
X170085595Y-96783428D01*
X171942738Y-95335809D02*
X172276071Y-96935809D01*
X172609404Y-95335809D01*
X173514166Y-96783428D02*
X173466547Y-96859619D01*
X173323690Y-96935809D01*
X173228452Y-96935809D01*
X173085595Y-96859619D01*
X172990357Y-96707238D01*
X172942738Y-96554857D01*
X172895119Y-96250095D01*
X172895119Y-96021523D01*
X172942738Y-95716761D01*
X172990357Y-95564380D01*
X173085595Y-95412000D01*
X173228452Y-95335809D01*
X173323690Y-95335809D01*
X173466547Y-95412000D01*
X173514166Y-95488190D01*
X174514166Y-96783428D02*
X174466547Y-96859619D01*
X174323690Y-96935809D01*
X174228452Y-96935809D01*
X174085595Y-96859619D01*
X173990357Y-96707238D01*
X173942738Y-96554857D01*
X173895119Y-96250095D01*
X173895119Y-96021523D01*
X173942738Y-95716761D01*
X173990357Y-95564380D01*
X174085595Y-95412000D01*
X174228452Y-95335809D01*
X174323690Y-95335809D01*
X174466547Y-95412000D01*
X174514166Y-95488190D01*
X170085595Y-101021142D02*
X170847500Y-101478285D01*
X170085595Y-101935428D01*
X172657023Y-102087809D02*
X172323690Y-101325904D01*
X172085595Y-102087809D02*
X172085595Y-100487809D01*
X172466547Y-100487809D01*
X172561785Y-100564000D01*
X172609404Y-100640190D01*
X172657023Y-100792571D01*
X172657023Y-101021142D01*
X172609404Y-101173523D01*
X172561785Y-101249714D01*
X172466547Y-101325904D01*
X172085595Y-101325904D01*
X172990357Y-100487809D02*
X173657023Y-102087809D01*
X173657023Y-100487809D02*
X172990357Y-102087809D01*
D11*
X127647619Y-130680833D02*
X127885714Y-130680833D01*
X127600000Y-130823690D02*
X127766666Y-130323690D01*
X127933333Y-130823690D01*
X128361904Y-130823690D02*
X128076190Y-130823690D01*
X128219047Y-130823690D02*
X128219047Y-130323690D01*
X128171428Y-130395119D01*
X128123809Y-130442738D01*
X128076190Y-130466547D01*
X129314285Y-130299880D02*
X128885714Y-130942738D01*
X129838095Y-130680833D02*
X130076190Y-130680833D01*
X129790476Y-130823690D02*
X129957142Y-130323690D01*
X130123809Y-130823690D01*
X130385714Y-130323690D02*
X130433333Y-130323690D01*
X130480952Y-130347500D01*
X130504761Y-130371309D01*
X130528571Y-130418928D01*
X130552380Y-130514166D01*
X130552380Y-130633214D01*
X130528571Y-130728452D01*
X130504761Y-130776071D01*
X130480952Y-130799880D01*
X130433333Y-130823690D01*
X130385714Y-130823690D01*
X130338095Y-130799880D01*
X130314285Y-130776071D01*
X130290476Y-130728452D01*
X130266666Y-130633214D01*
X130266666Y-130514166D01*
X130290476Y-130418928D01*
X130314285Y-130371309D01*
X130338095Y-130347500D01*
X130385714Y-130323690D01*
X127790476Y-131628690D02*
X127790476Y-131128690D01*
X127980952Y-131128690D01*
X128028571Y-131152500D01*
X128052380Y-131176309D01*
X128076190Y-131223928D01*
X128076190Y-131295357D01*
X128052380Y-131342976D01*
X128028571Y-131366785D01*
X127980952Y-131390595D01*
X127790476Y-131390595D01*
X128290476Y-131128690D02*
X128290476Y-131533452D01*
X128314285Y-131581071D01*
X128338095Y-131604880D01*
X128385714Y-131628690D01*
X128480952Y-131628690D01*
X128528571Y-131604880D01*
X128552380Y-131581071D01*
X128576190Y-131533452D01*
X128576190Y-131128690D01*
X129052380Y-131628690D02*
X128814285Y-131628690D01*
X128814285Y-131128690D01*
X129457142Y-131628690D02*
X129219047Y-131628690D01*
X129219047Y-131128690D01*
X129623809Y-131128690D02*
X129623809Y-131533452D01*
X129647619Y-131581071D01*
X129671428Y-131604880D01*
X129719047Y-131628690D01*
X129814285Y-131628690D01*
X129861904Y-131604880D01*
X129885714Y-131581071D01*
X129909523Y-131533452D01*
X129909523Y-131128690D01*
X130147619Y-131628690D02*
X130147619Y-131128690D01*
X130338095Y-131128690D01*
X130385714Y-131152500D01*
X130409523Y-131176309D01*
X130433333Y-131223928D01*
X130433333Y-131295357D01*
X130409523Y-131342976D01*
X130385714Y-131366785D01*
X130338095Y-131390595D01*
X130147619Y-131390595D01*
X104223809Y-137883333D02*
X104461904Y-137883333D01*
X104176190Y-138026190D02*
X104342857Y-137526190D01*
X104509523Y-138026190D01*
X104652380Y-137573809D02*
X104676190Y-137550000D01*
X104723809Y-137526190D01*
X104842857Y-137526190D01*
X104890476Y-137550000D01*
X104914285Y-137573809D01*
X104938095Y-137621428D01*
X104938095Y-137669047D01*
X104914285Y-137740476D01*
X104628571Y-138026190D01*
X104938095Y-138026190D01*
X105533333Y-138026190D02*
X105533333Y-137526190D01*
X105723809Y-137526190D01*
X105771428Y-137550000D01*
X105795238Y-137573809D01*
X105819047Y-137621428D01*
X105819047Y-137692857D01*
X105795238Y-137740476D01*
X105771428Y-137764285D01*
X105723809Y-137788095D01*
X105533333Y-137788095D01*
X106033333Y-137526190D02*
X106033333Y-137930952D01*
X106057142Y-137978571D01*
X106080952Y-138002380D01*
X106128571Y-138026190D01*
X106223809Y-138026190D01*
X106271428Y-138002380D01*
X106295238Y-137978571D01*
X106319047Y-137930952D01*
X106319047Y-137526190D01*
X106795238Y-138026190D02*
X106557142Y-138026190D01*
X106557142Y-137526190D01*
X107200000Y-138026190D02*
X106961904Y-138026190D01*
X106961904Y-137526190D01*
X107366666Y-137526190D02*
X107366666Y-137930952D01*
X107390476Y-137978571D01*
X107414285Y-138002380D01*
X107461904Y-138026190D01*
X107557142Y-138026190D01*
X107604761Y-138002380D01*
X107628571Y-137978571D01*
X107652380Y-137930952D01*
X107652380Y-137526190D01*
X107890476Y-138026190D02*
X107890476Y-137526190D01*
X108080952Y-137526190D01*
X108128571Y-137550000D01*
X108152380Y-137573809D01*
X108176190Y-137621428D01*
X108176190Y-137692857D01*
X108152380Y-137740476D01*
X108128571Y-137764285D01*
X108080952Y-137788095D01*
X107890476Y-137788095D01*
X103047619Y-106580833D02*
X103285714Y-106580833D01*
X103000000Y-106723690D02*
X103166666Y-106223690D01*
X103333333Y-106723690D01*
X103738095Y-106223690D02*
X103500000Y-106223690D01*
X103476190Y-106461785D01*
X103500000Y-106437976D01*
X103547619Y-106414166D01*
X103666666Y-106414166D01*
X103714285Y-106437976D01*
X103738095Y-106461785D01*
X103761904Y-106509404D01*
X103761904Y-106628452D01*
X103738095Y-106676071D01*
X103714285Y-106699880D01*
X103666666Y-106723690D01*
X103547619Y-106723690D01*
X103500000Y-106699880D01*
X103476190Y-106676071D01*
X104714285Y-106199880D02*
X104285714Y-106842738D01*
X105238095Y-106580833D02*
X105476190Y-106580833D01*
X105190476Y-106723690D02*
X105357142Y-106223690D01*
X105523809Y-106723690D01*
X105904761Y-106390357D02*
X105904761Y-106723690D01*
X105785714Y-106199880D02*
X105666666Y-106557023D01*
X105976190Y-106557023D01*
X103190476Y-107528690D02*
X103190476Y-107028690D01*
X103380952Y-107028690D01*
X103428571Y-107052500D01*
X103452380Y-107076309D01*
X103476190Y-107123928D01*
X103476190Y-107195357D01*
X103452380Y-107242976D01*
X103428571Y-107266785D01*
X103380952Y-107290595D01*
X103190476Y-107290595D01*
X103690476Y-107028690D02*
X103690476Y-107433452D01*
X103714285Y-107481071D01*
X103738095Y-107504880D01*
X103785714Y-107528690D01*
X103880952Y-107528690D01*
X103928571Y-107504880D01*
X103952380Y-107481071D01*
X103976190Y-107433452D01*
X103976190Y-107028690D01*
X104452380Y-107528690D02*
X104214285Y-107528690D01*
X104214285Y-107028690D01*
X104857142Y-107528690D02*
X104619047Y-107528690D01*
X104619047Y-107028690D01*
X105023809Y-107028690D02*
X105023809Y-107433452D01*
X105047619Y-107481071D01*
X105071428Y-107504880D01*
X105119047Y-107528690D01*
X105214285Y-107528690D01*
X105261904Y-107504880D01*
X105285714Y-107481071D01*
X105309523Y-107433452D01*
X105309523Y-107028690D01*
X105547619Y-107528690D02*
X105547619Y-107028690D01*
X105738095Y-107028690D01*
X105785714Y-107052500D01*
X105809523Y-107076309D01*
X105833333Y-107123928D01*
X105833333Y-107195357D01*
X105809523Y-107242976D01*
X105785714Y-107266785D01*
X105738095Y-107290595D01*
X105547619Y-107290595D01*
X166083333Y-118976190D02*
X166083333Y-118738095D01*
X166226190Y-119023809D02*
X165726190Y-118857142D01*
X166226190Y-118690476D01*
X165726190Y-118571428D02*
X165726190Y-118261904D01*
X165916666Y-118428571D01*
X165916666Y-118357142D01*
X165940476Y-118309523D01*
X165964285Y-118285714D01*
X166011904Y-118261904D01*
X166130952Y-118261904D01*
X166178571Y-118285714D01*
X166202380Y-118309523D01*
X166226190Y-118357142D01*
X166226190Y-118500000D01*
X166202380Y-118547619D01*
X166178571Y-118571428D01*
X166226190Y-117666666D02*
X165726190Y-117666666D01*
X165726190Y-117476190D01*
X165750000Y-117428571D01*
X165773809Y-117404761D01*
X165821428Y-117380952D01*
X165892857Y-117380952D01*
X165940476Y-117404761D01*
X165964285Y-117428571D01*
X165988095Y-117476190D01*
X165988095Y-117666666D01*
X165726190Y-117166666D02*
X166130952Y-117166666D01*
X166178571Y-117142857D01*
X166202380Y-117119047D01*
X166226190Y-117071428D01*
X166226190Y-116976190D01*
X166202380Y-116928571D01*
X166178571Y-116904761D01*
X166130952Y-116880952D01*
X165726190Y-116880952D01*
X166226190Y-116404761D02*
X166226190Y-116642857D01*
X165726190Y-116642857D01*
X166226190Y-116000000D02*
X166226190Y-116238095D01*
X165726190Y-116238095D01*
X165726190Y-115833333D02*
X166130952Y-115833333D01*
X166178571Y-115809523D01*
X166202380Y-115785714D01*
X166226190Y-115738095D01*
X166226190Y-115642857D01*
X166202380Y-115595238D01*
X166178571Y-115571428D01*
X166130952Y-115547619D01*
X165726190Y-115547619D01*
X166226190Y-115309523D02*
X165726190Y-115309523D01*
X165726190Y-115119047D01*
X165750000Y-115071428D01*
X165773809Y-115047619D01*
X165821428Y-115023809D01*
X165892857Y-115023809D01*
X165940476Y-115047619D01*
X165964285Y-115071428D01*
X165988095Y-115119047D01*
X165988095Y-115309523D01*
D10*
X116840000Y-105410000D02*
X106680000Y-105410000D01*
X118237000Y-126111000D02*
X120904000Y-129794000D01*
X118364000Y-123698000D02*
X121031000Y-124841000D01*
X116840000Y-113030000D02*
X116840000Y-105410000D01*
X106680000Y-105410000D02*
X106680000Y-113030000D01*
X106680000Y-113030000D02*
X116840000Y-113030000D01*
X118364000Y-128651000D02*
X120777000Y-127508000D01*
X135485833Y-97195000D02*
X135390595Y-97147380D01*
X135247738Y-97147380D01*
X135104880Y-97195000D01*
X135009642Y-97290238D01*
X134962023Y-97385476D01*
X134914404Y-97575952D01*
X134914404Y-97718809D01*
X134962023Y-97909285D01*
X135009642Y-98004523D01*
X135104880Y-98099761D01*
X135247738Y-98147380D01*
X135342976Y-98147380D01*
X135485833Y-98099761D01*
X135533452Y-98052142D01*
X135533452Y-97718809D01*
X135342976Y-97718809D01*
X135962023Y-98147380D02*
X135962023Y-97147380D01*
X136533452Y-98147380D01*
X136533452Y-97147380D01*
X137009642Y-98147380D02*
X137009642Y-97147380D01*
X137247738Y-97147380D01*
X137390595Y-97195000D01*
X137485833Y-97290238D01*
X137533452Y-97385476D01*
X137581071Y-97575952D01*
X137581071Y-97718809D01*
X137533452Y-97909285D01*
X137485833Y-98004523D01*
X137390595Y-98099761D01*
X137247738Y-98147380D01*
X137009642Y-98147380D01*
X139009642Y-98480714D02*
X139009642Y-97052142D01*
X139723928Y-97766428D02*
X140485833Y-97766428D01*
X140104880Y-98147380D02*
X140104880Y-97385476D01*
X141485833Y-98147380D02*
X140914404Y-98147380D01*
X141200119Y-98147380D02*
X141200119Y-97147380D01*
X141104880Y-97290238D01*
X141009642Y-97385476D01*
X140914404Y-97433095D01*
X141866785Y-97242619D02*
X141914404Y-97195000D01*
X142009642Y-97147380D01*
X142247738Y-97147380D01*
X142342976Y-97195000D01*
X142390595Y-97242619D01*
X142438214Y-97337857D01*
X142438214Y-97433095D01*
X142390595Y-97575952D01*
X141819166Y-98147380D01*
X142438214Y-98147380D01*
X142723928Y-97147380D02*
X143057261Y-98147380D01*
X143390595Y-97147380D01*
X143962023Y-98480714D02*
X143962023Y-97052142D01*
X144676309Y-97480714D02*
X145438214Y-97766428D01*
X144676309Y-98052142D01*
X145771547Y-97147380D02*
X146342976Y-97147380D01*
X146057261Y-98147380D02*
X146057261Y-97147380D01*
X147247738Y-98147380D02*
X146914404Y-97671190D01*
X146676309Y-98147380D02*
X146676309Y-97147380D01*
X147057261Y-97147380D01*
X147152500Y-97195000D01*
X147200119Y-97242619D01*
X147247738Y-97337857D01*
X147247738Y-97480714D01*
X147200119Y-97575952D01*
X147152500Y-97623571D01*
X147057261Y-97671190D01*
X146676309Y-97671190D01*
X147676309Y-98147380D02*
X147676309Y-97147380D01*
X148676309Y-97195000D02*
X148581071Y-97147380D01*
X148438214Y-97147380D01*
X148295357Y-97195000D01*
X148200119Y-97290238D01*
X148152500Y-97385476D01*
X148104880Y-97575952D01*
X148104880Y-97718809D01*
X148152500Y-97909285D01*
X148200119Y-98004523D01*
X148295357Y-98099761D01*
X148438214Y-98147380D01*
X148533452Y-98147380D01*
X148676309Y-98099761D01*
X148723928Y-98052142D01*
X148723928Y-97718809D01*
X148533452Y-97718809D01*
X149914404Y-97480714D02*
X149152500Y-97766428D01*
X149914404Y-98052142D01*
X145866785Y-100090714D02*
X145628690Y-100090714D01*
X145628690Y-98662142D01*
X145866785Y-98662142D01*
X146247738Y-99757380D02*
X146247738Y-98757380D01*
X146485833Y-98757380D01*
X146628690Y-98805000D01*
X146723928Y-98900238D01*
X146771547Y-98995476D01*
X146819166Y-99185952D01*
X146819166Y-99328809D01*
X146771547Y-99519285D01*
X146723928Y-99614523D01*
X146628690Y-99709761D01*
X146485833Y-99757380D01*
X146247738Y-99757380D01*
X147676309Y-99090714D02*
X147676309Y-99757380D01*
X147438214Y-98709761D02*
X147200119Y-99424047D01*
X147819166Y-99424047D01*
X148104880Y-100090714D02*
X148342976Y-100090714D01*
X148342976Y-98662142D01*
X148104880Y-98662142D01*
X112935047Y-128722428D02*
X113696952Y-128722428D01*
X113316000Y-129103380D02*
X113316000Y-128341476D01*
X114696952Y-129103380D02*
X114125523Y-129103380D01*
X114411238Y-129103380D02*
X114411238Y-128103380D01*
X114316000Y-128246238D01*
X114220761Y-128341476D01*
X114125523Y-128389095D01*
X115077904Y-128198619D02*
X115125523Y-128151000D01*
X115220761Y-128103380D01*
X115458857Y-128103380D01*
X115554095Y-128151000D01*
X115601714Y-128198619D01*
X115649333Y-128293857D01*
X115649333Y-128389095D01*
X115601714Y-128531952D01*
X115030285Y-129103380D01*
X115649333Y-129103380D01*
X115935047Y-128103380D02*
X116268380Y-129103380D01*
X116601714Y-128103380D01*
X116935047Y-128722428D02*
X117696952Y-128722428D01*
X157214285Y-116097500D02*
X156928571Y-115335595D01*
X156642857Y-116097500D01*
X156547619Y-116573690D02*
X157547619Y-116573690D01*
X157547619Y-116954642D01*
X157500000Y-117049880D01*
X157452380Y-117097500D01*
X157357142Y-117145119D01*
X157214285Y-117145119D01*
X157119047Y-117097500D01*
X157071428Y-117049880D01*
X157023809Y-116954642D01*
X157023809Y-116573690D01*
X156547619Y-118049880D02*
X156547619Y-117573690D01*
X157547619Y-117573690D01*
X156833333Y-118335595D02*
X156833333Y-118811785D01*
X156547619Y-118240357D02*
X157547619Y-118573690D01*
X156547619Y-118907023D01*
X157023809Y-119430833D02*
X156547619Y-119430833D01*
X157547619Y-119097500D02*
X157023809Y-119430833D01*
X157547619Y-119764166D01*
X156666666Y-131980714D02*
X156666666Y-132647380D01*
X156428571Y-131599761D02*
X156190476Y-132314047D01*
X156809523Y-132314047D01*
X157761904Y-132552142D02*
X157714285Y-132599761D01*
X157571428Y-132647380D01*
X157476190Y-132647380D01*
X157333333Y-132599761D01*
X157238095Y-132504523D01*
X157190476Y-132409285D01*
X157142857Y-132218809D01*
X157142857Y-132075952D01*
X157190476Y-131885476D01*
X157238095Y-131790238D01*
X157333333Y-131695000D01*
X157476190Y-131647380D01*
X157571428Y-131647380D01*
X157714285Y-131695000D01*
X157761904Y-131742619D01*
X158190476Y-132647380D02*
X158190476Y-131647380D01*
X158190476Y-132123571D02*
X158761904Y-132123571D01*
X158761904Y-132647380D02*
X158761904Y-131647380D01*
X156380952Y-133685952D02*
X156285714Y-133638333D01*
X156238095Y-133590714D01*
X156190476Y-133495476D01*
X156190476Y-133447857D01*
X156238095Y-133352619D01*
X156285714Y-133305000D01*
X156380952Y-133257380D01*
X156571428Y-133257380D01*
X156666666Y-133305000D01*
X156714285Y-133352619D01*
X156761904Y-133447857D01*
X156761904Y-133495476D01*
X156714285Y-133590714D01*
X156666666Y-133638333D01*
X156571428Y-133685952D01*
X156380952Y-133685952D01*
X156285714Y-133733571D01*
X156238095Y-133781190D01*
X156190476Y-133876428D01*
X156190476Y-134066904D01*
X156238095Y-134162142D01*
X156285714Y-134209761D01*
X156380952Y-134257380D01*
X156571428Y-134257380D01*
X156666666Y-134209761D01*
X156714285Y-134162142D01*
X156761904Y-134066904D01*
X156761904Y-133876428D01*
X156714285Y-133781190D01*
X156666666Y-133733571D01*
X156571428Y-133685952D01*
X157761904Y-134162142D02*
X157714285Y-134209761D01*
X157571428Y-134257380D01*
X157476190Y-134257380D01*
X157333333Y-134209761D01*
X157238095Y-134114523D01*
X157190476Y-134019285D01*
X157142857Y-133828809D01*
X157142857Y-133685952D01*
X157190476Y-133495476D01*
X157238095Y-133400238D01*
X157333333Y-133305000D01*
X157476190Y-133257380D01*
X157571428Y-133257380D01*
X157714285Y-133305000D01*
X157761904Y-133352619D01*
X158190476Y-134257380D02*
X158190476Y-133257380D01*
X158190476Y-133733571D02*
X158761904Y-133733571D01*
X158761904Y-134257380D02*
X158761904Y-133257380D01*
X133119047Y-88400238D02*
X132976190Y-88352619D01*
X132738095Y-88352619D01*
X132642857Y-88400238D01*
X132595238Y-88447857D01*
X132547619Y-88543095D01*
X132547619Y-88638333D01*
X132595238Y-88733571D01*
X132642857Y-88781190D01*
X132738095Y-88828809D01*
X132928571Y-88876428D01*
X133023809Y-88924047D01*
X133071428Y-88971666D01*
X133119047Y-89066904D01*
X133119047Y-89162142D01*
X133071428Y-89257380D01*
X133023809Y-89305000D01*
X132928571Y-89352619D01*
X132690476Y-89352619D01*
X132547619Y-89305000D01*
X132166666Y-88400238D02*
X132023809Y-88352619D01*
X131785714Y-88352619D01*
X131690476Y-88400238D01*
X131642857Y-88447857D01*
X131595238Y-88543095D01*
X131595238Y-88638333D01*
X131642857Y-88733571D01*
X131690476Y-88781190D01*
X131785714Y-88828809D01*
X131976190Y-88876428D01*
X132071428Y-88924047D01*
X132119047Y-88971666D01*
X132166666Y-89066904D01*
X132166666Y-89162142D01*
X132119047Y-89257380D01*
X132071428Y-89305000D01*
X131976190Y-89352619D01*
X131738095Y-89352619D01*
X131595238Y-89305000D01*
X130166666Y-88019285D02*
X130166666Y-89447857D01*
X128690476Y-88352619D02*
X128690476Y-89352619D01*
X128357142Y-88638333D01*
X128023809Y-89352619D01*
X128023809Y-88352619D01*
X127357142Y-89352619D02*
X127166666Y-89352619D01*
X127071428Y-89305000D01*
X126976190Y-89209761D01*
X126928571Y-89019285D01*
X126928571Y-88685952D01*
X126976190Y-88495476D01*
X127071428Y-88400238D01*
X127166666Y-88352619D01*
X127357142Y-88352619D01*
X127452380Y-88400238D01*
X127547619Y-88495476D01*
X127595238Y-88685952D01*
X127595238Y-89019285D01*
X127547619Y-89209761D01*
X127452380Y-89305000D01*
X127357142Y-89352619D01*
X126547619Y-88400238D02*
X126404761Y-88352619D01*
X126166666Y-88352619D01*
X126071428Y-88400238D01*
X126023809Y-88447857D01*
X125976190Y-88543095D01*
X125976190Y-88638333D01*
X126023809Y-88733571D01*
X126071428Y-88781190D01*
X126166666Y-88828809D01*
X126357142Y-88876428D01*
X126452380Y-88924047D01*
X126500000Y-88971666D01*
X126547619Y-89066904D01*
X126547619Y-89162142D01*
X126500000Y-89257380D01*
X126452380Y-89305000D01*
X126357142Y-89352619D01*
X126119047Y-89352619D01*
X125976190Y-89305000D01*
X125547619Y-88352619D02*
X125547619Y-89352619D01*
X124071428Y-88019285D02*
X124071428Y-89447857D01*
X122595238Y-88352619D02*
X122595238Y-89352619D01*
X122261904Y-88638333D01*
X121928571Y-89352619D01*
X121928571Y-88352619D01*
X121452380Y-88352619D02*
X121452380Y-89352619D01*
X121023809Y-88400238D02*
X120880952Y-88352619D01*
X120642857Y-88352619D01*
X120547619Y-88400238D01*
X120500000Y-88447857D01*
X120452380Y-88543095D01*
X120452380Y-88638333D01*
X120500000Y-88733571D01*
X120547619Y-88781190D01*
X120642857Y-88828809D01*
X120833333Y-88876428D01*
X120928571Y-88924047D01*
X120976190Y-88971666D01*
X121023809Y-89066904D01*
X121023809Y-89162142D01*
X120976190Y-89257380D01*
X120928571Y-89305000D01*
X120833333Y-89352619D01*
X120595238Y-89352619D01*
X120452380Y-89305000D01*
X119833333Y-89352619D02*
X119642857Y-89352619D01*
X119547619Y-89305000D01*
X119452380Y-89209761D01*
X119404761Y-89019285D01*
X119404761Y-88685952D01*
X119452380Y-88495476D01*
X119547619Y-88400238D01*
X119642857Y-88352619D01*
X119833333Y-88352619D01*
X119928571Y-88400238D01*
X120023809Y-88495476D01*
X120071428Y-88685952D01*
X120071428Y-89019285D01*
X120023809Y-89209761D01*
X119928571Y-89305000D01*
X119833333Y-89352619D01*
X117976190Y-88019285D02*
X117976190Y-89447857D01*
X116547619Y-88400238D02*
X116404761Y-88352619D01*
X116166666Y-88352619D01*
X116071428Y-88400238D01*
X116023809Y-88447857D01*
X115976190Y-88543095D01*
X115976190Y-88638333D01*
X116023809Y-88733571D01*
X116071428Y-88781190D01*
X116166666Y-88828809D01*
X116357142Y-88876428D01*
X116452380Y-88924047D01*
X116500000Y-88971666D01*
X116547619Y-89066904D01*
X116547619Y-89162142D01*
X116500000Y-89257380D01*
X116452380Y-89305000D01*
X116357142Y-89352619D01*
X116119047Y-89352619D01*
X115976190Y-89305000D01*
X114976190Y-88447857D02*
X115023809Y-88400238D01*
X115166666Y-88352619D01*
X115261904Y-88352619D01*
X115404761Y-88400238D01*
X115500000Y-88495476D01*
X115547619Y-88590714D01*
X115595238Y-88781190D01*
X115595238Y-88924047D01*
X115547619Y-89114523D01*
X115500000Y-89209761D01*
X115404761Y-89305000D01*
X115261904Y-89352619D01*
X115166666Y-89352619D01*
X115023809Y-89305000D01*
X114976190Y-89257380D01*
X114547619Y-88352619D02*
X114547619Y-89352619D01*
X113976190Y-88352619D02*
X114404761Y-88924047D01*
X113976190Y-89352619D02*
X114547619Y-88781190D01*
X110547619Y-88400238D02*
X110404761Y-88352619D01*
X110166666Y-88352619D01*
X110071428Y-88400238D01*
X110023809Y-88447857D01*
X109976190Y-88543095D01*
X109976190Y-88638333D01*
X110023809Y-88733571D01*
X110071428Y-88781190D01*
X110166666Y-88828809D01*
X110357142Y-88876428D01*
X110452380Y-88924047D01*
X110500000Y-88971666D01*
X110547619Y-89066904D01*
X110547619Y-89162142D01*
X110500000Y-89257380D01*
X110452380Y-89305000D01*
X110357142Y-89352619D01*
X110119047Y-89352619D01*
X109976190Y-89305000D01*
X108976190Y-88447857D02*
X109023809Y-88400238D01*
X109166666Y-88352619D01*
X109261904Y-88352619D01*
X109404761Y-88400238D01*
X109500000Y-88495476D01*
X109547619Y-88590714D01*
X109595238Y-88781190D01*
X109595238Y-88924047D01*
X109547619Y-89114523D01*
X109500000Y-89209761D01*
X109404761Y-89305000D01*
X109261904Y-89352619D01*
X109166666Y-89352619D01*
X109023809Y-89305000D01*
X108976190Y-89257380D01*
X108071428Y-88352619D02*
X108547619Y-88352619D01*
X108547619Y-89352619D01*
X106738095Y-88019285D02*
X106738095Y-89447857D01*
X105309523Y-88400238D02*
X105166666Y-88352619D01*
X104928571Y-88352619D01*
X104833333Y-88400238D01*
X104785714Y-88447857D01*
X104738095Y-88543095D01*
X104738095Y-88638333D01*
X104785714Y-88733571D01*
X104833333Y-88781190D01*
X104928571Y-88828809D01*
X105119047Y-88876428D01*
X105214285Y-88924047D01*
X105261904Y-88971666D01*
X105309523Y-89066904D01*
X105309523Y-89162142D01*
X105261904Y-89257380D01*
X105214285Y-89305000D01*
X105119047Y-89352619D01*
X104880952Y-89352619D01*
X104738095Y-89305000D01*
X104309523Y-88352619D02*
X104309523Y-89352619D01*
X104071428Y-89352619D01*
X103928571Y-89305000D01*
X103833333Y-89209761D01*
X103785714Y-89114523D01*
X103738095Y-88924047D01*
X103738095Y-88781190D01*
X103785714Y-88590714D01*
X103833333Y-88495476D01*
X103928571Y-88400238D01*
X104071428Y-88352619D01*
X104309523Y-88352619D01*
X103357142Y-88638333D02*
X102880952Y-88638333D01*
X103452380Y-88352619D02*
X103119047Y-89352619D01*
X102785714Y-88352619D01*
X133809523Y-86409285D02*
X134047619Y-86409285D01*
X134047619Y-87837857D01*
X133809523Y-87837857D01*
X133428571Y-86742619D02*
X133428571Y-87742619D01*
X133190476Y-87742619D01*
X133047619Y-87695000D01*
X132952380Y-87599761D01*
X132904761Y-87504523D01*
X132857142Y-87314047D01*
X132857142Y-87171190D01*
X132904761Y-86980714D01*
X132952380Y-86885476D01*
X133047619Y-86790238D01*
X133190476Y-86742619D01*
X133428571Y-86742619D01*
X131904761Y-86742619D02*
X132476190Y-86742619D01*
X132190476Y-86742619D02*
X132190476Y-87742619D01*
X132285714Y-87599761D01*
X132380952Y-87504523D01*
X132476190Y-87456904D01*
X131285714Y-87742619D02*
X131190476Y-87742619D01*
X131095238Y-87695000D01*
X131047619Y-87647380D01*
X131000000Y-87552142D01*
X130952380Y-87361666D01*
X130952380Y-87123571D01*
X131000000Y-86933095D01*
X131047619Y-86837857D01*
X131095238Y-86790238D01*
X131190476Y-86742619D01*
X131285714Y-86742619D01*
X131380952Y-86790238D01*
X131428571Y-86837857D01*
X131476190Y-86933095D01*
X131523809Y-87123571D01*
X131523809Y-87361666D01*
X131476190Y-87552142D01*
X131428571Y-87647380D01*
X131380952Y-87695000D01*
X131285714Y-87742619D01*
X130380952Y-87742619D02*
X130380952Y-87504523D01*
X130619047Y-87599761D02*
X130380952Y-87504523D01*
X130142857Y-87599761D01*
X130523809Y-87314047D02*
X130380952Y-87504523D01*
X130238095Y-87314047D01*
X129857142Y-86409285D02*
X129619047Y-86409285D01*
X129619047Y-87837857D01*
X129857142Y-87837857D01*
X128809523Y-86409285D02*
X129047619Y-86409285D01*
X129047619Y-87837857D01*
X128809523Y-87837857D01*
X128428571Y-86742619D02*
X128428571Y-87742619D01*
X128190476Y-87742619D01*
X128047619Y-87695000D01*
X127952380Y-87599761D01*
X127904761Y-87504523D01*
X127857142Y-87314047D01*
X127857142Y-87171190D01*
X127904761Y-86980714D01*
X127952380Y-86885476D01*
X128047619Y-86790238D01*
X128190476Y-86742619D01*
X128428571Y-86742619D01*
X126904761Y-86742619D02*
X127476190Y-86742619D01*
X127190476Y-86742619D02*
X127190476Y-87742619D01*
X127285714Y-87599761D01*
X127380952Y-87504523D01*
X127476190Y-87456904D01*
X125952380Y-86742619D02*
X126523809Y-86742619D01*
X126238095Y-86742619D02*
X126238095Y-87742619D01*
X126333333Y-87599761D01*
X126428571Y-87504523D01*
X126523809Y-87456904D01*
X125380952Y-87742619D02*
X125380952Y-87504523D01*
X125619047Y-87599761D02*
X125380952Y-87504523D01*
X125142857Y-87599761D01*
X125523809Y-87314047D02*
X125380952Y-87504523D01*
X125238095Y-87314047D01*
X124857142Y-86409285D02*
X124619047Y-86409285D01*
X124619047Y-87837857D01*
X124857142Y-87837857D01*
X124142857Y-86790238D02*
X124000000Y-86742619D01*
X123761904Y-86742619D01*
X123666666Y-86790238D01*
X123619047Y-86837857D01*
X123571428Y-86933095D01*
X123571428Y-87028333D01*
X123619047Y-87123571D01*
X123666666Y-87171190D01*
X123761904Y-87218809D01*
X123952380Y-87266428D01*
X124047619Y-87314047D01*
X124095238Y-87361666D01*
X124142857Y-87456904D01*
X124142857Y-87552142D01*
X124095238Y-87647380D01*
X124047619Y-87695000D01*
X123952380Y-87742619D01*
X123714285Y-87742619D01*
X123571428Y-87695000D01*
X123142857Y-86742619D02*
X123142857Y-87742619D01*
X122761904Y-87742619D01*
X122666666Y-87695000D01*
X122619047Y-87647380D01*
X122571428Y-87552142D01*
X122571428Y-87409285D01*
X122619047Y-87314047D01*
X122666666Y-87266428D01*
X122761904Y-87218809D01*
X123142857Y-87218809D01*
X122142857Y-86742619D02*
X122142857Y-87742619D01*
X121380952Y-86409285D02*
X121619047Y-86409285D01*
X121619047Y-87837857D01*
X121380952Y-87837857D01*
X121000000Y-86742619D02*
X121000000Y-87742619D01*
X120761904Y-87742619D01*
X120619047Y-87695000D01*
X120523809Y-87599761D01*
X120476190Y-87504523D01*
X120428571Y-87314047D01*
X120428571Y-87171190D01*
X120476190Y-86980714D01*
X120523809Y-86885476D01*
X120619047Y-86790238D01*
X120761904Y-86742619D01*
X121000000Y-86742619D01*
X119476190Y-86742619D02*
X120047619Y-86742619D01*
X119761904Y-86742619D02*
X119761904Y-87742619D01*
X119857142Y-87599761D01*
X119952380Y-87504523D01*
X120047619Y-87456904D01*
X119095238Y-87647380D02*
X119047619Y-87695000D01*
X118952380Y-87742619D01*
X118714285Y-87742619D01*
X118619047Y-87695000D01*
X118571428Y-87647380D01*
X118523809Y-87552142D01*
X118523809Y-87456904D01*
X118571428Y-87314047D01*
X119142857Y-86742619D01*
X118523809Y-86742619D01*
X118190476Y-86409285D02*
X117952380Y-86409285D01*
X117952380Y-87837857D01*
X118190476Y-87837857D01*
X117142857Y-86409285D02*
X117380952Y-86409285D01*
X117380952Y-87837857D01*
X117142857Y-87837857D01*
X116761904Y-86742619D02*
X116761904Y-87742619D01*
X116523809Y-87742619D01*
X116380952Y-87695000D01*
X116285714Y-87599761D01*
X116238095Y-87504523D01*
X116190476Y-87314047D01*
X116190476Y-87171190D01*
X116238095Y-86980714D01*
X116285714Y-86885476D01*
X116380952Y-86790238D01*
X116523809Y-86742619D01*
X116761904Y-86742619D01*
X115238095Y-86742619D02*
X115809523Y-86742619D01*
X115523809Y-86742619D02*
X115523809Y-87742619D01*
X115619047Y-87599761D01*
X115714285Y-87504523D01*
X115809523Y-87456904D01*
X114904761Y-87742619D02*
X114285714Y-87742619D01*
X114619047Y-87361666D01*
X114476190Y-87361666D01*
X114380952Y-87314047D01*
X114333333Y-87266428D01*
X114285714Y-87171190D01*
X114285714Y-86933095D01*
X114333333Y-86837857D01*
X114380952Y-86790238D01*
X114476190Y-86742619D01*
X114761904Y-86742619D01*
X114857142Y-86790238D01*
X114904761Y-86837857D01*
X113952380Y-86409285D02*
X113714285Y-86409285D01*
X113714285Y-87837857D01*
X113952380Y-87837857D01*
X111380952Y-86409285D02*
X111619047Y-86409285D01*
X111619047Y-87837857D01*
X111380952Y-87837857D01*
X111047619Y-87028333D02*
X110571428Y-87028333D01*
X111142857Y-86742619D02*
X110809523Y-87742619D01*
X110476190Y-86742619D01*
X109714285Y-87409285D02*
X109714285Y-86742619D01*
X109952380Y-87790238D02*
X110190476Y-87075952D01*
X109571428Y-87075952D01*
X109285714Y-86409285D02*
X109047619Y-86409285D01*
X109047619Y-87837857D01*
X109285714Y-87837857D01*
X107761904Y-86742619D02*
X107761904Y-87742619D01*
X107333333Y-87647380D02*
X107285714Y-87695000D01*
X107190476Y-87742619D01*
X106952380Y-87742619D01*
X106857142Y-87695000D01*
X106809523Y-87647380D01*
X106761904Y-87552142D01*
X106761904Y-87456904D01*
X106809523Y-87314047D01*
X107380952Y-86742619D01*
X106761904Y-86742619D01*
X105761904Y-86837857D02*
X105809523Y-86790238D01*
X105952380Y-86742619D01*
X106047619Y-86742619D01*
X106190476Y-86790238D01*
X106285714Y-86885476D01*
X106333333Y-86980714D01*
X106380952Y-87171190D01*
X106380952Y-87314047D01*
X106333333Y-87504523D01*
X106285714Y-87599761D01*
X106190476Y-87695000D01*
X106047619Y-87742619D01*
X105952380Y-87742619D01*
X105809523Y-87695000D01*
X105761904Y-87647380D01*
X104285714Y-86409285D02*
X104523809Y-86409285D01*
X104523809Y-87837857D01*
X104285714Y-87837857D01*
X103952380Y-87028333D02*
X103476190Y-87028333D01*
X104047619Y-86742619D02*
X103714285Y-87742619D01*
X103380952Y-86742619D01*
X102571428Y-87742619D02*
X103047619Y-87742619D01*
X103095238Y-87266428D01*
X103047619Y-87314047D01*
X102952380Y-87361666D01*
X102714285Y-87361666D01*
X102619047Y-87314047D01*
X102571428Y-87266428D01*
X102523809Y-87171190D01*
X102523809Y-86933095D01*
X102571428Y-86837857D01*
X102619047Y-86790238D01*
X102714285Y-86742619D01*
X102952380Y-86742619D01*
X103047619Y-86790238D01*
X103095238Y-86837857D01*
X102190476Y-86409285D02*
X101952380Y-86409285D01*
X101952380Y-87837857D01*
X102190476Y-87837857D01*
X115546285Y-124023380D02*
X115212952Y-123547190D01*
X114974857Y-124023380D02*
X114974857Y-123023380D01*
X115355809Y-123023380D01*
X115451047Y-123071000D01*
X115498666Y-123118619D01*
X115546285Y-123213857D01*
X115546285Y-123356714D01*
X115498666Y-123451952D01*
X115451047Y-123499571D01*
X115355809Y-123547190D01*
X114974857Y-123547190D01*
X115879619Y-123023380D02*
X116546285Y-124023380D01*
X116546285Y-123023380D02*
X115879619Y-124023380D01*
X116927238Y-123642428D02*
X117689142Y-123642428D01*
X185285714Y-140628690D02*
X185285714Y-140866785D01*
X183857142Y-140866785D01*
X183857142Y-140628690D01*
X184666666Y-140295357D02*
X184666666Y-139819166D01*
X184952380Y-140390595D02*
X183952380Y-140057261D01*
X184952380Y-139723928D01*
X183952380Y-139485833D02*
X183952380Y-138819166D01*
X184952380Y-139247738D01*
X185285714Y-138533452D02*
X185285714Y-138295357D01*
X183857142Y-138295357D01*
X183857142Y-138533452D01*
X185285714Y-135962023D02*
X185285714Y-136200119D01*
X183857142Y-136200119D01*
X183857142Y-135962023D01*
X184666666Y-135628690D02*
X184666666Y-135152500D01*
X184952380Y-135723928D02*
X183952380Y-135390595D01*
X184952380Y-135057261D01*
X183952380Y-134295357D02*
X183952380Y-134485833D01*
X184000000Y-134581071D01*
X184047619Y-134628690D01*
X184190476Y-134723928D01*
X184380952Y-134771547D01*
X184761904Y-134771547D01*
X184857142Y-134723928D01*
X184904761Y-134676309D01*
X184952380Y-134581071D01*
X184952380Y-134390595D01*
X184904761Y-134295357D01*
X184857142Y-134247738D01*
X184761904Y-134200119D01*
X184523809Y-134200119D01*
X184428571Y-134247738D01*
X184380952Y-134295357D01*
X184333333Y-134390595D01*
X184333333Y-134581071D01*
X184380952Y-134676309D01*
X184428571Y-134723928D01*
X184523809Y-134771547D01*
X185285714Y-133866785D02*
X185285714Y-133628690D01*
X183857142Y-133628690D01*
X183857142Y-133866785D01*
X185285714Y-131295357D02*
X185285714Y-131533452D01*
X183857142Y-131533452D01*
X183857142Y-131295357D01*
X184666666Y-130962023D02*
X184666666Y-130485833D01*
X184952380Y-131057261D02*
X183952380Y-130723928D01*
X184952380Y-130390595D01*
X183952380Y-130152500D02*
X183952380Y-129533452D01*
X184333333Y-129866785D01*
X184333333Y-129723928D01*
X184380952Y-129628690D01*
X184428571Y-129581071D01*
X184523809Y-129533452D01*
X184761904Y-129533452D01*
X184857142Y-129581071D01*
X184904761Y-129628690D01*
X184952380Y-129723928D01*
X184952380Y-130009642D01*
X184904761Y-130104880D01*
X184857142Y-130152500D01*
X185285714Y-129200119D02*
X185285714Y-128962023D01*
X183857142Y-128962023D01*
X183857142Y-129200119D01*
X185285714Y-125866785D02*
X185285714Y-126104880D01*
X183857142Y-126104880D01*
X183857142Y-125866785D01*
X184952380Y-125485833D02*
X183952380Y-125485833D01*
X183952380Y-125247738D01*
X184000000Y-125104880D01*
X184095238Y-125009642D01*
X184190476Y-124962023D01*
X184380952Y-124914404D01*
X184523809Y-124914404D01*
X184714285Y-124962023D01*
X184809523Y-125009642D01*
X184904761Y-125104880D01*
X184952380Y-125247738D01*
X184952380Y-125485833D01*
X183952380Y-124581071D02*
X183952380Y-123962023D01*
X184333333Y-124295357D01*
X184333333Y-124152500D01*
X184380952Y-124057261D01*
X184428571Y-124009642D01*
X184523809Y-123962023D01*
X184761904Y-123962023D01*
X184857142Y-124009642D01*
X184904761Y-124057261D01*
X184952380Y-124152500D01*
X184952380Y-124438214D01*
X184904761Y-124533452D01*
X184857142Y-124581071D01*
X183952380Y-123390595D02*
X184190476Y-123390595D01*
X184095238Y-123628690D02*
X184190476Y-123390595D01*
X184095238Y-123152500D01*
X184380952Y-123533452D02*
X184190476Y-123390595D01*
X184380952Y-123247738D01*
X185285714Y-122866785D02*
X185285714Y-122628690D01*
X183857142Y-122628690D01*
X183857142Y-122866785D01*
X185285714Y-119533452D02*
X185285714Y-119771547D01*
X183857142Y-119771547D01*
X183857142Y-119533452D01*
X184952380Y-119152500D02*
X183952380Y-119152500D01*
X183952380Y-118914404D01*
X184000000Y-118771547D01*
X184095238Y-118676309D01*
X184190476Y-118628690D01*
X184380952Y-118581071D01*
X184523809Y-118581071D01*
X184714285Y-118628690D01*
X184809523Y-118676309D01*
X184904761Y-118771547D01*
X184952380Y-118914404D01*
X184952380Y-119152500D01*
X184047619Y-118200119D02*
X184000000Y-118152500D01*
X183952380Y-118057261D01*
X183952380Y-117819166D01*
X184000000Y-117723928D01*
X184047619Y-117676309D01*
X184142857Y-117628690D01*
X184238095Y-117628690D01*
X184380952Y-117676309D01*
X184952380Y-118247738D01*
X184952380Y-117628690D01*
X185285714Y-117295357D02*
X185285714Y-117057261D01*
X183857142Y-117057261D01*
X183857142Y-117295357D01*
X185285714Y-115485833D02*
X185285714Y-115723928D01*
X183857142Y-115723928D01*
X183857142Y-115485833D01*
X184000000Y-114581071D02*
X183952380Y-114676309D01*
X183952380Y-114819166D01*
X184000000Y-114962023D01*
X184095238Y-115057261D01*
X184190476Y-115104880D01*
X184380952Y-115152500D01*
X184523809Y-115152500D01*
X184714285Y-115104880D01*
X184809523Y-115057261D01*
X184904761Y-114962023D01*
X184952380Y-114819166D01*
X184952380Y-114723928D01*
X184904761Y-114581071D01*
X184857142Y-114533452D01*
X184523809Y-114533452D01*
X184523809Y-114723928D01*
X184952380Y-114104880D02*
X183952380Y-114104880D01*
X184952380Y-113533452D01*
X183952380Y-113533452D01*
X184952380Y-113057261D02*
X183952380Y-113057261D01*
X183952380Y-112819166D01*
X184000000Y-112676309D01*
X184095238Y-112581071D01*
X184190476Y-112533452D01*
X184380952Y-112485833D01*
X184523809Y-112485833D01*
X184714285Y-112533452D01*
X184809523Y-112581071D01*
X184904761Y-112676309D01*
X184952380Y-112819166D01*
X184952380Y-113057261D01*
X185285714Y-112152500D02*
X185285714Y-111914404D01*
X183857142Y-111914404D01*
X183857142Y-112152500D01*
X109047619Y-107938095D02*
X108238095Y-107938095D01*
X108142857Y-107985714D01*
X108095238Y-108033333D01*
X108047619Y-108128571D01*
X108047619Y-108319047D01*
X108095238Y-108414285D01*
X108142857Y-108461904D01*
X108238095Y-108509523D01*
X109047619Y-108509523D01*
X108095238Y-108938095D02*
X108047619Y-109080952D01*
X108047619Y-109319047D01*
X108095238Y-109414285D01*
X108142857Y-109461904D01*
X108238095Y-109509523D01*
X108333333Y-109509523D01*
X108428571Y-109461904D01*
X108476190Y-109414285D01*
X108523809Y-109319047D01*
X108571428Y-109128571D01*
X108619047Y-109033333D01*
X108666666Y-108985714D01*
X108761904Y-108938095D01*
X108857142Y-108938095D01*
X108952380Y-108985714D01*
X109000000Y-109033333D01*
X109047619Y-109128571D01*
X109047619Y-109366666D01*
X109000000Y-109509523D01*
X108571428Y-110271428D02*
X108523809Y-110414285D01*
X108476190Y-110461904D01*
X108380952Y-110509523D01*
X108238095Y-110509523D01*
X108142857Y-110461904D01*
X108095238Y-110414285D01*
X108047619Y-110319047D01*
X108047619Y-109938095D01*
X109047619Y-109938095D01*
X109047619Y-110271428D01*
X109000000Y-110366666D01*
X108952380Y-110414285D01*
X108857142Y-110461904D01*
X108761904Y-110461904D01*
X108666666Y-110414285D01*
X108619047Y-110366666D01*
X108571428Y-110271428D01*
X108571428Y-109938095D01*
X173742619Y-132212023D02*
X173695000Y-132164404D01*
X173647380Y-132069166D01*
X173647380Y-131831071D01*
X173695000Y-131735833D01*
X173742619Y-131688214D01*
X173837857Y-131640595D01*
X173933095Y-131640595D01*
X174075952Y-131688214D01*
X174647380Y-132259642D01*
X174647380Y-131640595D01*
X174552142Y-131212023D02*
X174599761Y-131164404D01*
X174647380Y-131212023D01*
X174599761Y-131259642D01*
X174552142Y-131212023D01*
X174647380Y-131212023D01*
X174647380Y-130212023D02*
X174647380Y-130783452D01*
X174647380Y-130497738D02*
X173647380Y-130497738D01*
X173790238Y-130592976D01*
X173885476Y-130688214D01*
X173933095Y-130783452D01*
X174647380Y-129783452D02*
X173647380Y-129783452D01*
X174361666Y-129450119D01*
X173647380Y-129116785D01*
X174647380Y-129116785D01*
X174647380Y-128640595D02*
X173647380Y-128640595D01*
X174361666Y-128307261D01*
X173647380Y-127973928D01*
X174647380Y-127973928D01*
X173647380Y-126831071D02*
X174647380Y-126164404D01*
X173647380Y-126164404D02*
X174647380Y-126831071D01*
X173647380Y-124545357D02*
X173647380Y-125021547D01*
X174123571Y-125069166D01*
X174075952Y-125021547D01*
X174028333Y-124926309D01*
X174028333Y-124688214D01*
X174075952Y-124592976D01*
X174123571Y-124545357D01*
X174218809Y-124497738D01*
X174456904Y-124497738D01*
X174552142Y-124545357D01*
X174599761Y-124592976D01*
X174647380Y-124688214D01*
X174647380Y-124926309D01*
X174599761Y-125021547D01*
X174552142Y-125069166D01*
X174552142Y-124069166D02*
X174599761Y-124021547D01*
X174647380Y-124069166D01*
X174599761Y-124116785D01*
X174552142Y-124069166D01*
X174647380Y-124069166D01*
X173647380Y-123116785D02*
X173647380Y-123592976D01*
X174123571Y-123640595D01*
X174075952Y-123592976D01*
X174028333Y-123497738D01*
X174028333Y-123259642D01*
X174075952Y-123164404D01*
X174123571Y-123116785D01*
X174218809Y-123069166D01*
X174456904Y-123069166D01*
X174552142Y-123116785D01*
X174599761Y-123164404D01*
X174647380Y-123259642D01*
X174647380Y-123497738D01*
X174599761Y-123592976D01*
X174552142Y-123640595D01*
X174647380Y-121878690D02*
X173647380Y-121878690D01*
X174361666Y-121545357D01*
X173647380Y-121212023D01*
X174647380Y-121212023D01*
X174647380Y-120735833D02*
X173647380Y-120735833D01*
X174361666Y-120402500D01*
X173647380Y-120069166D01*
X174647380Y-120069166D01*
X175305000Y-131640595D02*
X175257380Y-131735833D01*
X175257380Y-131878690D01*
X175305000Y-132021547D01*
X175400238Y-132116785D01*
X175495476Y-132164404D01*
X175685952Y-132212023D01*
X175828809Y-132212023D01*
X176019285Y-132164404D01*
X176114523Y-132116785D01*
X176209761Y-132021547D01*
X176257380Y-131878690D01*
X176257380Y-131783452D01*
X176209761Y-131640595D01*
X176162142Y-131592976D01*
X175828809Y-131592976D01*
X175828809Y-131783452D01*
X176257380Y-131164404D02*
X175257380Y-131164404D01*
X176257380Y-130592976D01*
X175257380Y-130592976D01*
X176257380Y-130116785D02*
X175257380Y-130116785D01*
X175257380Y-129878690D01*
X175305000Y-129735833D01*
X175400238Y-129640595D01*
X175495476Y-129592976D01*
X175685952Y-129545357D01*
X175828809Y-129545357D01*
X176019285Y-129592976D01*
X176114523Y-129640595D01*
X176209761Y-129735833D01*
X176257380Y-129878690D01*
X176257380Y-130116785D01*
X175876428Y-128354880D02*
X175876428Y-127592976D01*
X176638333Y-126831071D02*
X176590714Y-126878690D01*
X176447857Y-126973928D01*
X176352619Y-127021547D01*
X176209761Y-127069166D01*
X175971666Y-127116785D01*
X175781190Y-127116785D01*
X175543095Y-127069166D01*
X175400238Y-127021547D01*
X175305000Y-126973928D01*
X175162142Y-126878690D01*
X175114523Y-126831071D01*
X175876428Y-126450119D02*
X175876428Y-125688214D01*
X176257380Y-126069166D02*
X175495476Y-126069166D01*
X175876428Y-125212023D02*
X175876428Y-124450119D01*
X175876428Y-123212023D02*
X175876428Y-122450119D01*
X176257380Y-122831071D02*
X175495476Y-122831071D01*
X176257380Y-121450119D02*
X176257380Y-122021547D01*
X176257380Y-121735833D02*
X175257380Y-121735833D01*
X175400238Y-121831071D01*
X175495476Y-121926309D01*
X175543095Y-122021547D01*
X175352619Y-121069166D02*
X175305000Y-121021547D01*
X175257380Y-120926309D01*
X175257380Y-120688214D01*
X175305000Y-120592976D01*
X175352619Y-120545357D01*
X175447857Y-120497738D01*
X175543095Y-120497738D01*
X175685952Y-120545357D01*
X176257380Y-121116785D01*
X176257380Y-120497738D01*
X175257380Y-120212023D02*
X176257380Y-119878690D01*
X175257380Y-119545357D01*
X116276666Y-134437380D02*
X115943333Y-133961190D01*
X115705238Y-134437380D02*
X115705238Y-133437380D01*
X116086190Y-133437380D01*
X116181428Y-133485000D01*
X116229047Y-133532619D01*
X116276666Y-133627857D01*
X116276666Y-133770714D01*
X116229047Y-133865952D01*
X116181428Y-133913571D01*
X116086190Y-133961190D01*
X115705238Y-133961190D01*
X116657619Y-134389761D02*
X116800476Y-134437380D01*
X117038571Y-134437380D01*
X117133809Y-134389761D01*
X117181428Y-134342142D01*
X117229047Y-134246904D01*
X117229047Y-134151666D01*
X117181428Y-134056428D01*
X117133809Y-134008809D01*
X117038571Y-133961190D01*
X116848095Y-133913571D01*
X116752857Y-133865952D01*
X116705238Y-133818333D01*
X116657619Y-133723095D01*
X116657619Y-133627857D01*
X116705238Y-133532619D01*
X116752857Y-133485000D01*
X116848095Y-133437380D01*
X117086190Y-133437380D01*
X117229047Y-133485000D01*
X117514761Y-133437380D02*
X118086190Y-133437380D01*
X117800476Y-134437380D02*
X117800476Y-133437380D01*
X119181428Y-134056428D02*
X119943333Y-134056428D01*
X120276666Y-133532619D02*
X120467142Y-133389761D01*
X120657619Y-133532619D01*
X114443047Y-130691000D02*
X114347809Y-130643380D01*
X114204952Y-130643380D01*
X114062095Y-130691000D01*
X113966857Y-130786238D01*
X113919238Y-130881476D01*
X113871619Y-131071952D01*
X113871619Y-131214809D01*
X113919238Y-131405285D01*
X113966857Y-131500523D01*
X114062095Y-131595761D01*
X114204952Y-131643380D01*
X114300190Y-131643380D01*
X114443047Y-131595761D01*
X114490666Y-131548142D01*
X114490666Y-131214809D01*
X114300190Y-131214809D01*
X114919238Y-131643380D02*
X114919238Y-130643380D01*
X115490666Y-131643380D01*
X115490666Y-130643380D01*
X115966857Y-131643380D02*
X115966857Y-130643380D01*
X116204952Y-130643380D01*
X116347809Y-130691000D01*
X116443047Y-130786238D01*
X116490666Y-130881476D01*
X116538285Y-131071952D01*
X116538285Y-131214809D01*
X116490666Y-131405285D01*
X116443047Y-131500523D01*
X116347809Y-131595761D01*
X116204952Y-131643380D01*
X115966857Y-131643380D01*
X116966857Y-131262428D02*
X117728761Y-131262428D01*
X115078047Y-125436380D02*
X115649476Y-125436380D01*
X115363761Y-126436380D02*
X115363761Y-125436380D01*
X115887571Y-125436380D02*
X116554238Y-126436380D01*
X116554238Y-125436380D02*
X115887571Y-126436380D01*
X116935190Y-126055428D02*
X117697095Y-126055428D01*
X109621309Y-136980714D02*
X109383214Y-136980714D01*
X109383214Y-135552142D01*
X109621309Y-135552142D01*
X109954642Y-136361666D02*
X110430833Y-136361666D01*
X109859404Y-136647380D02*
X110192738Y-135647380D01*
X110526071Y-136647380D01*
X110811785Y-135742619D02*
X110859404Y-135695000D01*
X110954642Y-135647380D01*
X111192738Y-135647380D01*
X111287976Y-135695000D01*
X111335595Y-135742619D01*
X111383214Y-135837857D01*
X111383214Y-135933095D01*
X111335595Y-136075952D01*
X110764166Y-136647380D01*
X111383214Y-136647380D01*
X111716547Y-136980714D02*
X111954642Y-136980714D01*
X111954642Y-135552142D01*
X111716547Y-135552142D01*
X114287976Y-136980714D02*
X114049880Y-136980714D01*
X114049880Y-135552142D01*
X114287976Y-135552142D01*
X114621309Y-136361666D02*
X115097500Y-136361666D01*
X114526071Y-136647380D02*
X114859404Y-135647380D01*
X115192738Y-136647380D01*
X116049880Y-136647380D02*
X115478452Y-136647380D01*
X115764166Y-136647380D02*
X115764166Y-135647380D01*
X115668928Y-135790238D01*
X115573690Y-135885476D01*
X115478452Y-135933095D01*
X116383214Y-136980714D02*
X116621309Y-136980714D01*
X116621309Y-135552142D01*
X116383214Y-135552142D01*
X119716547Y-136980714D02*
X119478452Y-136980714D01*
X119478452Y-135552142D01*
X119716547Y-135552142D01*
X120049880Y-136361666D02*
X120526071Y-136361666D01*
X119954642Y-136647380D02*
X120287976Y-135647380D01*
X120621309Y-136647380D01*
X121145119Y-135647380D02*
X121240357Y-135647380D01*
X121335595Y-135695000D01*
X121383214Y-135742619D01*
X121430833Y-135837857D01*
X121478452Y-136028333D01*
X121478452Y-136266428D01*
X121430833Y-136456904D01*
X121383214Y-136552142D01*
X121335595Y-136599761D01*
X121240357Y-136647380D01*
X121145119Y-136647380D01*
X121049880Y-136599761D01*
X121002261Y-136552142D01*
X120954642Y-136456904D01*
X120907023Y-136266428D01*
X120907023Y-136028333D01*
X120954642Y-135837857D01*
X121002261Y-135742619D01*
X121049880Y-135695000D01*
X121145119Y-135647380D01*
X121811785Y-136980714D02*
X122049880Y-136980714D01*
X122049880Y-135552142D01*
X121811785Y-135552142D01*
X125145119Y-136980714D02*
X124907023Y-136980714D01*
X124907023Y-135552142D01*
X125145119Y-135552142D01*
X125526071Y-136647380D02*
X125526071Y-135647380D01*
X125764166Y-135647380D01*
X125907023Y-135695000D01*
X126002261Y-135790238D01*
X126049880Y-135885476D01*
X126097500Y-136075952D01*
X126097500Y-136218809D01*
X126049880Y-136409285D01*
X126002261Y-136504523D01*
X125907023Y-136599761D01*
X125764166Y-136647380D01*
X125526071Y-136647380D01*
X126573690Y-136647380D02*
X126764166Y-136647380D01*
X126859404Y-136599761D01*
X126907023Y-136552142D01*
X127002261Y-136409285D01*
X127049880Y-136218809D01*
X127049880Y-135837857D01*
X127002261Y-135742619D01*
X126954642Y-135695000D01*
X126859404Y-135647380D01*
X126668928Y-135647380D01*
X126573690Y-135695000D01*
X126526071Y-135742619D01*
X126478452Y-135837857D01*
X126478452Y-136075952D01*
X126526071Y-136171190D01*
X126573690Y-136218809D01*
X126668928Y-136266428D01*
X126859404Y-136266428D01*
X126954642Y-136218809D01*
X127002261Y-136171190D01*
X127049880Y-136075952D01*
X127621309Y-135647380D02*
X127621309Y-135885476D01*
X127383214Y-135790238D02*
X127621309Y-135885476D01*
X127859404Y-135790238D01*
X127478452Y-136075952D02*
X127621309Y-135885476D01*
X127764166Y-136075952D01*
X128145119Y-136980714D02*
X128383214Y-136980714D01*
X128383214Y-135552142D01*
X128145119Y-135552142D01*
X129954642Y-136980714D02*
X129716547Y-136980714D01*
X129716547Y-135552142D01*
X129954642Y-135552142D01*
X130335595Y-136647380D02*
X130335595Y-135647380D01*
X130573690Y-135647380D01*
X130716547Y-135695000D01*
X130811785Y-135790238D01*
X130859404Y-135885476D01*
X130907023Y-136075952D01*
X130907023Y-136218809D01*
X130859404Y-136409285D01*
X130811785Y-136504523D01*
X130716547Y-136599761D01*
X130573690Y-136647380D01*
X130335595Y-136647380D01*
X131478452Y-136075952D02*
X131383214Y-136028333D01*
X131335595Y-135980714D01*
X131287976Y-135885476D01*
X131287976Y-135837857D01*
X131335595Y-135742619D01*
X131383214Y-135695000D01*
X131478452Y-135647380D01*
X131668928Y-135647380D01*
X131764166Y-135695000D01*
X131811785Y-135742619D01*
X131859404Y-135837857D01*
X131859404Y-135885476D01*
X131811785Y-135980714D01*
X131764166Y-136028333D01*
X131668928Y-136075952D01*
X131478452Y-136075952D01*
X131383214Y-136123571D01*
X131335595Y-136171190D01*
X131287976Y-136266428D01*
X131287976Y-136456904D01*
X131335595Y-136552142D01*
X131383214Y-136599761D01*
X131478452Y-136647380D01*
X131668928Y-136647380D01*
X131764166Y-136599761D01*
X131811785Y-136552142D01*
X131859404Y-136456904D01*
X131859404Y-136266428D01*
X131811785Y-136171190D01*
X131764166Y-136123571D01*
X131668928Y-136075952D01*
X132192738Y-136980714D02*
X132430833Y-136980714D01*
X132430833Y-135552142D01*
X132192738Y-135552142D01*
X135526071Y-136980714D02*
X135287976Y-136980714D01*
X135287976Y-135552142D01*
X135526071Y-135552142D01*
X135907023Y-136647380D02*
X135907023Y-135647380D01*
X136145119Y-135647380D01*
X136287976Y-135695000D01*
X136383214Y-135790238D01*
X136430833Y-135885476D01*
X136478452Y-136075952D01*
X136478452Y-136218809D01*
X136430833Y-136409285D01*
X136383214Y-136504523D01*
X136287976Y-136599761D01*
X136145119Y-136647380D01*
X135907023Y-136647380D01*
X136811785Y-135647380D02*
X137478452Y-135647380D01*
X137049880Y-136647380D01*
X137764166Y-136980714D02*
X138002261Y-136980714D01*
X138002261Y-135552142D01*
X137764166Y-135552142D01*
X141097500Y-136980714D02*
X140859404Y-136980714D01*
X140859404Y-135552142D01*
X141097500Y-135552142D01*
X141478452Y-136647380D02*
X141478452Y-135647380D01*
X141716547Y-135647380D01*
X141859404Y-135695000D01*
X141954642Y-135790238D01*
X142002261Y-135885476D01*
X142049880Y-136075952D01*
X142049880Y-136218809D01*
X142002261Y-136409285D01*
X141954642Y-136504523D01*
X141859404Y-136599761D01*
X141716547Y-136647380D01*
X141478452Y-136647380D01*
X142907023Y-135647380D02*
X142716547Y-135647380D01*
X142621309Y-135695000D01*
X142573690Y-135742619D01*
X142478452Y-135885476D01*
X142430833Y-136075952D01*
X142430833Y-136456904D01*
X142478452Y-136552142D01*
X142526071Y-136599761D01*
X142621309Y-136647380D01*
X142811785Y-136647380D01*
X142907023Y-136599761D01*
X142954642Y-136552142D01*
X143002261Y-136456904D01*
X143002261Y-136218809D01*
X142954642Y-136123571D01*
X142907023Y-136075952D01*
X142811785Y-136028333D01*
X142621309Y-136028333D01*
X142526071Y-136075952D01*
X142478452Y-136123571D01*
X142430833Y-136218809D01*
X143573690Y-135647380D02*
X143573690Y-135885476D01*
X143335595Y-135790238D02*
X143573690Y-135885476D01*
X143811785Y-135790238D01*
X143430833Y-136075952D02*
X143573690Y-135885476D01*
X143716547Y-136075952D01*
X144097500Y-136980714D02*
X144335595Y-136980714D01*
X144335595Y-135552142D01*
X144097500Y-135552142D01*
X145907023Y-136980714D02*
X145668928Y-136980714D01*
X145668928Y-135552142D01*
X145907023Y-135552142D01*
X146287976Y-136647380D02*
X146287976Y-135647380D01*
X146526071Y-135647380D01*
X146668928Y-135695000D01*
X146764166Y-135790238D01*
X146811785Y-135885476D01*
X146859404Y-136075952D01*
X146859404Y-136218809D01*
X146811785Y-136409285D01*
X146764166Y-136504523D01*
X146668928Y-136599761D01*
X146526071Y-136647380D01*
X146287976Y-136647380D01*
X147764166Y-135647380D02*
X147287976Y-135647380D01*
X147240357Y-136123571D01*
X147287976Y-136075952D01*
X147383214Y-136028333D01*
X147621309Y-136028333D01*
X147716547Y-136075952D01*
X147764166Y-136123571D01*
X147811785Y-136218809D01*
X147811785Y-136456904D01*
X147764166Y-136552142D01*
X147716547Y-136599761D01*
X147621309Y-136647380D01*
X147383214Y-136647380D01*
X147287976Y-136599761D01*
X147240357Y-136552142D01*
X148383214Y-135647380D02*
X148383214Y-135885476D01*
X148145119Y-135790238D02*
X148383214Y-135885476D01*
X148621309Y-135790238D01*
X148240357Y-136075952D02*
X148383214Y-135885476D01*
X148526071Y-136075952D01*
X148907023Y-136980714D02*
X149145119Y-136980714D01*
X149145119Y-135552142D01*
X148907023Y-135552142D01*
X109907023Y-138257380D02*
X109573690Y-137781190D01*
X109335595Y-138257380D02*
X109335595Y-137257380D01*
X109716547Y-137257380D01*
X109811785Y-137305000D01*
X109859404Y-137352619D01*
X109907023Y-137447857D01*
X109907023Y-137590714D01*
X109859404Y-137685952D01*
X109811785Y-137733571D01*
X109716547Y-137781190D01*
X109335595Y-137781190D01*
X110478452Y-137685952D02*
X110383214Y-137638333D01*
X110335595Y-137590714D01*
X110287976Y-137495476D01*
X110287976Y-137447857D01*
X110335595Y-137352619D01*
X110383214Y-137305000D01*
X110478452Y-137257380D01*
X110668928Y-137257380D01*
X110764166Y-137305000D01*
X110811785Y-137352619D01*
X110859404Y-137447857D01*
X110859404Y-137495476D01*
X110811785Y-137590714D01*
X110764166Y-137638333D01*
X110668928Y-137685952D01*
X110478452Y-137685952D01*
X110383214Y-137733571D01*
X110335595Y-137781190D01*
X110287976Y-137876428D01*
X110287976Y-138066904D01*
X110335595Y-138162142D01*
X110383214Y-138209761D01*
X110478452Y-138257380D01*
X110668928Y-138257380D01*
X110764166Y-138209761D01*
X110811785Y-138162142D01*
X110859404Y-138066904D01*
X110859404Y-137876428D01*
X110811785Y-137781190D01*
X110764166Y-137733571D01*
X110668928Y-137685952D01*
X113049880Y-138590714D02*
X113049880Y-137162142D01*
X115097500Y-138257380D02*
X114764166Y-137781190D01*
X114526071Y-138257380D02*
X114526071Y-137257380D01*
X114907023Y-137257380D01*
X115002261Y-137305000D01*
X115049880Y-137352619D01*
X115097500Y-137447857D01*
X115097500Y-137590714D01*
X115049880Y-137685952D01*
X115002261Y-137733571D01*
X114907023Y-137781190D01*
X114526071Y-137781190D01*
X115430833Y-137257380D02*
X116097500Y-137257380D01*
X115668928Y-138257380D01*
X118240357Y-138590714D02*
X118240357Y-137162142D01*
X120287976Y-138257380D02*
X119954642Y-137781190D01*
X119716547Y-138257380D02*
X119716547Y-137257380D01*
X120097500Y-137257380D01*
X120192738Y-137305000D01*
X120240357Y-137352619D01*
X120287976Y-137447857D01*
X120287976Y-137590714D01*
X120240357Y-137685952D01*
X120192738Y-137733571D01*
X120097500Y-137781190D01*
X119716547Y-137781190D01*
X121145119Y-137257380D02*
X120954642Y-137257380D01*
X120859404Y-137305000D01*
X120811785Y-137352619D01*
X120716547Y-137495476D01*
X120668928Y-137685952D01*
X120668928Y-138066904D01*
X120716547Y-138162142D01*
X120764166Y-138209761D01*
X120859404Y-138257380D01*
X121049880Y-138257380D01*
X121145119Y-138209761D01*
X121192738Y-138162142D01*
X121240357Y-138066904D01*
X121240357Y-137828809D01*
X121192738Y-137733571D01*
X121145119Y-137685952D01*
X121049880Y-137638333D01*
X120859404Y-137638333D01*
X120764166Y-137685952D01*
X120716547Y-137733571D01*
X120668928Y-137828809D01*
X123430833Y-138590714D02*
X123430833Y-137162142D01*
X125478452Y-138257380D02*
X125145119Y-137781190D01*
X124907023Y-138257380D02*
X124907023Y-137257380D01*
X125287976Y-137257380D01*
X125383214Y-137305000D01*
X125430833Y-137352619D01*
X125478452Y-137447857D01*
X125478452Y-137590714D01*
X125430833Y-137685952D01*
X125383214Y-137733571D01*
X125287976Y-137781190D01*
X124907023Y-137781190D01*
X126383214Y-137257380D02*
X125907023Y-137257380D01*
X125859404Y-137733571D01*
X125907023Y-137685952D01*
X126002261Y-137638333D01*
X126240357Y-137638333D01*
X126335595Y-137685952D01*
X126383214Y-137733571D01*
X126430833Y-137828809D01*
X126430833Y-138066904D01*
X126383214Y-138162142D01*
X126335595Y-138209761D01*
X126240357Y-138257380D01*
X126002261Y-138257380D01*
X125907023Y-138209761D01*
X125859404Y-138162142D01*
X128621309Y-138590714D02*
X128621309Y-137162142D01*
X130668928Y-138257380D02*
X130335595Y-137781190D01*
X130097500Y-138257380D02*
X130097500Y-137257380D01*
X130478452Y-137257380D01*
X130573690Y-137305000D01*
X130621309Y-137352619D01*
X130668928Y-137447857D01*
X130668928Y-137590714D01*
X130621309Y-137685952D01*
X130573690Y-137733571D01*
X130478452Y-137781190D01*
X130097500Y-137781190D01*
X131526071Y-137590714D02*
X131526071Y-138257380D01*
X131287976Y-137209761D02*
X131049880Y-137924047D01*
X131668928Y-137924047D01*
X133811785Y-138590714D02*
X133811785Y-137162142D01*
X135859404Y-138257380D02*
X135526071Y-137781190D01*
X135287976Y-138257380D02*
X135287976Y-137257380D01*
X135668928Y-137257380D01*
X135764166Y-137305000D01*
X135811785Y-137352619D01*
X135859404Y-137447857D01*
X135859404Y-137590714D01*
X135811785Y-137685952D01*
X135764166Y-137733571D01*
X135668928Y-137781190D01*
X135287976Y-137781190D01*
X136192738Y-137257380D02*
X136811785Y-137257380D01*
X136478452Y-137638333D01*
X136621309Y-137638333D01*
X136716547Y-137685952D01*
X136764166Y-137733571D01*
X136811785Y-137828809D01*
X136811785Y-138066904D01*
X136764166Y-138162142D01*
X136716547Y-138209761D01*
X136621309Y-138257380D01*
X136335595Y-138257380D01*
X136240357Y-138209761D01*
X136192738Y-138162142D01*
X139002261Y-138590714D02*
X139002261Y-137162142D01*
X141049880Y-138257380D02*
X140716547Y-137781190D01*
X140478452Y-138257380D02*
X140478452Y-137257380D01*
X140859404Y-137257380D01*
X140954642Y-137305000D01*
X141002261Y-137352619D01*
X141049880Y-137447857D01*
X141049880Y-137590714D01*
X141002261Y-137685952D01*
X140954642Y-137733571D01*
X140859404Y-137781190D01*
X140478452Y-137781190D01*
X141430833Y-137352619D02*
X141478452Y-137305000D01*
X141573690Y-137257380D01*
X141811785Y-137257380D01*
X141907023Y-137305000D01*
X141954642Y-137352619D01*
X142002261Y-137447857D01*
X142002261Y-137543095D01*
X141954642Y-137685952D01*
X141383214Y-138257380D01*
X142002261Y-138257380D01*
X144192738Y-138590714D02*
X144192738Y-137162142D01*
X146240357Y-138257380D02*
X145907023Y-137781190D01*
X145668928Y-138257380D02*
X145668928Y-137257380D01*
X146049880Y-137257380D01*
X146145119Y-137305000D01*
X146192738Y-137352619D01*
X146240357Y-137447857D01*
X146240357Y-137590714D01*
X146192738Y-137685952D01*
X146145119Y-137733571D01*
X146049880Y-137781190D01*
X145668928Y-137781190D01*
X147192738Y-138257380D02*
X146621309Y-138257380D01*
X146907023Y-138257380D02*
X146907023Y-137257380D01*
X146811785Y-137400238D01*
X146716547Y-137495476D01*
X146621309Y-137543095D01*
X149383214Y-138590714D02*
X149383214Y-137162142D01*
X151383214Y-137305000D02*
X151287976Y-137257380D01*
X151145119Y-137257380D01*
X151002261Y-137305000D01*
X150907023Y-137400238D01*
X150859404Y-137495476D01*
X150811785Y-137685952D01*
X150811785Y-137828809D01*
X150859404Y-138019285D01*
X150907023Y-138114523D01*
X151002261Y-138209761D01*
X151145119Y-138257380D01*
X151240357Y-138257380D01*
X151383214Y-138209761D01*
X151430833Y-138162142D01*
X151430833Y-137828809D01*
X151240357Y-137828809D01*
X151859404Y-138257380D02*
X151859404Y-137257380D01*
X152430833Y-138257380D01*
X152430833Y-137257380D01*
X152907023Y-138257380D02*
X152907023Y-137257380D01*
X153145119Y-137257380D01*
X153287976Y-137305000D01*
X153383214Y-137400238D01*
X153430833Y-137495476D01*
X153478452Y-137685952D01*
X153478452Y-137828809D01*
X153430833Y-138019285D01*
X153383214Y-138114523D01*
X153287976Y-138209761D01*
X153145119Y-138257380D01*
X152907023Y-138257380D01*
X154907023Y-138590714D02*
X154907023Y-137162142D01*
X155621309Y-137876428D02*
X156383214Y-137876428D01*
X156002261Y-138257380D02*
X156002261Y-137495476D01*
X157383214Y-138257380D02*
X156811785Y-138257380D01*
X157097500Y-138257380D02*
X157097500Y-137257380D01*
X157002261Y-137400238D01*
X156907023Y-137495476D01*
X156811785Y-137543095D01*
X157764166Y-137352619D02*
X157811785Y-137305000D01*
X157907023Y-137257380D01*
X158145119Y-137257380D01*
X158240357Y-137305000D01*
X158287976Y-137352619D01*
X158335595Y-137447857D01*
X158335595Y-137543095D01*
X158287976Y-137685952D01*
X157716547Y-138257380D01*
X158335595Y-138257380D01*
X158621309Y-137257380D02*
X158954642Y-138257380D01*
X159287976Y-137257380D01*
X103052619Y-122801666D02*
X103528809Y-122468333D01*
X103052619Y-122230238D02*
X104052619Y-122230238D01*
X104052619Y-122611190D01*
X104005000Y-122706428D01*
X103957380Y-122754047D01*
X103862142Y-122801666D01*
X103719285Y-122801666D01*
X103624047Y-122754047D01*
X103576428Y-122706428D01*
X103528809Y-122611190D01*
X103528809Y-122230238D01*
X104052619Y-123135000D02*
X103052619Y-123801666D01*
X104052619Y-123801666D02*
X103052619Y-123135000D01*
X102719285Y-124468333D02*
X102719285Y-124230238D01*
X104147857Y-124230238D01*
X104147857Y-124468333D01*
X103052619Y-124849285D02*
X104052619Y-124849285D01*
X104052619Y-125087380D01*
X104005000Y-125230238D01*
X103909761Y-125325476D01*
X103814523Y-125373095D01*
X103624047Y-125420714D01*
X103481190Y-125420714D01*
X103290714Y-125373095D01*
X103195476Y-125325476D01*
X103100238Y-125230238D01*
X103052619Y-125087380D01*
X103052619Y-124849285D01*
X103052619Y-126373095D02*
X103052619Y-125801666D01*
X103052619Y-126087380D02*
X104052619Y-126087380D01*
X103909761Y-125992142D01*
X103814523Y-125896904D01*
X103766904Y-125801666D01*
X102719285Y-126706428D02*
X102719285Y-126944523D01*
X104147857Y-126944523D01*
X104147857Y-126706428D01*
X104100238Y-128182619D02*
X102814523Y-127325476D01*
X104052619Y-128373095D02*
X104052619Y-128944523D01*
X103052619Y-128658809D02*
X104052619Y-128658809D01*
X104052619Y-129182619D02*
X103052619Y-129849285D01*
X104052619Y-129849285D02*
X103052619Y-129182619D01*
X102719285Y-130515952D02*
X102719285Y-130277857D01*
X104147857Y-130277857D01*
X104147857Y-130515952D01*
X103052619Y-130896904D02*
X104052619Y-130896904D01*
X104052619Y-131135000D01*
X104005000Y-131277857D01*
X103909761Y-131373095D01*
X103814523Y-131420714D01*
X103624047Y-131468333D01*
X103481190Y-131468333D01*
X103290714Y-131420714D01*
X103195476Y-131373095D01*
X103100238Y-131277857D01*
X103052619Y-131135000D01*
X103052619Y-130896904D01*
X104052619Y-132087380D02*
X104052619Y-132182619D01*
X104005000Y-132277857D01*
X103957380Y-132325476D01*
X103862142Y-132373095D01*
X103671666Y-132420714D01*
X103433571Y-132420714D01*
X103243095Y-132373095D01*
X103147857Y-132325476D01*
X103100238Y-132277857D01*
X103052619Y-132182619D01*
X103052619Y-132087380D01*
X103100238Y-131992142D01*
X103147857Y-131944523D01*
X103243095Y-131896904D01*
X103433571Y-131849285D01*
X103671666Y-131849285D01*
X103862142Y-131896904D01*
X103957380Y-131944523D01*
X104005000Y-131992142D01*
X104052619Y-132087380D01*
X102719285Y-132754047D02*
X102719285Y-132992142D01*
X104147857Y-132992142D01*
X104147857Y-132754047D01*
X183957142Y-122271428D02*
X183957142Y-121671428D01*
X184242857Y-122271428D02*
X184242857Y-121671428D01*
X184585714Y-122271428D01*
X184585714Y-121671428D01*
X184785714Y-121671428D02*
X185128571Y-121671428D01*
X184957142Y-122271428D02*
X184957142Y-121671428D01*
X183957142Y-117021428D02*
X183957142Y-116421428D01*
X184242857Y-117021428D02*
X184242857Y-116421428D01*
X184585714Y-117021428D01*
X184585714Y-116421428D01*
X184785714Y-116421428D02*
X185128571Y-116421428D01*
X184957142Y-117021428D02*
X184957142Y-116421428D01*
X157605428Y-101957142D02*
X157605428Y-101842857D01*
X157634000Y-101785714D01*
X157691142Y-101728571D01*
X157805428Y-101700000D01*
X158005428Y-101700000D01*
X158119714Y-101728571D01*
X158176857Y-101785714D01*
X158205428Y-101842857D01*
X158205428Y-101957142D01*
X158176857Y-102014285D01*
X158119714Y-102071428D01*
X158005428Y-102100000D01*
X157805428Y-102100000D01*
X157691142Y-102071428D01*
X157634000Y-102014285D01*
X157605428Y-101957142D01*
X158205428Y-101442857D02*
X157605428Y-101442857D01*
X157605428Y-101214285D01*
X157634000Y-101157142D01*
X157662571Y-101128571D01*
X157719714Y-101100000D01*
X157805428Y-101100000D01*
X157862571Y-101128571D01*
X157891142Y-101157142D01*
X157919714Y-101214285D01*
X157919714Y-101442857D01*
X157605428Y-100928571D02*
X157605428Y-100585714D01*
X158205428Y-100757142D02*
X157605428Y-100757142D01*
X158205428Y-100385714D02*
X157605428Y-100385714D01*
X157605428Y-99985714D02*
X157605428Y-99871428D01*
X157634000Y-99814285D01*
X157691142Y-99757142D01*
X157805428Y-99728571D01*
X158005428Y-99728571D01*
X158119714Y-99757142D01*
X158176857Y-99814285D01*
X158205428Y-99871428D01*
X158205428Y-99985714D01*
X158176857Y-100042857D01*
X158119714Y-100100000D01*
X158005428Y-100128571D01*
X157805428Y-100128571D01*
X157691142Y-100100000D01*
X157634000Y-100042857D01*
X157605428Y-99985714D01*
X158205428Y-99471428D02*
X157605428Y-99471428D01*
X158205428Y-99128571D01*
X157605428Y-99128571D01*
X158034000Y-98871428D02*
X158034000Y-98585714D01*
X158205428Y-98928571D02*
X157605428Y-98728571D01*
X158205428Y-98528571D01*
X158205428Y-98042857D02*
X158205428Y-98328571D01*
X157605428Y-98328571D01*
X159171428Y-102328571D02*
X158571428Y-102328571D01*
X158571428Y-102100000D01*
X158600000Y-102042857D01*
X158628571Y-102014285D01*
X158685714Y-101985714D01*
X158771428Y-101985714D01*
X158828571Y-102014285D01*
X158857142Y-102042857D01*
X158885714Y-102100000D01*
X158885714Y-102328571D01*
X158571428Y-101728571D02*
X159057142Y-101728571D01*
X159114285Y-101700000D01*
X159142857Y-101671428D01*
X159171428Y-101614285D01*
X159171428Y-101500000D01*
X159142857Y-101442857D01*
X159114285Y-101414285D01*
X159057142Y-101385714D01*
X158571428Y-101385714D01*
X159171428Y-100814285D02*
X159171428Y-101100000D01*
X158571428Y-101100000D01*
X159171428Y-100328571D02*
X159171428Y-100614285D01*
X158571428Y-100614285D01*
X159171428Y-100128571D02*
X158571428Y-100128571D01*
X158571428Y-99985714D01*
X158600000Y-99900000D01*
X158657142Y-99842857D01*
X158714285Y-99814285D01*
X158828571Y-99785714D01*
X158914285Y-99785714D01*
X159028571Y-99814285D01*
X159085714Y-99842857D01*
X159142857Y-99900000D01*
X159171428Y-99985714D01*
X159171428Y-100128571D01*
X158571428Y-99414285D02*
X158571428Y-99300000D01*
X158600000Y-99242857D01*
X158657142Y-99185714D01*
X158771428Y-99157142D01*
X158971428Y-99157142D01*
X159085714Y-99185714D01*
X159142857Y-99242857D01*
X159171428Y-99300000D01*
X159171428Y-99414285D01*
X159142857Y-99471428D01*
X159085714Y-99528571D01*
X158971428Y-99557142D01*
X158771428Y-99557142D01*
X158657142Y-99528571D01*
X158600000Y-99471428D01*
X158571428Y-99414285D01*
X158571428Y-98957142D02*
X159171428Y-98814285D01*
X158742857Y-98700000D01*
X159171428Y-98585714D01*
X158571428Y-98442857D01*
X159171428Y-98214285D02*
X158571428Y-98214285D01*
X159171428Y-97871428D01*
X158571428Y-97871428D01*
X160137428Y-101742857D02*
X159851714Y-101942857D01*
X160137428Y-102085714D02*
X159537428Y-102085714D01*
X159537428Y-101857142D01*
X159566000Y-101800000D01*
X159594571Y-101771428D01*
X159651714Y-101742857D01*
X159737428Y-101742857D01*
X159794571Y-101771428D01*
X159823142Y-101800000D01*
X159851714Y-101857142D01*
X159851714Y-102085714D01*
X159823142Y-101485714D02*
X159823142Y-101285714D01*
X160137428Y-101200000D02*
X160137428Y-101485714D01*
X159537428Y-101485714D01*
X159537428Y-101200000D01*
X160108857Y-100971428D02*
X160137428Y-100885714D01*
X160137428Y-100742857D01*
X160108857Y-100685714D01*
X160080285Y-100657142D01*
X160023142Y-100628571D01*
X159966000Y-100628571D01*
X159908857Y-100657142D01*
X159880285Y-100685714D01*
X159851714Y-100742857D01*
X159823142Y-100857142D01*
X159794571Y-100914285D01*
X159766000Y-100942857D01*
X159708857Y-100971428D01*
X159651714Y-100971428D01*
X159594571Y-100942857D01*
X159566000Y-100914285D01*
X159537428Y-100857142D01*
X159537428Y-100714285D01*
X159566000Y-100628571D01*
X160137428Y-100371428D02*
X159537428Y-100371428D01*
X160108857Y-100114285D02*
X160137428Y-100028571D01*
X160137428Y-99885714D01*
X160108857Y-99828571D01*
X160080285Y-99800000D01*
X160023142Y-99771428D01*
X159966000Y-99771428D01*
X159908857Y-99800000D01*
X159880285Y-99828571D01*
X159851714Y-99885714D01*
X159823142Y-100000000D01*
X159794571Y-100057142D01*
X159766000Y-100085714D01*
X159708857Y-100114285D01*
X159651714Y-100114285D01*
X159594571Y-100085714D01*
X159566000Y-100057142D01*
X159537428Y-100000000D01*
X159537428Y-99857142D01*
X159566000Y-99771428D01*
X159537428Y-99600000D02*
X159537428Y-99257142D01*
X160137428Y-99428571D02*
X159537428Y-99428571D01*
X159537428Y-98942857D02*
X159537428Y-98828571D01*
X159566000Y-98771428D01*
X159623142Y-98714285D01*
X159737428Y-98685714D01*
X159937428Y-98685714D01*
X160051714Y-98714285D01*
X160108857Y-98771428D01*
X160137428Y-98828571D01*
X160137428Y-98942857D01*
X160108857Y-99000000D01*
X160051714Y-99057142D01*
X159937428Y-99085714D01*
X159737428Y-99085714D01*
X159623142Y-99057142D01*
X159566000Y-99000000D01*
X159537428Y-98942857D01*
X160137428Y-98085714D02*
X159851714Y-98285714D01*
X160137428Y-98428571D02*
X159537428Y-98428571D01*
X159537428Y-98200000D01*
X159566000Y-98142857D01*
X159594571Y-98114285D01*
X159651714Y-98085714D01*
X159737428Y-98085714D01*
X159794571Y-98114285D01*
X159823142Y-98142857D01*
X159851714Y-98200000D01*
X159851714Y-98428571D01*
X125635428Y-109894666D02*
X126111619Y-109894666D01*
X125540190Y-110180380D02*
X125873523Y-109180380D01*
X126206857Y-110180380D01*
X127111619Y-110180380D02*
X126778285Y-109704190D01*
X126540190Y-110180380D02*
X126540190Y-109180380D01*
X126921142Y-109180380D01*
X127016380Y-109228000D01*
X127064000Y-109275619D01*
X127111619Y-109370857D01*
X127111619Y-109513714D01*
X127064000Y-109608952D01*
X127016380Y-109656571D01*
X126921142Y-109704190D01*
X126540190Y-109704190D01*
X127540190Y-110180380D02*
X127540190Y-109180380D01*
X127778285Y-109180380D01*
X127921142Y-109228000D01*
X128016380Y-109323238D01*
X128064000Y-109418476D01*
X128111619Y-109608952D01*
X128111619Y-109751809D01*
X128064000Y-109942285D01*
X128016380Y-110037523D01*
X127921142Y-110132761D01*
X127778285Y-110180380D01*
X127540190Y-110180380D01*
X128540190Y-109180380D02*
X128540190Y-109989904D01*
X128587809Y-110085142D01*
X128635428Y-110132761D01*
X128730666Y-110180380D01*
X128921142Y-110180380D01*
X129016380Y-110132761D01*
X129064000Y-110085142D01*
X129111619Y-109989904D01*
X129111619Y-109180380D01*
X129587809Y-110180380D02*
X129587809Y-109180380D01*
X130064000Y-110180380D02*
X130064000Y-109180380D01*
X130635428Y-110180380D01*
X130635428Y-109180380D01*
X131302095Y-109180380D02*
X131492571Y-109180380D01*
X131587809Y-109228000D01*
X131683047Y-109323238D01*
X131730666Y-109513714D01*
X131730666Y-109847047D01*
X131683047Y-110037523D01*
X131587809Y-110132761D01*
X131492571Y-110180380D01*
X131302095Y-110180380D01*
X131206857Y-110132761D01*
X131111619Y-110037523D01*
X131064000Y-109847047D01*
X131064000Y-109513714D01*
X131111619Y-109323238D01*
X131206857Y-109228000D01*
X131302095Y-109180380D01*
X132921142Y-110180380D02*
X132921142Y-109180380D01*
X133492571Y-110180380D01*
X133492571Y-109180380D01*
X133921142Y-109894666D02*
X134397333Y-109894666D01*
X133825904Y-110180380D02*
X134159238Y-109180380D01*
X134492571Y-110180380D01*
X134825904Y-110180380D02*
X134825904Y-109180380D01*
X135397333Y-110180380D01*
X135397333Y-109180380D01*
X136064000Y-109180380D02*
X136254476Y-109180380D01*
X136349714Y-109228000D01*
X136444952Y-109323238D01*
X136492571Y-109513714D01*
X136492571Y-109847047D01*
X136444952Y-110037523D01*
X136349714Y-110132761D01*
X136254476Y-110180380D01*
X136064000Y-110180380D01*
X135968761Y-110132761D01*
X135873523Y-110037523D01*
X135825904Y-109847047D01*
X135825904Y-109513714D01*
X135873523Y-109323238D01*
X135968761Y-109228000D01*
X136064000Y-109180380D01*
X123595238Y-128071428D02*
X124357142Y-128071428D01*
X123976190Y-128452380D02*
X123976190Y-127690476D01*
X124738095Y-127452380D02*
X125357142Y-127452380D01*
X125023809Y-127833333D01*
X125166666Y-127833333D01*
X125261904Y-127880952D01*
X125309523Y-127928571D01*
X125357142Y-128023809D01*
X125357142Y-128261904D01*
X125309523Y-128357142D01*
X125261904Y-128404761D01*
X125166666Y-128452380D01*
X124880952Y-128452380D01*
X124785714Y-128404761D01*
X124738095Y-128357142D01*
X125642857Y-127452380D02*
X125976190Y-128452380D01*
X126309523Y-127452380D01*
X126547619Y-127452380D02*
X127166666Y-127452380D01*
X126833333Y-127833333D01*
X126976190Y-127833333D01*
X127071428Y-127880952D01*
X127119047Y-127928571D01*
X127166666Y-128023809D01*
X127166666Y-128261904D01*
X127119047Y-128357142D01*
X127071428Y-128404761D01*
X126976190Y-128452380D01*
X126690476Y-128452380D01*
X126595238Y-128404761D01*
X126547619Y-128357142D01*
X128595238Y-128785714D02*
X128595238Y-127357142D01*
X129833333Y-127500000D02*
X129738095Y-127452380D01*
X129595238Y-127452380D01*
X129452380Y-127500000D01*
X129357142Y-127595238D01*
X129309523Y-127690476D01*
X129261904Y-127880952D01*
X129261904Y-128023809D01*
X129309523Y-128214285D01*
X129357142Y-128309523D01*
X129452380Y-128404761D01*
X129595238Y-128452380D01*
X129690476Y-128452380D01*
X129833333Y-128404761D01*
X129880952Y-128357142D01*
X129880952Y-128023809D01*
X129690476Y-128023809D01*
X130309523Y-128452380D02*
X130309523Y-127452380D01*
X130880952Y-128452380D01*
X130880952Y-127452380D01*
X131357142Y-128452380D02*
X131357142Y-127452380D01*
X131595238Y-127452380D01*
X131738095Y-127500000D01*
X131833333Y-127595238D01*
X131880952Y-127690476D01*
X131928571Y-127880952D01*
X131928571Y-128023809D01*
X131880952Y-128214285D01*
X131833333Y-128309523D01*
X131738095Y-128404761D01*
X131595238Y-128452380D01*
X131357142Y-128452380D01*
X133071428Y-127404761D02*
X132214285Y-128690476D01*
X134119047Y-127404761D02*
X133261904Y-128690476D01*
X134452380Y-128071428D02*
X135214285Y-128071428D01*
X134833333Y-128452380D02*
X134833333Y-127690476D01*
X136166666Y-127452380D02*
X135690476Y-127452380D01*
X135642857Y-127928571D01*
X135690476Y-127880952D01*
X135785714Y-127833333D01*
X136023809Y-127833333D01*
X136119047Y-127880952D01*
X136166666Y-127928571D01*
X136214285Y-128023809D01*
X136214285Y-128261904D01*
X136166666Y-128357142D01*
X136119047Y-128404761D01*
X136023809Y-128452380D01*
X135785714Y-128452380D01*
X135690476Y-128404761D01*
X135642857Y-128357142D01*
X136500000Y-127452380D02*
X136833333Y-128452380D01*
X137166666Y-127452380D01*
X138500000Y-128785714D02*
X138500000Y-127357142D01*
X140500000Y-127500000D02*
X140404761Y-127452380D01*
X140261904Y-127452380D01*
X140119047Y-127500000D01*
X140023809Y-127595238D01*
X139976190Y-127690476D01*
X139928571Y-127880952D01*
X139928571Y-128023809D01*
X139976190Y-128214285D01*
X140023809Y-128309523D01*
X140119047Y-128404761D01*
X140261904Y-128452380D01*
X140357142Y-128452380D01*
X140500000Y-128404761D01*
X140547619Y-128357142D01*
X140547619Y-128023809D01*
X140357142Y-128023809D01*
X140976190Y-128452380D02*
X140976190Y-127452380D01*
X141547619Y-128452380D01*
X141547619Y-127452380D01*
X142023809Y-128452380D02*
X142023809Y-127452380D01*
X142261904Y-127452380D01*
X142404761Y-127500000D01*
X142500000Y-127595238D01*
X142547619Y-127690476D01*
X142595238Y-127880952D01*
X142595238Y-128023809D01*
X142547619Y-128214285D01*
X142500000Y-128309523D01*
X142404761Y-128404761D01*
X142261904Y-128452380D01*
X142023809Y-128452380D01*
X143738095Y-127404761D02*
X142880952Y-128690476D01*
X144785714Y-127404761D02*
X143928571Y-128690476D01*
X145119047Y-128071428D02*
X145880952Y-128071428D01*
X145500000Y-128452380D02*
X145500000Y-127690476D01*
X146880952Y-128452380D02*
X146309523Y-128452380D01*
X146595238Y-128452380D02*
X146595238Y-127452380D01*
X146500000Y-127595238D01*
X146404761Y-127690476D01*
X146309523Y-127738095D01*
X147261904Y-127547619D02*
X147309523Y-127500000D01*
X147404761Y-127452380D01*
X147642857Y-127452380D01*
X147738095Y-127500000D01*
X147785714Y-127547619D01*
X147833333Y-127642857D01*
X147833333Y-127738095D01*
X147785714Y-127880952D01*
X147214285Y-128452380D01*
X147833333Y-128452380D01*
X148119047Y-127452380D02*
X148452380Y-128452380D01*
X148785714Y-127452380D01*
X149357142Y-128785714D02*
X149357142Y-127357142D01*
X151357142Y-127500000D02*
X151261904Y-127452380D01*
X151119047Y-127452380D01*
X150976190Y-127500000D01*
X150880952Y-127595238D01*
X150833333Y-127690476D01*
X150785714Y-127880952D01*
X150785714Y-128023809D01*
X150833333Y-128214285D01*
X150880952Y-128309523D01*
X150976190Y-128404761D01*
X151119047Y-128452380D01*
X151214285Y-128452380D01*
X151357142Y-128404761D01*
X151404761Y-128357142D01*
X151404761Y-128023809D01*
X151214285Y-128023809D01*
X151833333Y-128452380D02*
X151833333Y-127452380D01*
X152404761Y-128452380D01*
X152404761Y-127452380D01*
X152880952Y-128452380D02*
X152880952Y-127452380D01*
X153119047Y-127452380D01*
X153261904Y-127500000D01*
X153357142Y-127595238D01*
X153404761Y-127690476D01*
X153452380Y-127880952D01*
X153452380Y-128023809D01*
X153404761Y-128214285D01*
X153357142Y-128309523D01*
X153261904Y-128404761D01*
X153119047Y-128452380D01*
X152880952Y-128452380D01*
X160549880Y-132423809D02*
X160664166Y-132461904D01*
X160854642Y-132461904D01*
X160930833Y-132423809D01*
X160968928Y-132385714D01*
X161007023Y-132309523D01*
X161007023Y-132233333D01*
X160968928Y-132157142D01*
X160930833Y-132119047D01*
X160854642Y-132080952D01*
X160702261Y-132042857D01*
X160626071Y-132004761D01*
X160587976Y-131966666D01*
X160549880Y-131890476D01*
X160549880Y-131814285D01*
X160587976Y-131738095D01*
X160626071Y-131700000D01*
X160702261Y-131661904D01*
X160892738Y-131661904D01*
X161007023Y-131700000D01*
X161807023Y-132385714D02*
X161768928Y-132423809D01*
X161654642Y-132461904D01*
X161578452Y-132461904D01*
X161464166Y-132423809D01*
X161387976Y-132347619D01*
X161349880Y-132271428D01*
X161311785Y-132119047D01*
X161311785Y-132004761D01*
X161349880Y-131852380D01*
X161387976Y-131776190D01*
X161464166Y-131700000D01*
X161578452Y-131661904D01*
X161654642Y-131661904D01*
X161768928Y-131700000D01*
X161807023Y-131738095D01*
X162111785Y-132233333D02*
X162492738Y-132233333D01*
X162035595Y-132461904D02*
X162302261Y-131661904D01*
X162568928Y-132461904D01*
X163292738Y-132461904D02*
X163026071Y-132080952D01*
X162835595Y-132461904D02*
X162835595Y-131661904D01*
X163140357Y-131661904D01*
X163216547Y-131700000D01*
X163254642Y-131738095D01*
X163292738Y-131814285D01*
X163292738Y-131928571D01*
X163254642Y-132004761D01*
X163216547Y-132042857D01*
X163140357Y-132080952D01*
X162835595Y-132080952D01*
X163635595Y-132042857D02*
X163902261Y-132042857D01*
X164016547Y-132461904D02*
X163635595Y-132461904D01*
X163635595Y-131661904D01*
X164016547Y-131661904D01*
X164626071Y-132042857D02*
X164740357Y-132080952D01*
X164778452Y-132119047D01*
X164816547Y-132195238D01*
X164816547Y-132309523D01*
X164778452Y-132385714D01*
X164740357Y-132423809D01*
X164664166Y-132461904D01*
X164359404Y-132461904D01*
X164359404Y-131661904D01*
X164626071Y-131661904D01*
X164702261Y-131700000D01*
X164740357Y-131738095D01*
X164778452Y-131814285D01*
X164778452Y-131890476D01*
X164740357Y-131966666D01*
X164702261Y-132004761D01*
X164626071Y-132042857D01*
X164359404Y-132042857D01*
X165121309Y-132233333D02*
X165502261Y-132233333D01*
X165045119Y-132461904D02*
X165311785Y-131661904D01*
X165578452Y-132461904D01*
X165845119Y-132461904D02*
X165845119Y-131661904D01*
X166302261Y-132461904D01*
X166302261Y-131661904D01*
X167102261Y-131700000D02*
X167026071Y-131661904D01*
X166911785Y-131661904D01*
X166797500Y-131700000D01*
X166721309Y-131776190D01*
X166683214Y-131852380D01*
X166645119Y-132004761D01*
X166645119Y-132119047D01*
X166683214Y-132271428D01*
X166721309Y-132347619D01*
X166797500Y-132423809D01*
X166911785Y-132461904D01*
X166987976Y-132461904D01*
X167102261Y-132423809D01*
X167140357Y-132385714D01*
X167140357Y-132119047D01*
X166987976Y-132119047D01*
X167483214Y-132042857D02*
X167749880Y-132042857D01*
X167864166Y-132461904D02*
X167483214Y-132461904D01*
X167483214Y-131661904D01*
X167864166Y-131661904D01*
X168664166Y-132461904D02*
X168397500Y-132080952D01*
X168207023Y-132461904D02*
X168207023Y-131661904D01*
X168511785Y-131661904D01*
X168587976Y-131700000D01*
X168626071Y-131738095D01*
X168664166Y-131814285D01*
X168664166Y-131928571D01*
X168626071Y-132004761D01*
X168587976Y-132042857D01*
X168511785Y-132080952D01*
X168207023Y-132080952D01*
X169502261Y-131661904D02*
X169768928Y-132461904D01*
X170035595Y-131661904D01*
X170264166Y-131738095D02*
X170302261Y-131700000D01*
X170378452Y-131661904D01*
X170568928Y-131661904D01*
X170645119Y-131700000D01*
X170683214Y-131738095D01*
X170721309Y-131814285D01*
X170721309Y-131890476D01*
X170683214Y-132004761D01*
X170226071Y-132461904D01*
X170721309Y-132461904D01*
X171064166Y-132385714D02*
X171102261Y-132423809D01*
X171064166Y-132461904D01*
X171026071Y-132423809D01*
X171064166Y-132385714D01*
X171064166Y-132461904D01*
X171597500Y-131661904D02*
X171673690Y-131661904D01*
X171749880Y-131700000D01*
X171787976Y-131738095D01*
X171826071Y-131814285D01*
X171864166Y-131966666D01*
X171864166Y-132157142D01*
X171826071Y-132309523D01*
X171787976Y-132385714D01*
X171749880Y-132423809D01*
X171673690Y-132461904D01*
X171597500Y-132461904D01*
X171521309Y-132423809D01*
X171483214Y-132385714D01*
X171445119Y-132309523D01*
X171407023Y-132157142D01*
X171407023Y-131966666D01*
X171445119Y-131814285D01*
X171483214Y-131738095D01*
X171521309Y-131700000D01*
X171597500Y-131661904D01*
%TO.C,J8*%
X175666666Y-90872380D02*
X175666666Y-91586666D01*
X175619047Y-91729523D01*
X175523809Y-91824761D01*
X175380952Y-91872380D01*
X175285714Y-91872380D01*
X176285714Y-91300952D02*
X176190476Y-91253333D01*
X176142857Y-91205714D01*
X176095238Y-91110476D01*
X176095238Y-91062857D01*
X176142857Y-90967619D01*
X176190476Y-90920000D01*
X176285714Y-90872380D01*
X176476190Y-90872380D01*
X176571428Y-90920000D01*
X176619047Y-90967619D01*
X176666666Y-91062857D01*
X176666666Y-91110476D01*
X176619047Y-91205714D01*
X176571428Y-91253333D01*
X176476190Y-91300952D01*
X176285714Y-91300952D01*
X176190476Y-91348571D01*
X176142857Y-91396190D01*
X176095238Y-91491428D01*
X176095238Y-91681904D01*
X176142857Y-91777142D01*
X176190476Y-91824761D01*
X176285714Y-91872380D01*
X176476190Y-91872380D01*
X176571428Y-91824761D01*
X176619047Y-91777142D01*
X176666666Y-91681904D01*
X176666666Y-91491428D01*
X176619047Y-91396190D01*
X176571428Y-91348571D01*
X176476190Y-91300952D01*
D12*
%TO.C,U1*%
X164524523Y-107747619D02*
X165552619Y-107747619D01*
X165673571Y-107687142D01*
X165734047Y-107626666D01*
X165794523Y-107505714D01*
X165794523Y-107263809D01*
X165734047Y-107142857D01*
X165673571Y-107082380D01*
X165552619Y-107021904D01*
X164524523Y-107021904D01*
X165794523Y-105751904D02*
X165794523Y-106477619D01*
X165794523Y-106114761D02*
X164524523Y-106114761D01*
X164705952Y-106235714D01*
X164826904Y-106356666D01*
X164887380Y-106477619D01*
D10*
X182181904Y-104022857D02*
X181381904Y-104022857D01*
X181953333Y-103756190D01*
X181381904Y-103489523D01*
X182181904Y-103489523D01*
X182181904Y-103108571D02*
X181381904Y-103108571D01*
X182105714Y-102270476D02*
X182143809Y-102308571D01*
X182181904Y-102422857D01*
X182181904Y-102499047D01*
X182143809Y-102613333D01*
X182067619Y-102689523D01*
X181991428Y-102727619D01*
X181839047Y-102765714D01*
X181724761Y-102765714D01*
X181572380Y-102727619D01*
X181496190Y-102689523D01*
X181420000Y-102613333D01*
X181381904Y-102499047D01*
X181381904Y-102422857D01*
X181420000Y-102308571D01*
X181458095Y-102270476D01*
X182181904Y-101470476D02*
X181800952Y-101737142D01*
X182181904Y-101927619D02*
X181381904Y-101927619D01*
X181381904Y-101622857D01*
X181420000Y-101546666D01*
X181458095Y-101508571D01*
X181534285Y-101470476D01*
X181648571Y-101470476D01*
X181724761Y-101508571D01*
X181762857Y-101546666D01*
X181800952Y-101622857D01*
X181800952Y-101927619D01*
X181381904Y-100975238D02*
X181381904Y-100822857D01*
X181420000Y-100746666D01*
X181496190Y-100670476D01*
X181648571Y-100632380D01*
X181915238Y-100632380D01*
X182067619Y-100670476D01*
X182143809Y-100746666D01*
X182181904Y-100822857D01*
X182181904Y-100975238D01*
X182143809Y-101051428D01*
X182067619Y-101127619D01*
X181915238Y-101165714D01*
X181648571Y-101165714D01*
X181496190Y-101127619D01*
X181420000Y-101051428D01*
X181381904Y-100975238D01*
X182143809Y-99718095D02*
X182181904Y-99603809D01*
X182181904Y-99413333D01*
X182143809Y-99337142D01*
X182105714Y-99299047D01*
X182029523Y-99260952D01*
X181953333Y-99260952D01*
X181877142Y-99299047D01*
X181839047Y-99337142D01*
X181800952Y-99413333D01*
X181762857Y-99565714D01*
X181724761Y-99641904D01*
X181686666Y-99680000D01*
X181610476Y-99718095D01*
X181534285Y-99718095D01*
X181458095Y-99680000D01*
X181420000Y-99641904D01*
X181381904Y-99565714D01*
X181381904Y-99375238D01*
X181420000Y-99260952D01*
X182181904Y-98918095D02*
X181381904Y-98918095D01*
X181381904Y-98727619D01*
X181420000Y-98613333D01*
X181496190Y-98537142D01*
X181572380Y-98499047D01*
X181724761Y-98460952D01*
X181839047Y-98460952D01*
X181991428Y-98499047D01*
X182067619Y-98537142D01*
X182143809Y-98613333D01*
X182181904Y-98727619D01*
X182181904Y-98918095D01*
X182105714Y-97051428D02*
X182143809Y-97089523D01*
X182181904Y-97203809D01*
X182181904Y-97280000D01*
X182143809Y-97394285D01*
X182067619Y-97470476D01*
X181991428Y-97508571D01*
X181839047Y-97546666D01*
X181724761Y-97546666D01*
X181572380Y-97508571D01*
X181496190Y-97470476D01*
X181420000Y-97394285D01*
X181381904Y-97280000D01*
X181381904Y-97203809D01*
X181420000Y-97089523D01*
X181458095Y-97051428D01*
X181953333Y-96746666D02*
X181953333Y-96365714D01*
X182181904Y-96822857D02*
X181381904Y-96556190D01*
X182181904Y-96289523D01*
X182181904Y-95565714D02*
X181800952Y-95832380D01*
X182181904Y-96022857D02*
X181381904Y-96022857D01*
X181381904Y-95718095D01*
X181420000Y-95641904D01*
X181458095Y-95603809D01*
X181534285Y-95565714D01*
X181648571Y-95565714D01*
X181724761Y-95603809D01*
X181762857Y-95641904D01*
X181800952Y-95718095D01*
X181800952Y-96022857D01*
X182181904Y-95222857D02*
X181381904Y-95222857D01*
X181381904Y-95032380D01*
X181420000Y-94918095D01*
X181496190Y-94841904D01*
X181572380Y-94803809D01*
X181724761Y-94765714D01*
X181839047Y-94765714D01*
X181991428Y-94803809D01*
X182067619Y-94841904D01*
X182143809Y-94918095D01*
X182181904Y-95032380D01*
X182181904Y-95222857D01*
X182143809Y-93851428D02*
X182181904Y-93737142D01*
X182181904Y-93546666D01*
X182143809Y-93470476D01*
X182105714Y-93432380D01*
X182029523Y-93394285D01*
X181953333Y-93394285D01*
X181877142Y-93432380D01*
X181839047Y-93470476D01*
X181800952Y-93546666D01*
X181762857Y-93699047D01*
X181724761Y-93775238D01*
X181686666Y-93813333D01*
X181610476Y-93851428D01*
X181534285Y-93851428D01*
X181458095Y-93813333D01*
X181420000Y-93775238D01*
X181381904Y-93699047D01*
X181381904Y-93508571D01*
X181420000Y-93394285D01*
X182181904Y-92670476D02*
X182181904Y-93051428D01*
X181381904Y-93051428D01*
X181381904Y-92251428D02*
X181381904Y-92099047D01*
X181420000Y-92022857D01*
X181496190Y-91946666D01*
X181648571Y-91908571D01*
X181915238Y-91908571D01*
X182067619Y-91946666D01*
X182143809Y-92022857D01*
X182181904Y-92099047D01*
X182181904Y-92251428D01*
X182143809Y-92327619D01*
X182067619Y-92403809D01*
X181915238Y-92441904D01*
X181648571Y-92441904D01*
X181496190Y-92403809D01*
X181420000Y-92327619D01*
X181381904Y-92251428D01*
X181381904Y-91680000D02*
X181381904Y-91222857D01*
X182181904Y-91451428D02*
X181381904Y-91451428D01*
%TO.C,R9*%
X165583333Y-102202380D02*
X165250000Y-101726190D01*
X165011904Y-102202380D02*
X165011904Y-101202380D01*
X165392857Y-101202380D01*
X165488095Y-101250000D01*
X165535714Y-101297619D01*
X165583333Y-101392857D01*
X165583333Y-101535714D01*
X165535714Y-101630952D01*
X165488095Y-101678571D01*
X165392857Y-101726190D01*
X165011904Y-101726190D01*
X166059523Y-102202380D02*
X166250000Y-102202380D01*
X166345238Y-102154761D01*
X166392857Y-102107142D01*
X166488095Y-101964285D01*
X166535714Y-101773809D01*
X166535714Y-101392857D01*
X166488095Y-101297619D01*
X166440476Y-101250000D01*
X166345238Y-101202380D01*
X166154761Y-101202380D01*
X166059523Y-101250000D01*
X166011904Y-101297619D01*
X165964285Y-101392857D01*
X165964285Y-101630952D01*
X166011904Y-101726190D01*
X166059523Y-101773809D01*
X166154761Y-101821428D01*
X166345238Y-101821428D01*
X166440476Y-101773809D01*
X166488095Y-101726190D01*
X166535714Y-101630952D01*
%TO.C,J5*%
X171047619Y-113666666D02*
X170333333Y-113666666D01*
X170190476Y-113619047D01*
X170095238Y-113523809D01*
X170047619Y-113380952D01*
X170047619Y-113285714D01*
X171047619Y-114619047D02*
X171047619Y-114142857D01*
X170571428Y-114095238D01*
X170619047Y-114142857D01*
X170666666Y-114238095D01*
X170666666Y-114476190D01*
X170619047Y-114571428D01*
X170571428Y-114619047D01*
X170476190Y-114666666D01*
X170238095Y-114666666D01*
X170142857Y-114619047D01*
X170095238Y-114571428D01*
X170047619Y-114476190D01*
X170047619Y-114238095D01*
X170095238Y-114142857D01*
X170142857Y-114095238D01*
%TO.C,R7*%
X102333333Y-137802380D02*
X102000000Y-137326190D01*
X101761904Y-137802380D02*
X101761904Y-136802380D01*
X102142857Y-136802380D01*
X102238095Y-136850000D01*
X102285714Y-136897619D01*
X102333333Y-136992857D01*
X102333333Y-137135714D01*
X102285714Y-137230952D01*
X102238095Y-137278571D01*
X102142857Y-137326190D01*
X101761904Y-137326190D01*
X102666666Y-136802380D02*
X103333333Y-136802380D01*
X102904761Y-137802380D01*
%TO.C,R6*%
X135952380Y-130266666D02*
X135476190Y-130600000D01*
X135952380Y-130838095D02*
X134952380Y-130838095D01*
X134952380Y-130457142D01*
X135000000Y-130361904D01*
X135047619Y-130314285D01*
X135142857Y-130266666D01*
X135285714Y-130266666D01*
X135380952Y-130314285D01*
X135428571Y-130361904D01*
X135476190Y-130457142D01*
X135476190Y-130838095D01*
X134952380Y-129409523D02*
X134952380Y-129600000D01*
X135000000Y-129695238D01*
X135047619Y-129742857D01*
X135190476Y-129838095D01*
X135380952Y-129885714D01*
X135761904Y-129885714D01*
X135857142Y-129838095D01*
X135904761Y-129790476D01*
X135952380Y-129695238D01*
X135952380Y-129504761D01*
X135904761Y-129409523D01*
X135857142Y-129361904D01*
X135761904Y-129314285D01*
X135523809Y-129314285D01*
X135428571Y-129361904D01*
X135380952Y-129409523D01*
X135333333Y-129504761D01*
X135333333Y-129695238D01*
X135380952Y-129790476D01*
X135428571Y-129838095D01*
X135523809Y-129885714D01*
%TO.C,R5*%
X106552380Y-105066666D02*
X106076190Y-105400000D01*
X106552380Y-105638095D02*
X105552380Y-105638095D01*
X105552380Y-105257142D01*
X105600000Y-105161904D01*
X105647619Y-105114285D01*
X105742857Y-105066666D01*
X105885714Y-105066666D01*
X105980952Y-105114285D01*
X106028571Y-105161904D01*
X106076190Y-105257142D01*
X106076190Y-105638095D01*
X105552380Y-104161904D02*
X105552380Y-104638095D01*
X106028571Y-104685714D01*
X105980952Y-104638095D01*
X105933333Y-104542857D01*
X105933333Y-104304761D01*
X105980952Y-104209523D01*
X106028571Y-104161904D01*
X106123809Y-104114285D01*
X106361904Y-104114285D01*
X106457142Y-104161904D01*
X106504761Y-104209523D01*
X106552380Y-104304761D01*
X106552380Y-104542857D01*
X106504761Y-104638095D01*
X106457142Y-104685714D01*
%TO.C,R4*%
X123282380Y-130241666D02*
X122806190Y-130575000D01*
X123282380Y-130813095D02*
X122282380Y-130813095D01*
X122282380Y-130432142D01*
X122330000Y-130336904D01*
X122377619Y-130289285D01*
X122472857Y-130241666D01*
X122615714Y-130241666D01*
X122710952Y-130289285D01*
X122758571Y-130336904D01*
X122806190Y-130432142D01*
X122806190Y-130813095D01*
X122615714Y-129384523D02*
X123282380Y-129384523D01*
X122234761Y-129622619D02*
X122949047Y-129860714D01*
X122949047Y-129241666D01*
%TO.C,R3*%
X103752380Y-104866666D02*
X103276190Y-105200000D01*
X103752380Y-105438095D02*
X102752380Y-105438095D01*
X102752380Y-105057142D01*
X102800000Y-104961904D01*
X102847619Y-104914285D01*
X102942857Y-104866666D01*
X103085714Y-104866666D01*
X103180952Y-104914285D01*
X103228571Y-104961904D01*
X103276190Y-105057142D01*
X103276190Y-105438095D01*
X102752380Y-104533333D02*
X102752380Y-103914285D01*
X103133333Y-104247619D01*
X103133333Y-104104761D01*
X103180952Y-104009523D01*
X103228571Y-103961904D01*
X103323809Y-103914285D01*
X103561904Y-103914285D01*
X103657142Y-103961904D01*
X103704761Y-104009523D01*
X103752380Y-104104761D01*
X103752380Y-104390476D01*
X103704761Y-104485714D01*
X103657142Y-104533333D01*
%TO.C,R1*%
X158633333Y-127152380D02*
X158300000Y-126676190D01*
X158061904Y-127152380D02*
X158061904Y-126152380D01*
X158442857Y-126152380D01*
X158538095Y-126200000D01*
X158585714Y-126247619D01*
X158633333Y-126342857D01*
X158633333Y-126485714D01*
X158585714Y-126580952D01*
X158538095Y-126628571D01*
X158442857Y-126676190D01*
X158061904Y-126676190D01*
X159585714Y-127152380D02*
X159014285Y-127152380D01*
X159300000Y-127152380D02*
X159300000Y-126152380D01*
X159204761Y-126295238D01*
X159109523Y-126390476D01*
X159014285Y-126438095D01*
%TO.C,R2*%
X154583333Y-102202380D02*
X154250000Y-101726190D01*
X154011904Y-102202380D02*
X154011904Y-101202380D01*
X154392857Y-101202380D01*
X154488095Y-101250000D01*
X154535714Y-101297619D01*
X154583333Y-101392857D01*
X154583333Y-101535714D01*
X154535714Y-101630952D01*
X154488095Y-101678571D01*
X154392857Y-101726190D01*
X154011904Y-101726190D01*
X154964285Y-101297619D02*
X155011904Y-101250000D01*
X155107142Y-101202380D01*
X155345238Y-101202380D01*
X155440476Y-101250000D01*
X155488095Y-101297619D01*
X155535714Y-101392857D01*
X155535714Y-101488095D01*
X155488095Y-101630952D01*
X154916666Y-102202380D01*
X155535714Y-102202380D01*
%TO.C,C1*%
X159083333Y-119957142D02*
X159035714Y-120004761D01*
X158892857Y-120052380D01*
X158797619Y-120052380D01*
X158654761Y-120004761D01*
X158559523Y-119909523D01*
X158511904Y-119814285D01*
X158464285Y-119623809D01*
X158464285Y-119480952D01*
X158511904Y-119290476D01*
X158559523Y-119195238D01*
X158654761Y-119100000D01*
X158797619Y-119052380D01*
X158892857Y-119052380D01*
X159035714Y-119100000D01*
X159083333Y-119147619D01*
X160035714Y-120052380D02*
X159464285Y-120052380D01*
X159750000Y-120052380D02*
X159750000Y-119052380D01*
X159654761Y-119195238D01*
X159559523Y-119290476D01*
X159464285Y-119338095D01*
D12*
%TO.C,A1*%
X131021666Y-110137142D02*
X131021666Y-109532380D01*
X131384523Y-110258095D02*
X130114523Y-109834761D01*
X131384523Y-109411428D01*
X131384523Y-108322857D02*
X131384523Y-109048571D01*
X131384523Y-108685714D02*
X130114523Y-108685714D01*
X130295952Y-108806666D01*
X130416904Y-108927619D01*
X130477380Y-109048571D01*
D10*
%TO.C,J3*%
X101006666Y-94952380D02*
X101006666Y-95666666D01*
X100959047Y-95809523D01*
X100863809Y-95904761D01*
X100720952Y-95952380D01*
X100625714Y-95952380D01*
X101387619Y-94952380D02*
X102006666Y-94952380D01*
X101673333Y-95333333D01*
X101816190Y-95333333D01*
X101911428Y-95380952D01*
X101959047Y-95428571D01*
X102006666Y-95523809D01*
X102006666Y-95761904D01*
X101959047Y-95857142D01*
X101911428Y-95904761D01*
X101816190Y-95952380D01*
X101530476Y-95952380D01*
X101435238Y-95904761D01*
X101387619Y-95857142D01*
%TO.C,SW2*%
X150595238Y-129166666D02*
X150547619Y-129309523D01*
X150547619Y-129547619D01*
X150595238Y-129642857D01*
X150642857Y-129690476D01*
X150738095Y-129738095D01*
X150833333Y-129738095D01*
X150928571Y-129690476D01*
X150976190Y-129642857D01*
X151023809Y-129547619D01*
X151071428Y-129357142D01*
X151119047Y-129261904D01*
X151166666Y-129214285D01*
X151261904Y-129166666D01*
X151357142Y-129166666D01*
X151452380Y-129214285D01*
X151500000Y-129261904D01*
X151547619Y-129357142D01*
X151547619Y-129595238D01*
X151500000Y-129738095D01*
X151547619Y-130071428D02*
X150547619Y-130309523D01*
X151261904Y-130500000D01*
X150547619Y-130690476D01*
X151547619Y-130928571D01*
X151452380Y-131261904D02*
X151500000Y-131309523D01*
X151547619Y-131404761D01*
X151547619Y-131642857D01*
X151500000Y-131738095D01*
X151452380Y-131785714D01*
X151357142Y-131833333D01*
X151261904Y-131833333D01*
X151119047Y-131785714D01*
X150547619Y-131214285D01*
X150547619Y-131833333D01*
%TO.C,J6*%
X153366666Y-127452380D02*
X153366666Y-128166666D01*
X153319047Y-128309523D01*
X153223809Y-128404761D01*
X153080952Y-128452380D01*
X152985714Y-128452380D01*
X154271428Y-127452380D02*
X154080952Y-127452380D01*
X153985714Y-127500000D01*
X153938095Y-127547619D01*
X153842857Y-127690476D01*
X153795238Y-127880952D01*
X153795238Y-128261904D01*
X153842857Y-128357142D01*
X153890476Y-128404761D01*
X153985714Y-128452380D01*
X154176190Y-128452380D01*
X154271428Y-128404761D01*
X154319047Y-128357142D01*
X154366666Y-128261904D01*
X154366666Y-128023809D01*
X154319047Y-127928571D01*
X154271428Y-127880952D01*
X154176190Y-127833333D01*
X153985714Y-127833333D01*
X153890476Y-127880952D01*
X153842857Y-127928571D01*
X153795238Y-128023809D01*
%TO.C,J7*%
X174752380Y-111933333D02*
X175466666Y-111933333D01*
X175609523Y-111980952D01*
X175704761Y-112076190D01*
X175752380Y-112219047D01*
X175752380Y-112314285D01*
X174752380Y-111552380D02*
X174752380Y-110885714D01*
X175752380Y-111314285D01*
D12*
%TO.C,J2*%
X154736666Y-97499523D02*
X154736666Y-98406666D01*
X154676190Y-98588095D01*
X154555238Y-98709047D01*
X154373809Y-98769523D01*
X154252857Y-98769523D01*
X155280952Y-97620476D02*
X155341428Y-97560000D01*
X155462380Y-97499523D01*
X155764761Y-97499523D01*
X155885714Y-97560000D01*
X155946190Y-97620476D01*
X156006666Y-97741428D01*
X156006666Y-97862380D01*
X155946190Y-98043809D01*
X155220476Y-98769523D01*
X156006666Y-98769523D01*
D10*
%TO.C,S1*%
X157904761Y-107261904D02*
X157952380Y-107119047D01*
X157952380Y-106880952D01*
X157904761Y-106785714D01*
X157857142Y-106738095D01*
X157761904Y-106690476D01*
X157666666Y-106690476D01*
X157571428Y-106738095D01*
X157523809Y-106785714D01*
X157476190Y-106880952D01*
X157428571Y-107071428D01*
X157380952Y-107166666D01*
X157333333Y-107214285D01*
X157238095Y-107261904D01*
X157142857Y-107261904D01*
X157047619Y-107214285D01*
X157000000Y-107166666D01*
X156952380Y-107071428D01*
X156952380Y-106833333D01*
X157000000Y-106690476D01*
X157952380Y-105738095D02*
X157952380Y-106309523D01*
X157952380Y-106023809D02*
X156952380Y-106023809D01*
X157095238Y-106119047D01*
X157190476Y-106214285D01*
X157238095Y-106309523D01*
%TO.C,J17*%
X158222380Y-145694523D02*
X158936666Y-145694523D01*
X159079523Y-145742142D01*
X159174761Y-145837380D01*
X159222380Y-145980238D01*
X159222380Y-146075476D01*
X159222380Y-144694523D02*
X159222380Y-145265952D01*
X159222380Y-144980238D02*
X158222380Y-144980238D01*
X158365238Y-145075476D01*
X158460476Y-145170714D01*
X158508095Y-145265952D01*
X158222380Y-144361190D02*
X158222380Y-143694523D01*
X159222380Y-144123095D01*
D12*
%TO.C,J1*%
X104714523Y-119168333D02*
X105621666Y-119168333D01*
X105803095Y-119228809D01*
X105924047Y-119349761D01*
X105984523Y-119531190D01*
X105984523Y-119652142D01*
X105984523Y-117898333D02*
X105984523Y-118624047D01*
X105984523Y-118261190D02*
X104714523Y-118261190D01*
X104895952Y-118382142D01*
X105016904Y-118503095D01*
X105077380Y-118624047D01*
D10*
%TO.C,J4*%
X166666666Y-119452380D02*
X166666666Y-120166666D01*
X166619047Y-120309523D01*
X166523809Y-120404761D01*
X166380952Y-120452380D01*
X166285714Y-120452380D01*
X167571428Y-119785714D02*
X167571428Y-120452380D01*
X167333333Y-119404761D02*
X167095238Y-120119047D01*
X167714285Y-120119047D01*
D13*
%TO.C,J8*%
X177330000Y-95020000D02*
X177330000Y-102700000D01*
X174670000Y-93750000D02*
X174670000Y-92420000D01*
X174670000Y-102700000D02*
X177330000Y-102700000D01*
X174670000Y-95020000D02*
X177330000Y-95020000D01*
X174670000Y-92420000D02*
X176000000Y-92420000D01*
X174670000Y-95020000D02*
X174670000Y-102700000D01*
D14*
%TO.C,U1*%
X163610000Y-108390000D02*
X165220000Y-108390000D01*
D13*
X178120000Y-105280000D02*
X178120000Y-90280000D01*
D14*
X184610000Y-108390000D02*
X184610000Y-87390000D01*
D13*
X184320000Y-105280000D02*
X178120000Y-105280000D01*
X178120000Y-90280000D02*
X184220000Y-90280000D01*
D14*
X163610000Y-87390000D02*
X163610000Y-108390000D01*
D13*
%TO.C,R9*%
X172270000Y-105370000D02*
X172270000Y-105040000D01*
X165730000Y-102630000D02*
X172270000Y-102630000D01*
X165730000Y-105370000D02*
X172270000Y-105370000D01*
X165730000Y-105040000D02*
X165730000Y-105370000D01*
X165730000Y-102960000D02*
X165730000Y-102630000D01*
X172270000Y-102630000D02*
X172270000Y-102960000D01*
%TO.C,J5*%
X174500000Y-110010000D02*
X174500000Y-118480000D01*
X174500000Y-110010000D02*
X164300000Y-110010000D01*
X174500000Y-118480000D02*
X164300000Y-118480000D01*
X164300000Y-118480000D02*
X164300000Y-110010000D01*
%TO.C,R7*%
X104130000Y-139750000D02*
X104060000Y-139750000D01*
X106870000Y-139750000D02*
G75*
G03*
X106870000Y-139750000I-1370000J0D01*
G01*
%TO.C,R6*%
X133200000Y-129930000D02*
X133200000Y-129860000D01*
X134570000Y-131300000D02*
G75*
G03*
X134570000Y-131300000I-1370000J0D01*
G01*
%TO.C,R5*%
X106500000Y-101270000D02*
X106500000Y-101340000D01*
X107870000Y-99900000D02*
G75*
G03*
X107870000Y-99900000I-1370000J0D01*
G01*
%TO.C,R4*%
X125200000Y-129975000D02*
X125200000Y-129905000D01*
X126570000Y-131345000D02*
G75*
G03*
X126570000Y-131345000I-1370000J0D01*
G01*
%TO.C,R3*%
X103300000Y-101225000D02*
X103300000Y-101295000D01*
X104670000Y-99855000D02*
G75*
G03*
X104670000Y-99855000I-1370000J0D01*
G01*
%TO.C,R1*%
X159630000Y-129000000D02*
X159560000Y-129000000D01*
X162370000Y-129000000D02*
G75*
G03*
X162370000Y-129000000I-1370000J0D01*
G01*
%TO.C,R2*%
X157370000Y-104000000D02*
X157440000Y-104000000D01*
X157370000Y-104000000D02*
G75*
G03*
X157370000Y-104000000I-1370000J0D01*
G01*
%TO.C,C1*%
X161251000Y-125040000D02*
X161251000Y-126548000D01*
X160731000Y-125040000D02*
X160731000Y-126876000D01*
X160331000Y-120953000D02*
X160331000Y-122960000D01*
X161891000Y-122110000D02*
X161891000Y-125890000D01*
X160051000Y-120869000D02*
X160051000Y-122960000D01*
X159330000Y-120770000D02*
X159330000Y-127230000D01*
X160131000Y-125040000D02*
X160131000Y-127110000D01*
X160251000Y-125040000D02*
X160251000Y-127074000D01*
X159290000Y-120770000D02*
X159290000Y-127230000D01*
X161931000Y-122166000D02*
X161931000Y-125834000D01*
X161811000Y-122005000D02*
X161811000Y-125995000D01*
X159810000Y-125040000D02*
X159810000Y-127182000D01*
X160851000Y-125040000D02*
X160851000Y-126812000D01*
X160771000Y-121144000D02*
X160771000Y-122960000D01*
X161531000Y-121695000D02*
X161531000Y-122960000D01*
X159810000Y-120818000D02*
X159810000Y-122960000D01*
X162411000Y-123198000D02*
X162411000Y-124802000D01*
X159370000Y-120772000D02*
X159370000Y-127228000D01*
X160891000Y-125040000D02*
X160891000Y-126790000D01*
X155749759Y-122161000D02*
X156379759Y-122161000D01*
X160971000Y-125040000D02*
X160971000Y-126742000D01*
X162491000Y-123598000D02*
X162491000Y-124402000D01*
X159890000Y-125040000D02*
X159890000Y-127167000D01*
X160491000Y-125040000D02*
X160491000Y-126986000D01*
X160851000Y-121188000D02*
X160851000Y-122960000D01*
X161011000Y-125040000D02*
X161011000Y-126716000D01*
X159770000Y-125040000D02*
X159770000Y-127189000D01*
X162131000Y-122491000D02*
X162131000Y-125509000D01*
X161611000Y-121776000D02*
X161611000Y-126224000D01*
X160411000Y-125040000D02*
X160411000Y-127018000D01*
X161331000Y-121516000D02*
X161331000Y-122960000D01*
X162051000Y-122350000D02*
X162051000Y-125650000D01*
X159850000Y-125040000D02*
X159850000Y-127175000D01*
X159530000Y-125040000D02*
X159530000Y-127218000D01*
X161091000Y-121336000D02*
X161091000Y-122960000D01*
X162171000Y-122568000D02*
X162171000Y-125432000D01*
X159690000Y-120799000D02*
X159690000Y-122960000D01*
X160811000Y-121166000D02*
X160811000Y-122960000D01*
X160051000Y-125040000D02*
X160051000Y-127131000D01*
X159490000Y-120778000D02*
X159490000Y-122960000D01*
X161411000Y-121584000D02*
X161411000Y-122960000D01*
X161051000Y-121310000D02*
X161051000Y-122960000D01*
X161971000Y-122224000D02*
X161971000Y-125776000D01*
X161131000Y-125040000D02*
X161131000Y-126636000D01*
X162451000Y-123367000D02*
X162451000Y-124633000D01*
X161531000Y-125040000D02*
X161531000Y-126305000D01*
X161211000Y-125040000D02*
X161211000Y-126578000D01*
X159570000Y-125040000D02*
X159570000Y-127215000D01*
X160531000Y-121030000D02*
X160531000Y-122960000D01*
X159570000Y-120785000D02*
X159570000Y-122960000D01*
X160891000Y-121210000D02*
X160891000Y-122960000D01*
X160571000Y-121048000D02*
X160571000Y-122960000D01*
X160931000Y-125040000D02*
X160931000Y-126766000D01*
X161691000Y-121863000D02*
X161691000Y-126137000D01*
X161171000Y-121393000D02*
X161171000Y-122960000D01*
X160011000Y-125040000D02*
X160011000Y-127141000D01*
X160531000Y-125040000D02*
X160531000Y-126970000D01*
X160651000Y-125040000D02*
X160651000Y-126916000D01*
X161771000Y-121956000D02*
X161771000Y-126044000D01*
X161731000Y-121908000D02*
X161731000Y-126092000D01*
X160571000Y-125040000D02*
X160571000Y-126952000D01*
X161491000Y-121657000D02*
X161491000Y-122960000D01*
X160211000Y-125040000D02*
X160211000Y-127086000D01*
X162211000Y-122650000D02*
X162211000Y-125350000D01*
X159971000Y-120850000D02*
X159971000Y-122960000D01*
X160611000Y-121066000D02*
X160611000Y-122960000D01*
X161491000Y-125040000D02*
X161491000Y-126343000D01*
X160411000Y-120982000D02*
X160411000Y-122960000D01*
X160771000Y-125040000D02*
X160771000Y-126856000D01*
X159730000Y-125040000D02*
X159730000Y-127195000D01*
X160131000Y-120890000D02*
X160131000Y-122960000D01*
X161171000Y-125040000D02*
X161171000Y-126607000D01*
X161411000Y-125040000D02*
X161411000Y-126416000D01*
X160371000Y-120967000D02*
X160371000Y-122960000D01*
X159971000Y-125040000D02*
X159971000Y-127150000D01*
X156064759Y-121846000D02*
X156064759Y-122476000D01*
X160811000Y-125040000D02*
X160811000Y-126834000D01*
X162011000Y-122286000D02*
X162011000Y-125714000D01*
X161451000Y-121620000D02*
X161451000Y-122960000D01*
X162091000Y-122419000D02*
X162091000Y-125581000D01*
X159850000Y-120825000D02*
X159850000Y-122960000D01*
X162331000Y-122941000D02*
X162331000Y-125059000D01*
X162371000Y-123060000D02*
X162371000Y-124940000D01*
X159690000Y-125040000D02*
X159690000Y-127201000D01*
X160691000Y-121104000D02*
X160691000Y-122960000D01*
X160291000Y-125040000D02*
X160291000Y-127061000D01*
X159770000Y-120811000D02*
X159770000Y-122960000D01*
X159930000Y-120841000D02*
X159930000Y-122960000D01*
X160171000Y-120902000D02*
X160171000Y-122960000D01*
X159250000Y-120770000D02*
X159250000Y-127230000D01*
X160091000Y-125040000D02*
X160091000Y-127121000D01*
X160931000Y-121234000D02*
X160931000Y-122960000D01*
X160091000Y-120879000D02*
X160091000Y-122960000D01*
X160371000Y-125040000D02*
X160371000Y-127033000D01*
X160011000Y-120859000D02*
X160011000Y-122960000D01*
X159530000Y-120782000D02*
X159530000Y-122960000D01*
X161371000Y-121550000D02*
X161371000Y-122960000D01*
X161571000Y-121735000D02*
X161571000Y-126265000D01*
X160691000Y-125040000D02*
X160691000Y-126896000D01*
X161211000Y-121422000D02*
X161211000Y-122960000D01*
X159490000Y-125040000D02*
X159490000Y-127222000D01*
X160211000Y-120914000D02*
X160211000Y-122960000D01*
X160171000Y-125040000D02*
X160171000Y-127098000D01*
X162291000Y-122835000D02*
X162291000Y-125165000D01*
X161131000Y-121364000D02*
X161131000Y-122960000D01*
X161291000Y-125040000D02*
X161291000Y-126516000D01*
X160331000Y-125040000D02*
X160331000Y-127047000D01*
X161651000Y-121818000D02*
X161651000Y-126182000D01*
X161851000Y-122056000D02*
X161851000Y-125944000D01*
X162251000Y-122738000D02*
X162251000Y-125262000D01*
X159650000Y-125040000D02*
X159650000Y-127206000D01*
X161451000Y-125040000D02*
X161451000Y-126380000D01*
X160971000Y-121258000D02*
X160971000Y-122960000D01*
X159890000Y-120833000D02*
X159890000Y-122960000D01*
X160611000Y-125040000D02*
X160611000Y-126934000D01*
X159410000Y-120773000D02*
X159410000Y-127227000D01*
X161331000Y-125040000D02*
X161331000Y-126484000D01*
X161051000Y-125040000D02*
X161051000Y-126690000D01*
X161251000Y-121452000D02*
X161251000Y-122960000D01*
X159610000Y-125040000D02*
X159610000Y-127211000D01*
X160731000Y-121124000D02*
X160731000Y-122960000D01*
X161091000Y-125040000D02*
X161091000Y-126664000D01*
X159650000Y-120794000D02*
X159650000Y-122960000D01*
X161291000Y-121484000D02*
X161291000Y-122960000D01*
X160491000Y-121014000D02*
X160491000Y-122960000D01*
X160251000Y-120926000D02*
X160251000Y-122960000D01*
X160291000Y-120939000D02*
X160291000Y-122960000D01*
X159610000Y-120789000D02*
X159610000Y-122960000D01*
X160451000Y-120998000D02*
X160451000Y-122960000D01*
X160451000Y-125040000D02*
X160451000Y-127002000D01*
X159730000Y-120805000D02*
X159730000Y-122960000D01*
X160651000Y-121084000D02*
X160651000Y-122960000D01*
X159930000Y-125040000D02*
X159930000Y-127159000D01*
X161371000Y-125040000D02*
X161371000Y-126450000D01*
X161011000Y-121284000D02*
X161011000Y-122960000D01*
X159450000Y-120776000D02*
X159450000Y-127224000D01*
X162520000Y-124000000D02*
G75*
G03*
X162520000Y-124000000I-3270000J0D01*
G01*
D15*
%TO.C,A1*%
X113030000Y-118120000D02*
X148590000Y-118120000D01*
X148590000Y-100340000D02*
X113030000Y-100340000D01*
D13*
%TO.C,J3*%
X102300000Y-97810000D02*
X132780000Y-97810000D01*
X132780000Y-97810000D02*
X132780000Y-90190000D01*
X102300000Y-90190000D02*
X132780000Y-90190000D01*
X102300000Y-96540000D02*
X132780000Y-96540000D01*
X102300000Y-90190000D02*
X102300000Y-97810000D01*
%TO.C,J6*%
X154240000Y-127310000D02*
X123760000Y-127310000D01*
X123760000Y-119690000D02*
X123760000Y-127310000D01*
X154240000Y-120960000D02*
X123760000Y-120960000D01*
X154240000Y-119690000D02*
X123760000Y-119690000D01*
X154240000Y-127310000D02*
X154240000Y-119690000D01*
%TO.C,J7*%
X177460000Y-110460000D02*
X177460000Y-140940000D01*
X176190000Y-140940000D02*
X183810000Y-140940000D01*
X176190000Y-110460000D02*
X176190000Y-140940000D01*
X183810000Y-110460000D02*
X183810000Y-140940000D01*
X183810000Y-110460000D02*
X176190000Y-110460000D01*
D15*
%TO.C,J2*%
X161700000Y-96995000D02*
X134300000Y-96995000D01*
X134300000Y-96995000D02*
X134300000Y-88495000D01*
X134300000Y-88495000D02*
X161700000Y-88495000D01*
X161700000Y-88495000D02*
X161700000Y-96995000D01*
D13*
X155410000Y-91195000D02*
G75*
G03*
X150410000Y-91195000I-2500000J0D01*
G01*
X160410000Y-91195000D02*
G75*
G03*
X155410000Y-91195000I-2500000J0D01*
G01*
X140410000Y-91195000D02*
G75*
G03*
X135410000Y-91195000I-2500000J0D01*
G01*
X145410000Y-91195000D02*
G75*
G03*
X140410000Y-91195000I-2500000J0D01*
G01*
X150410000Y-91195000D02*
G75*
G03*
X145410000Y-91195000I-2500000J0D01*
G01*
%TO.C,S1*%
X154250000Y-109000000D02*
X154250000Y-113500000D01*
X156750000Y-114750000D02*
X158250000Y-114750000D01*
X160750000Y-113500000D02*
X160750000Y-109000000D01*
X158250000Y-107750000D02*
X156750000Y-107750000D01*
%TO.C,J17*%
X122770000Y-141940000D02*
X122770000Y-144600000D01*
X116120000Y-141542929D02*
X116120000Y-141940000D01*
X146120000Y-141542929D02*
X146120000Y-141940000D01*
X152770000Y-141940000D02*
X152770000Y-144600000D01*
X116880000Y-144600000D02*
X116880000Y-150600000D01*
X157770000Y-139230000D02*
X157770000Y-140500000D01*
X146120000Y-150600000D02*
X146120000Y-144600000D01*
X116880000Y-141542929D02*
X116880000Y-141940000D01*
X111880000Y-150600000D02*
X111120000Y-150600000D01*
X132770000Y-141940000D02*
X132770000Y-144600000D01*
X147770000Y-141940000D02*
X147770000Y-144600000D01*
X116120000Y-150600000D02*
X116120000Y-144600000D01*
X131880000Y-144600000D02*
X131880000Y-150600000D01*
X141880000Y-150600000D02*
X141120000Y-150600000D01*
X121880000Y-141542929D02*
X121880000Y-141940000D01*
X127770000Y-141940000D02*
X127770000Y-144600000D01*
X116880000Y-150600000D02*
X116120000Y-150600000D01*
X151120000Y-141542929D02*
X151120000Y-141940000D01*
X141120000Y-141542929D02*
X141120000Y-141940000D01*
X136880000Y-144600000D02*
X136880000Y-150600000D01*
X111880000Y-141542929D02*
X111880000Y-141940000D01*
X107630000Y-141940000D02*
X107630000Y-144600000D01*
X156880000Y-141610000D02*
X156880000Y-141940000D01*
X146880000Y-141542929D02*
X146880000Y-141940000D01*
X131120000Y-141542929D02*
X131120000Y-141940000D01*
X136880000Y-150600000D02*
X136120000Y-150600000D01*
X157830000Y-141940000D02*
X107630000Y-141940000D01*
X151120000Y-150600000D02*
X151120000Y-144600000D01*
X131120000Y-150600000D02*
X131120000Y-144600000D01*
X112770000Y-141940000D02*
X112770000Y-144600000D01*
X146880000Y-150600000D02*
X146120000Y-150600000D01*
X111120000Y-141542929D02*
X111120000Y-141940000D01*
X130230000Y-141940000D02*
X130230000Y-144600000D01*
X156120000Y-141610000D02*
X156120000Y-141940000D01*
X151880000Y-150600000D02*
X151120000Y-150600000D01*
X121120000Y-150600000D02*
X121120000Y-144600000D01*
X156220000Y-144600000D02*
X156220000Y-150600000D01*
X115230000Y-141940000D02*
X115230000Y-144600000D01*
X156500000Y-139230000D02*
X157770000Y-139230000D01*
X141880000Y-144600000D02*
X141880000Y-150600000D01*
X156460000Y-144600000D02*
X156460000Y-150600000D01*
X121880000Y-144600000D02*
X121880000Y-150600000D01*
X142770000Y-141940000D02*
X142770000Y-144600000D01*
X141120000Y-150600000D02*
X141120000Y-144600000D01*
X140230000Y-141940000D02*
X140230000Y-144600000D01*
X121880000Y-150600000D02*
X121120000Y-150600000D01*
X126120000Y-141542929D02*
X126120000Y-141940000D01*
X120230000Y-141940000D02*
X120230000Y-144600000D01*
X111880000Y-144600000D02*
X111880000Y-150600000D01*
X145230000Y-141940000D02*
X145230000Y-144600000D01*
X111120000Y-150600000D02*
X111120000Y-144600000D01*
X156120000Y-150600000D02*
X156120000Y-144600000D01*
X110230000Y-141940000D02*
X110230000Y-144600000D01*
X156820000Y-144600000D02*
X156820000Y-150600000D01*
X156580000Y-144600000D02*
X156580000Y-150600000D01*
X146880000Y-144600000D02*
X146880000Y-150600000D01*
X151880000Y-144600000D02*
X151880000Y-150600000D01*
X136880000Y-141542929D02*
X136880000Y-141940000D01*
X121120000Y-141542929D02*
X121120000Y-141940000D01*
X156340000Y-144600000D02*
X156340000Y-150600000D01*
X155230000Y-141940000D02*
X155230000Y-144600000D01*
X131880000Y-141542929D02*
X131880000Y-141940000D01*
X156700000Y-144600000D02*
X156700000Y-150600000D01*
X156880000Y-150600000D02*
X156120000Y-150600000D01*
X126880000Y-141542929D02*
X126880000Y-141940000D01*
X150230000Y-141940000D02*
X150230000Y-144600000D01*
X126120000Y-150600000D02*
X126120000Y-144600000D01*
X156880000Y-144600000D02*
X156880000Y-150600000D01*
X126880000Y-144600000D02*
X126880000Y-150600000D01*
X131880000Y-150600000D02*
X131120000Y-150600000D01*
X141880000Y-141542929D02*
X141880000Y-141940000D01*
X157830000Y-144600000D02*
X157830000Y-141940000D01*
X135230000Y-141940000D02*
X135230000Y-144600000D01*
X151880000Y-141542929D02*
X151880000Y-141940000D01*
X117770000Y-141940000D02*
X117770000Y-144600000D01*
X136120000Y-141542929D02*
X136120000Y-141940000D01*
X107630000Y-144600000D02*
X157830000Y-144600000D01*
X125230000Y-141940000D02*
X125230000Y-144600000D01*
X126880000Y-150600000D02*
X126120000Y-150600000D01*
X136120000Y-150600000D02*
X136120000Y-144600000D01*
X137770000Y-141940000D02*
X137770000Y-144600000D01*
D14*
%TO.C,J1*%
X104414000Y-135666000D02*
X104414000Y-120366000D01*
X122154000Y-135666000D02*
X104414000Y-135666000D01*
X118384000Y-119671000D02*
X118384000Y-119671000D01*
X118384000Y-119671000D02*
X118384000Y-119671000D01*
X118384000Y-119771000D02*
X118384000Y-119771000D01*
X122154000Y-120366000D02*
X122154000Y-135666000D01*
X104414000Y-120366000D02*
X122154000Y-120366000D01*
X118384000Y-119671000D02*
G75*
G03*
X118384000Y-119771000I0J-50000D01*
G01*
X118384000Y-119771000D02*
G75*
G03*
X118384000Y-119671000I0J50000D01*
G01*
X118384000Y-119671000D02*
G75*
G03*
X118384000Y-119771000I0J-50000D01*
G01*
D13*
%TO.C,J4*%
X169000000Y-127000000D02*
G75*
G03*
X169000000Y-127000000I-1000000J0D01*
G01*
X163500000Y-127000000D02*
G75*
G03*
X172500000Y-127000000I4500000J0D01*
G01*
X163500000Y-131500000D02*
X163500000Y-120500000D01*
X168000000Y-120500000D02*
X172500000Y-120500000D01*
X172500000Y-120500000D02*
X172500000Y-131500000D01*
X172500000Y-131500000D02*
X163500000Y-131500000D01*
X163500000Y-120500000D02*
X168000000Y-120500000D01*
%TD*%
G36*
X175942121Y-133020002D02*
G01*
X175988614Y-133073658D01*
X176000000Y-133126000D01*
X176000000Y-140874000D01*
X175979998Y-140942121D01*
X175926342Y-140988614D01*
X175874000Y-141000000D01*
X160126000Y-141000000D01*
X160057879Y-140979998D01*
X160011386Y-140926342D01*
X160000000Y-140874000D01*
X160000000Y-133126000D01*
X160020002Y-133057879D01*
X160073658Y-133011386D01*
X160126000Y-133000000D01*
X175874000Y-133000000D01*
X175942121Y-133020002D01*
G37*
M02*
