%TF.GenerationSoftware,KiCad,Pcbnew,(6.0.7)*%
%TF.CreationDate,2022-10-09T17:30:30-05:00*%
%TF.ProjectId,ScareBanger_PCB,53636172-6542-4616-9e67-65725f504342,rev?*%
%TF.SameCoordinates,Original*%
%TF.FileFunction,Soldermask,Bot*%
%TF.FilePolarity,Negative*%
%FSLAX46Y46*%
G04 Gerber Fmt 4.6, Leading zero omitted, Abs format (unit mm)*
G04 Created by KiCad (PCBNEW (6.0.7)) date 2022-10-09 17:30:30*
%MOMM*%
%LPD*%
G01*
G04 APERTURE LIST*
%ADD10R,1.700000X1.700000*%
%ADD11O,1.700000X1.700000*%
%ADD12R,1.350000X1.350000*%
%ADD13C,1.350000*%
%ADD14C,1.600000*%
%ADD15O,1.600000X1.600000*%
%ADD16R,3.300000X1.400000*%
%ADD17O,1.400000X3.300000*%
%ADD18R,1.600000X1.600000*%
%ADD19R,1.665000X1.665000*%
%ADD20C,1.665000*%
%ADD21R,3.000000X3.000000*%
%ADD22C,3.000000*%
%ADD23C,1.500000*%
%ADD24R,1.500000X1.500000*%
%ADD25C,2.400000*%
%ADD26C,2.000000*%
%ADD27R,2.300000X2.300000*%
%ADD28C,2.200000*%
%ADD29C,3.200000*%
%ADD30C,1.303000*%
%ADD31O,2.700000X1.800000*%
%ADD32O,3.500000X1.800000*%
%ADD33R,2.000000X4.500000*%
%ADD34R,1.000000X1.500000*%
G04 APERTURE END LIST*
D10*
%TO.C,J8*%
X176000000Y-93750000D03*
D11*
X176000000Y-96290000D03*
X176000000Y-98830000D03*
X176000000Y-101370000D03*
%TD*%
D12*
%TO.C,U1*%
X165220000Y-106780000D03*
D13*
X167760000Y-106780000D03*
X170300000Y-106780000D03*
X172840000Y-106780000D03*
X175380000Y-106780000D03*
X177920000Y-106780000D03*
X180460000Y-106780000D03*
X183000000Y-106780000D03*
X183000000Y-89000000D03*
X180460000Y-89000000D03*
X177920000Y-89000000D03*
X175380000Y-89000000D03*
X172840000Y-89000000D03*
X170300000Y-89000000D03*
X167760000Y-89000000D03*
X165220000Y-89000000D03*
%TD*%
D14*
%TO.C,R9*%
X165190000Y-104000000D03*
D15*
X172810000Y-104000000D03*
%TD*%
D16*
%TO.C,J5*%
X170750000Y-118400000D03*
D17*
X173300000Y-114000000D03*
X165500000Y-114000000D03*
%TD*%
D14*
%TO.C,R7*%
X105500000Y-139750000D03*
D15*
X102960000Y-139750000D03*
%TD*%
D14*
%TO.C,R6*%
X133200000Y-131300000D03*
D15*
X133200000Y-128760000D03*
%TD*%
D14*
%TO.C,R5*%
X106500000Y-99900000D03*
D15*
X106500000Y-102440000D03*
%TD*%
D14*
%TO.C,R4*%
X125200000Y-131345000D03*
D15*
X125200000Y-128805000D03*
%TD*%
D14*
%TO.C,R3*%
X103300000Y-99855000D03*
D15*
X103300000Y-102395000D03*
%TD*%
D14*
%TO.C,R1*%
X161000000Y-129000000D03*
D15*
X158460000Y-129000000D03*
%TD*%
D14*
%TO.C,R2*%
X156000000Y-104000000D03*
D15*
X158540000Y-104000000D03*
%TD*%
D18*
%TO.C,C1*%
X158000000Y-124000000D03*
D14*
X160500000Y-124000000D03*
%TD*%
D19*
%TO.C,A1*%
X148590000Y-101610000D03*
D20*
X146050000Y-101610000D03*
X143510000Y-101610000D03*
X140970000Y-101610000D03*
X138430000Y-101610000D03*
X135890000Y-101610000D03*
X133350000Y-101610000D03*
X130810000Y-101610000D03*
X128270000Y-101610000D03*
X125730000Y-101610000D03*
X123190000Y-101610000D03*
X120650000Y-101610000D03*
X118110000Y-101610000D03*
X115570000Y-101610000D03*
X113030000Y-101610000D03*
X113030000Y-116850000D03*
X115570000Y-116850000D03*
X118110000Y-116850000D03*
X120650000Y-116850000D03*
X123190000Y-116850000D03*
X125730000Y-116850000D03*
X128270000Y-116850000D03*
X130810000Y-116850000D03*
X133350000Y-116850000D03*
X135890000Y-116850000D03*
X138430000Y-116850000D03*
X140970000Y-116850000D03*
X143510000Y-116850000D03*
X146050000Y-116850000D03*
X148590000Y-116850000D03*
%TD*%
D21*
%TO.C,J3*%
X104840000Y-94000000D03*
D22*
X109920000Y-94000000D03*
X115000000Y-94000000D03*
X120080000Y-94000000D03*
X125160000Y-94000000D03*
X130240000Y-94000000D03*
%TD*%
D23*
%TO.C,SW2*%
X154000000Y-135500000D03*
X154000000Y-133000000D03*
D24*
X154000000Y-130500000D03*
%TD*%
D21*
%TO.C,J6*%
X151700000Y-123500000D03*
D22*
X146620000Y-123500000D03*
X141540000Y-123500000D03*
X136460000Y-123500000D03*
X131380000Y-123500000D03*
X126300000Y-123500000D03*
%TD*%
%TO.C,J7*%
X180000000Y-138400000D03*
X180000000Y-133320000D03*
X180000000Y-128240000D03*
X180000000Y-123160000D03*
X180000000Y-118080000D03*
D21*
X180000000Y-113000000D03*
%TD*%
D25*
%TO.C,J2*%
X158160000Y-93195000D03*
X153080000Y-93195000D03*
X148000000Y-93195000D03*
X142920000Y-93195000D03*
X137840000Y-93195000D03*
%TD*%
D26*
%TO.C,S1*%
X159750000Y-108000000D03*
X159750000Y-114500000D03*
X155250000Y-114500000D03*
X155250000Y-108000000D03*
%TD*%
D27*
%TO.C,J17*%
X156500000Y-140500000D03*
D28*
X151500000Y-140500000D03*
X146500000Y-140500000D03*
X141500000Y-140500000D03*
X136500000Y-140500000D03*
X131500000Y-140500000D03*
X126500000Y-140500000D03*
X121500000Y-140500000D03*
X116500000Y-140500000D03*
X111500000Y-140500000D03*
%TD*%
D29*
%TO.C,J1*%
X112034000Y-133731000D03*
X112034000Y-122301000D03*
D30*
X118384000Y-123571000D03*
X120924000Y-124841000D03*
X118384000Y-126111000D03*
X120924000Y-127381000D03*
X118384000Y-128651000D03*
X120924000Y-129921000D03*
X118384000Y-131191000D03*
X120924000Y-132461000D03*
%TD*%
D31*
%TO.C,J4*%
X166800000Y-124200000D03*
D32*
X169400000Y-121500000D03*
D33*
X172350000Y-127000000D03*
%TD*%
D10*
%TO.C,J16*%
X149860000Y-134620000D03*
D11*
X147320000Y-134620000D03*
X144780000Y-134620000D03*
X142240000Y-134620000D03*
X139700000Y-134620000D03*
X137160000Y-134620000D03*
X134620000Y-134620000D03*
X132080000Y-134620000D03*
X129540000Y-134620000D03*
X127000000Y-134620000D03*
%TD*%
D34*
%TO.C,JP1*%
X146200000Y-104500000D03*
X147500000Y-104500000D03*
X148800000Y-104500000D03*
%TD*%
%TO.C,JP2*%
X148800000Y-107500000D03*
X147500000Y-107500000D03*
X146200000Y-107500000D03*
%TD*%
M02*
