%TF.GenerationSoftware,KiCad,Pcbnew,(6.0.7)*%
%TF.CreationDate,2022-10-06T11:11:12-05:00*%
%TF.ProjectId,ScareBanger_PCB,53636172-6542-4616-9e67-65725f504342,rev?*%
%TF.SameCoordinates,Original*%
%TF.FileFunction,Legend,Top*%
%TF.FilePolarity,Positive*%
%FSLAX46Y46*%
G04 Gerber Fmt 4.6, Leading zero omitted, Abs format (unit mm)*
G04 Created by KiCad (PCBNEW (6.0.7)) date 2022-10-06 11:11:12*
%MOMM*%
%LPD*%
G01*
G04 APERTURE LIST*
%ADD10C,0.150000*%
%ADD11C,0.254000*%
%ADD12C,0.100000*%
%ADD13C,0.120000*%
%ADD14C,0.200000*%
G04 APERTURE END LIST*
D10*
X116840000Y-105410000D02*
X106680000Y-105410000D01*
X118237000Y-126111000D02*
X120904000Y-129794000D01*
X118364000Y-123698000D02*
X121031000Y-124841000D01*
X116840000Y-113030000D02*
X116840000Y-105410000D01*
X106680000Y-105410000D02*
X106680000Y-113030000D01*
X106680000Y-113030000D02*
X116840000Y-113030000D01*
X118364000Y-128651000D02*
X120777000Y-127508000D01*
X112500000Y-98500000D02*
X112500000Y-86500000D01*
X135735833Y-96695000D02*
X135640595Y-96647380D01*
X135497738Y-96647380D01*
X135354880Y-96695000D01*
X135259642Y-96790238D01*
X135212023Y-96885476D01*
X135164404Y-97075952D01*
X135164404Y-97218809D01*
X135212023Y-97409285D01*
X135259642Y-97504523D01*
X135354880Y-97599761D01*
X135497738Y-97647380D01*
X135592976Y-97647380D01*
X135735833Y-97599761D01*
X135783452Y-97552142D01*
X135783452Y-97218809D01*
X135592976Y-97218809D01*
X136212023Y-97647380D02*
X136212023Y-96647380D01*
X136783452Y-97647380D01*
X136783452Y-96647380D01*
X137259642Y-97647380D02*
X137259642Y-96647380D01*
X137497738Y-96647380D01*
X137640595Y-96695000D01*
X137735833Y-96790238D01*
X137783452Y-96885476D01*
X137831071Y-97075952D01*
X137831071Y-97218809D01*
X137783452Y-97409285D01*
X137735833Y-97504523D01*
X137640595Y-97599761D01*
X137497738Y-97647380D01*
X137259642Y-97647380D01*
X139259642Y-97980714D02*
X139259642Y-96552142D01*
X139973928Y-97266428D02*
X140735833Y-97266428D01*
X140354880Y-97647380D02*
X140354880Y-96885476D01*
X141735833Y-97647380D02*
X141164404Y-97647380D01*
X141450119Y-97647380D02*
X141450119Y-96647380D01*
X141354880Y-96790238D01*
X141259642Y-96885476D01*
X141164404Y-96933095D01*
X142116785Y-96742619D02*
X142164404Y-96695000D01*
X142259642Y-96647380D01*
X142497738Y-96647380D01*
X142592976Y-96695000D01*
X142640595Y-96742619D01*
X142688214Y-96837857D01*
X142688214Y-96933095D01*
X142640595Y-97075952D01*
X142069166Y-97647380D01*
X142688214Y-97647380D01*
X142973928Y-96647380D02*
X143307261Y-97647380D01*
X143640595Y-96647380D01*
X144212023Y-97980714D02*
X144212023Y-96552142D01*
X144926309Y-96980714D02*
X145688214Y-97266428D01*
X144926309Y-97552142D01*
X146021547Y-96647380D02*
X146592976Y-96647380D01*
X146307261Y-97647380D02*
X146307261Y-96647380D01*
X147497738Y-97647380D02*
X147164404Y-97171190D01*
X146926309Y-97647380D02*
X146926309Y-96647380D01*
X147307261Y-96647380D01*
X147402500Y-96695000D01*
X147450119Y-96742619D01*
X147497738Y-96837857D01*
X147497738Y-96980714D01*
X147450119Y-97075952D01*
X147402500Y-97123571D01*
X147307261Y-97171190D01*
X146926309Y-97171190D01*
X147926309Y-97647380D02*
X147926309Y-96647380D01*
X148926309Y-96695000D02*
X148831071Y-96647380D01*
X148688214Y-96647380D01*
X148545357Y-96695000D01*
X148450119Y-96790238D01*
X148402500Y-96885476D01*
X148354880Y-97075952D01*
X148354880Y-97218809D01*
X148402500Y-97409285D01*
X148450119Y-97504523D01*
X148545357Y-97599761D01*
X148688214Y-97647380D01*
X148783452Y-97647380D01*
X148926309Y-97599761D01*
X148973928Y-97552142D01*
X148973928Y-97218809D01*
X148783452Y-97218809D01*
X150164404Y-96980714D02*
X149402500Y-97266428D01*
X150164404Y-97552142D01*
X146116785Y-99590714D02*
X145878690Y-99590714D01*
X145878690Y-98162142D01*
X146116785Y-98162142D01*
X146497738Y-99257380D02*
X146497738Y-98257380D01*
X146735833Y-98257380D01*
X146878690Y-98305000D01*
X146973928Y-98400238D01*
X147021547Y-98495476D01*
X147069166Y-98685952D01*
X147069166Y-98828809D01*
X147021547Y-99019285D01*
X146973928Y-99114523D01*
X146878690Y-99209761D01*
X146735833Y-99257380D01*
X146497738Y-99257380D01*
X147926309Y-98590714D02*
X147926309Y-99257380D01*
X147688214Y-98209761D02*
X147450119Y-98924047D01*
X148069166Y-98924047D01*
X148354880Y-99590714D02*
X148592976Y-99590714D01*
X148592976Y-98162142D01*
X148354880Y-98162142D01*
X112935047Y-128722428D02*
X113696952Y-128722428D01*
X113316000Y-129103380D02*
X113316000Y-128341476D01*
X114696952Y-129103380D02*
X114125523Y-129103380D01*
X114411238Y-129103380D02*
X114411238Y-128103380D01*
X114316000Y-128246238D01*
X114220761Y-128341476D01*
X114125523Y-128389095D01*
X115077904Y-128198619D02*
X115125523Y-128151000D01*
X115220761Y-128103380D01*
X115458857Y-128103380D01*
X115554095Y-128151000D01*
X115601714Y-128198619D01*
X115649333Y-128293857D01*
X115649333Y-128389095D01*
X115601714Y-128531952D01*
X115030285Y-129103380D01*
X115649333Y-129103380D01*
X115935047Y-128103380D02*
X116268380Y-129103380D01*
X116601714Y-128103380D01*
X116935047Y-128722428D02*
X117696952Y-128722428D01*
X175347619Y-92492738D02*
X174347619Y-92826071D01*
X175347619Y-93159404D01*
X174728571Y-93492738D02*
X174728571Y-94254642D01*
X174347619Y-94730833D02*
X175347619Y-94730833D01*
X175347619Y-95111785D01*
X175300000Y-95207023D01*
X175252380Y-95254642D01*
X175157142Y-95302261D01*
X175014285Y-95302261D01*
X174919047Y-95254642D01*
X174871428Y-95207023D01*
X174823809Y-95111785D01*
X174823809Y-94730833D01*
X174347619Y-96207023D02*
X174347619Y-95730833D01*
X175347619Y-95730833D01*
X174633333Y-96492738D02*
X174633333Y-96968928D01*
X174347619Y-96397500D02*
X175347619Y-96730833D01*
X174347619Y-97064166D01*
X174823809Y-97587976D02*
X174347619Y-97587976D01*
X175347619Y-97254642D02*
X174823809Y-97587976D01*
X175347619Y-97921309D01*
X156666666Y-131980714D02*
X156666666Y-132647380D01*
X156428571Y-131599761D02*
X156190476Y-132314047D01*
X156809523Y-132314047D01*
X157761904Y-132552142D02*
X157714285Y-132599761D01*
X157571428Y-132647380D01*
X157476190Y-132647380D01*
X157333333Y-132599761D01*
X157238095Y-132504523D01*
X157190476Y-132409285D01*
X157142857Y-132218809D01*
X157142857Y-132075952D01*
X157190476Y-131885476D01*
X157238095Y-131790238D01*
X157333333Y-131695000D01*
X157476190Y-131647380D01*
X157571428Y-131647380D01*
X157714285Y-131695000D01*
X157761904Y-131742619D01*
X158190476Y-132647380D02*
X158190476Y-131647380D01*
X158190476Y-132123571D02*
X158761904Y-132123571D01*
X158761904Y-132647380D02*
X158761904Y-131647380D01*
X156380952Y-133685952D02*
X156285714Y-133638333D01*
X156238095Y-133590714D01*
X156190476Y-133495476D01*
X156190476Y-133447857D01*
X156238095Y-133352619D01*
X156285714Y-133305000D01*
X156380952Y-133257380D01*
X156571428Y-133257380D01*
X156666666Y-133305000D01*
X156714285Y-133352619D01*
X156761904Y-133447857D01*
X156761904Y-133495476D01*
X156714285Y-133590714D01*
X156666666Y-133638333D01*
X156571428Y-133685952D01*
X156380952Y-133685952D01*
X156285714Y-133733571D01*
X156238095Y-133781190D01*
X156190476Y-133876428D01*
X156190476Y-134066904D01*
X156238095Y-134162142D01*
X156285714Y-134209761D01*
X156380952Y-134257380D01*
X156571428Y-134257380D01*
X156666666Y-134209761D01*
X156714285Y-134162142D01*
X156761904Y-134066904D01*
X156761904Y-133876428D01*
X156714285Y-133781190D01*
X156666666Y-133733571D01*
X156571428Y-133685952D01*
X157761904Y-134162142D02*
X157714285Y-134209761D01*
X157571428Y-134257380D01*
X157476190Y-134257380D01*
X157333333Y-134209761D01*
X157238095Y-134114523D01*
X157190476Y-134019285D01*
X157142857Y-133828809D01*
X157142857Y-133685952D01*
X157190476Y-133495476D01*
X157238095Y-133400238D01*
X157333333Y-133305000D01*
X157476190Y-133257380D01*
X157571428Y-133257380D01*
X157714285Y-133305000D01*
X157761904Y-133352619D01*
X158190476Y-134257380D02*
X158190476Y-133257380D01*
X158190476Y-133733571D02*
X158761904Y-133733571D01*
X158761904Y-134257380D02*
X158761904Y-133257380D01*
X134119047Y-88400238D02*
X133976190Y-88352619D01*
X133738095Y-88352619D01*
X133642857Y-88400238D01*
X133595238Y-88447857D01*
X133547619Y-88543095D01*
X133547619Y-88638333D01*
X133595238Y-88733571D01*
X133642857Y-88781190D01*
X133738095Y-88828809D01*
X133928571Y-88876428D01*
X134023809Y-88924047D01*
X134071428Y-88971666D01*
X134119047Y-89066904D01*
X134119047Y-89162142D01*
X134071428Y-89257380D01*
X134023809Y-89305000D01*
X133928571Y-89352619D01*
X133690476Y-89352619D01*
X133547619Y-89305000D01*
X133166666Y-88400238D02*
X133023809Y-88352619D01*
X132785714Y-88352619D01*
X132690476Y-88400238D01*
X132642857Y-88447857D01*
X132595238Y-88543095D01*
X132595238Y-88638333D01*
X132642857Y-88733571D01*
X132690476Y-88781190D01*
X132785714Y-88828809D01*
X132976190Y-88876428D01*
X133071428Y-88924047D01*
X133119047Y-88971666D01*
X133166666Y-89066904D01*
X133166666Y-89162142D01*
X133119047Y-89257380D01*
X133071428Y-89305000D01*
X132976190Y-89352619D01*
X132738095Y-89352619D01*
X132595238Y-89305000D01*
X131166666Y-88019285D02*
X131166666Y-89447857D01*
X129690476Y-88352619D02*
X129690476Y-89352619D01*
X129357142Y-88638333D01*
X129023809Y-89352619D01*
X129023809Y-88352619D01*
X128357142Y-89352619D02*
X128166666Y-89352619D01*
X128071428Y-89305000D01*
X127976190Y-89209761D01*
X127928571Y-89019285D01*
X127928571Y-88685952D01*
X127976190Y-88495476D01*
X128071428Y-88400238D01*
X128166666Y-88352619D01*
X128357142Y-88352619D01*
X128452380Y-88400238D01*
X128547619Y-88495476D01*
X128595238Y-88685952D01*
X128595238Y-89019285D01*
X128547619Y-89209761D01*
X128452380Y-89305000D01*
X128357142Y-89352619D01*
X127547619Y-88400238D02*
X127404761Y-88352619D01*
X127166666Y-88352619D01*
X127071428Y-88400238D01*
X127023809Y-88447857D01*
X126976190Y-88543095D01*
X126976190Y-88638333D01*
X127023809Y-88733571D01*
X127071428Y-88781190D01*
X127166666Y-88828809D01*
X127357142Y-88876428D01*
X127452380Y-88924047D01*
X127500000Y-88971666D01*
X127547619Y-89066904D01*
X127547619Y-89162142D01*
X127500000Y-89257380D01*
X127452380Y-89305000D01*
X127357142Y-89352619D01*
X127119047Y-89352619D01*
X126976190Y-89305000D01*
X126547619Y-88352619D02*
X126547619Y-89352619D01*
X125071428Y-88019285D02*
X125071428Y-89447857D01*
X123595238Y-88352619D02*
X123595238Y-89352619D01*
X123261904Y-88638333D01*
X122928571Y-89352619D01*
X122928571Y-88352619D01*
X122452380Y-88352619D02*
X122452380Y-89352619D01*
X122023809Y-88400238D02*
X121880952Y-88352619D01*
X121642857Y-88352619D01*
X121547619Y-88400238D01*
X121500000Y-88447857D01*
X121452380Y-88543095D01*
X121452380Y-88638333D01*
X121500000Y-88733571D01*
X121547619Y-88781190D01*
X121642857Y-88828809D01*
X121833333Y-88876428D01*
X121928571Y-88924047D01*
X121976190Y-88971666D01*
X122023809Y-89066904D01*
X122023809Y-89162142D01*
X121976190Y-89257380D01*
X121928571Y-89305000D01*
X121833333Y-89352619D01*
X121595238Y-89352619D01*
X121452380Y-89305000D01*
X120833333Y-89352619D02*
X120642857Y-89352619D01*
X120547619Y-89305000D01*
X120452380Y-89209761D01*
X120404761Y-89019285D01*
X120404761Y-88685952D01*
X120452380Y-88495476D01*
X120547619Y-88400238D01*
X120642857Y-88352619D01*
X120833333Y-88352619D01*
X120928571Y-88400238D01*
X121023809Y-88495476D01*
X121071428Y-88685952D01*
X121071428Y-89019285D01*
X121023809Y-89209761D01*
X120928571Y-89305000D01*
X120833333Y-89352619D01*
X118976190Y-88019285D02*
X118976190Y-89447857D01*
X117547619Y-88400238D02*
X117404761Y-88352619D01*
X117166666Y-88352619D01*
X117071428Y-88400238D01*
X117023809Y-88447857D01*
X116976190Y-88543095D01*
X116976190Y-88638333D01*
X117023809Y-88733571D01*
X117071428Y-88781190D01*
X117166666Y-88828809D01*
X117357142Y-88876428D01*
X117452380Y-88924047D01*
X117500000Y-88971666D01*
X117547619Y-89066904D01*
X117547619Y-89162142D01*
X117500000Y-89257380D01*
X117452380Y-89305000D01*
X117357142Y-89352619D01*
X117119047Y-89352619D01*
X116976190Y-89305000D01*
X115976190Y-88447857D02*
X116023809Y-88400238D01*
X116166666Y-88352619D01*
X116261904Y-88352619D01*
X116404761Y-88400238D01*
X116500000Y-88495476D01*
X116547619Y-88590714D01*
X116595238Y-88781190D01*
X116595238Y-88924047D01*
X116547619Y-89114523D01*
X116500000Y-89209761D01*
X116404761Y-89305000D01*
X116261904Y-89352619D01*
X116166666Y-89352619D01*
X116023809Y-89305000D01*
X115976190Y-89257380D01*
X115547619Y-88352619D02*
X115547619Y-89352619D01*
X114976190Y-88352619D02*
X115404761Y-88924047D01*
X114976190Y-89352619D02*
X115547619Y-88781190D01*
X111547619Y-88400238D02*
X111404761Y-88352619D01*
X111166666Y-88352619D01*
X111071428Y-88400238D01*
X111023809Y-88447857D01*
X110976190Y-88543095D01*
X110976190Y-88638333D01*
X111023809Y-88733571D01*
X111071428Y-88781190D01*
X111166666Y-88828809D01*
X111357142Y-88876428D01*
X111452380Y-88924047D01*
X111500000Y-88971666D01*
X111547619Y-89066904D01*
X111547619Y-89162142D01*
X111500000Y-89257380D01*
X111452380Y-89305000D01*
X111357142Y-89352619D01*
X111119047Y-89352619D01*
X110976190Y-89305000D01*
X109976190Y-88447857D02*
X110023809Y-88400238D01*
X110166666Y-88352619D01*
X110261904Y-88352619D01*
X110404761Y-88400238D01*
X110500000Y-88495476D01*
X110547619Y-88590714D01*
X110595238Y-88781190D01*
X110595238Y-88924047D01*
X110547619Y-89114523D01*
X110500000Y-89209761D01*
X110404761Y-89305000D01*
X110261904Y-89352619D01*
X110166666Y-89352619D01*
X110023809Y-89305000D01*
X109976190Y-89257380D01*
X109071428Y-88352619D02*
X109547619Y-88352619D01*
X109547619Y-89352619D01*
X107738095Y-88019285D02*
X107738095Y-89447857D01*
X106309523Y-88400238D02*
X106166666Y-88352619D01*
X105928571Y-88352619D01*
X105833333Y-88400238D01*
X105785714Y-88447857D01*
X105738095Y-88543095D01*
X105738095Y-88638333D01*
X105785714Y-88733571D01*
X105833333Y-88781190D01*
X105928571Y-88828809D01*
X106119047Y-88876428D01*
X106214285Y-88924047D01*
X106261904Y-88971666D01*
X106309523Y-89066904D01*
X106309523Y-89162142D01*
X106261904Y-89257380D01*
X106214285Y-89305000D01*
X106119047Y-89352619D01*
X105880952Y-89352619D01*
X105738095Y-89305000D01*
X105309523Y-88352619D02*
X105309523Y-89352619D01*
X105071428Y-89352619D01*
X104928571Y-89305000D01*
X104833333Y-89209761D01*
X104785714Y-89114523D01*
X104738095Y-88924047D01*
X104738095Y-88781190D01*
X104785714Y-88590714D01*
X104833333Y-88495476D01*
X104928571Y-88400238D01*
X105071428Y-88352619D01*
X105309523Y-88352619D01*
X104357142Y-88638333D02*
X103880952Y-88638333D01*
X104452380Y-88352619D02*
X104119047Y-89352619D01*
X103785714Y-88352619D01*
X134809523Y-86409285D02*
X135047619Y-86409285D01*
X135047619Y-87837857D01*
X134809523Y-87837857D01*
X134428571Y-86742619D02*
X134428571Y-87742619D01*
X134190476Y-87742619D01*
X134047619Y-87695000D01*
X133952380Y-87599761D01*
X133904761Y-87504523D01*
X133857142Y-87314047D01*
X133857142Y-87171190D01*
X133904761Y-86980714D01*
X133952380Y-86885476D01*
X134047619Y-86790238D01*
X134190476Y-86742619D01*
X134428571Y-86742619D01*
X132904761Y-86742619D02*
X133476190Y-86742619D01*
X133190476Y-86742619D02*
X133190476Y-87742619D01*
X133285714Y-87599761D01*
X133380952Y-87504523D01*
X133476190Y-87456904D01*
X132285714Y-87742619D02*
X132190476Y-87742619D01*
X132095238Y-87695000D01*
X132047619Y-87647380D01*
X132000000Y-87552142D01*
X131952380Y-87361666D01*
X131952380Y-87123571D01*
X132000000Y-86933095D01*
X132047619Y-86837857D01*
X132095238Y-86790238D01*
X132190476Y-86742619D01*
X132285714Y-86742619D01*
X132380952Y-86790238D01*
X132428571Y-86837857D01*
X132476190Y-86933095D01*
X132523809Y-87123571D01*
X132523809Y-87361666D01*
X132476190Y-87552142D01*
X132428571Y-87647380D01*
X132380952Y-87695000D01*
X132285714Y-87742619D01*
X131380952Y-87742619D02*
X131380952Y-87504523D01*
X131619047Y-87599761D02*
X131380952Y-87504523D01*
X131142857Y-87599761D01*
X131523809Y-87314047D02*
X131380952Y-87504523D01*
X131238095Y-87314047D01*
X130857142Y-86409285D02*
X130619047Y-86409285D01*
X130619047Y-87837857D01*
X130857142Y-87837857D01*
X129809523Y-86409285D02*
X130047619Y-86409285D01*
X130047619Y-87837857D01*
X129809523Y-87837857D01*
X129428571Y-86742619D02*
X129428571Y-87742619D01*
X129190476Y-87742619D01*
X129047619Y-87695000D01*
X128952380Y-87599761D01*
X128904761Y-87504523D01*
X128857142Y-87314047D01*
X128857142Y-87171190D01*
X128904761Y-86980714D01*
X128952380Y-86885476D01*
X129047619Y-86790238D01*
X129190476Y-86742619D01*
X129428571Y-86742619D01*
X127904761Y-86742619D02*
X128476190Y-86742619D01*
X128190476Y-86742619D02*
X128190476Y-87742619D01*
X128285714Y-87599761D01*
X128380952Y-87504523D01*
X128476190Y-87456904D01*
X126952380Y-86742619D02*
X127523809Y-86742619D01*
X127238095Y-86742619D02*
X127238095Y-87742619D01*
X127333333Y-87599761D01*
X127428571Y-87504523D01*
X127523809Y-87456904D01*
X126380952Y-87742619D02*
X126380952Y-87504523D01*
X126619047Y-87599761D02*
X126380952Y-87504523D01*
X126142857Y-87599761D01*
X126523809Y-87314047D02*
X126380952Y-87504523D01*
X126238095Y-87314047D01*
X125857142Y-86409285D02*
X125619047Y-86409285D01*
X125619047Y-87837857D01*
X125857142Y-87837857D01*
X125142857Y-86790238D02*
X125000000Y-86742619D01*
X124761904Y-86742619D01*
X124666666Y-86790238D01*
X124619047Y-86837857D01*
X124571428Y-86933095D01*
X124571428Y-87028333D01*
X124619047Y-87123571D01*
X124666666Y-87171190D01*
X124761904Y-87218809D01*
X124952380Y-87266428D01*
X125047619Y-87314047D01*
X125095238Y-87361666D01*
X125142857Y-87456904D01*
X125142857Y-87552142D01*
X125095238Y-87647380D01*
X125047619Y-87695000D01*
X124952380Y-87742619D01*
X124714285Y-87742619D01*
X124571428Y-87695000D01*
X124142857Y-86742619D02*
X124142857Y-87742619D01*
X123761904Y-87742619D01*
X123666666Y-87695000D01*
X123619047Y-87647380D01*
X123571428Y-87552142D01*
X123571428Y-87409285D01*
X123619047Y-87314047D01*
X123666666Y-87266428D01*
X123761904Y-87218809D01*
X124142857Y-87218809D01*
X123142857Y-86742619D02*
X123142857Y-87742619D01*
X122380952Y-86409285D02*
X122619047Y-86409285D01*
X122619047Y-87837857D01*
X122380952Y-87837857D01*
X122000000Y-86742619D02*
X122000000Y-87742619D01*
X121761904Y-87742619D01*
X121619047Y-87695000D01*
X121523809Y-87599761D01*
X121476190Y-87504523D01*
X121428571Y-87314047D01*
X121428571Y-87171190D01*
X121476190Y-86980714D01*
X121523809Y-86885476D01*
X121619047Y-86790238D01*
X121761904Y-86742619D01*
X122000000Y-86742619D01*
X120476190Y-86742619D02*
X121047619Y-86742619D01*
X120761904Y-86742619D02*
X120761904Y-87742619D01*
X120857142Y-87599761D01*
X120952380Y-87504523D01*
X121047619Y-87456904D01*
X120095238Y-87647380D02*
X120047619Y-87695000D01*
X119952380Y-87742619D01*
X119714285Y-87742619D01*
X119619047Y-87695000D01*
X119571428Y-87647380D01*
X119523809Y-87552142D01*
X119523809Y-87456904D01*
X119571428Y-87314047D01*
X120142857Y-86742619D01*
X119523809Y-86742619D01*
X119190476Y-86409285D02*
X118952380Y-86409285D01*
X118952380Y-87837857D01*
X119190476Y-87837857D01*
X118142857Y-86409285D02*
X118380952Y-86409285D01*
X118380952Y-87837857D01*
X118142857Y-87837857D01*
X117761904Y-86742619D02*
X117761904Y-87742619D01*
X117523809Y-87742619D01*
X117380952Y-87695000D01*
X117285714Y-87599761D01*
X117238095Y-87504523D01*
X117190476Y-87314047D01*
X117190476Y-87171190D01*
X117238095Y-86980714D01*
X117285714Y-86885476D01*
X117380952Y-86790238D01*
X117523809Y-86742619D01*
X117761904Y-86742619D01*
X116238095Y-86742619D02*
X116809523Y-86742619D01*
X116523809Y-86742619D02*
X116523809Y-87742619D01*
X116619047Y-87599761D01*
X116714285Y-87504523D01*
X116809523Y-87456904D01*
X115904761Y-87742619D02*
X115285714Y-87742619D01*
X115619047Y-87361666D01*
X115476190Y-87361666D01*
X115380952Y-87314047D01*
X115333333Y-87266428D01*
X115285714Y-87171190D01*
X115285714Y-86933095D01*
X115333333Y-86837857D01*
X115380952Y-86790238D01*
X115476190Y-86742619D01*
X115761904Y-86742619D01*
X115857142Y-86790238D01*
X115904761Y-86837857D01*
X114952380Y-86409285D02*
X114714285Y-86409285D01*
X114714285Y-87837857D01*
X114952380Y-87837857D01*
X112380952Y-86409285D02*
X112619047Y-86409285D01*
X112619047Y-87837857D01*
X112380952Y-87837857D01*
X112047619Y-87028333D02*
X111571428Y-87028333D01*
X112142857Y-86742619D02*
X111809523Y-87742619D01*
X111476190Y-86742619D01*
X110714285Y-87409285D02*
X110714285Y-86742619D01*
X110952380Y-87790238D02*
X111190476Y-87075952D01*
X110571428Y-87075952D01*
X110285714Y-86409285D02*
X110047619Y-86409285D01*
X110047619Y-87837857D01*
X110285714Y-87837857D01*
X108761904Y-86742619D02*
X108761904Y-87742619D01*
X108333333Y-87647380D02*
X108285714Y-87695000D01*
X108190476Y-87742619D01*
X107952380Y-87742619D01*
X107857142Y-87695000D01*
X107809523Y-87647380D01*
X107761904Y-87552142D01*
X107761904Y-87456904D01*
X107809523Y-87314047D01*
X108380952Y-86742619D01*
X107761904Y-86742619D01*
X106761904Y-86837857D02*
X106809523Y-86790238D01*
X106952380Y-86742619D01*
X107047619Y-86742619D01*
X107190476Y-86790238D01*
X107285714Y-86885476D01*
X107333333Y-86980714D01*
X107380952Y-87171190D01*
X107380952Y-87314047D01*
X107333333Y-87504523D01*
X107285714Y-87599761D01*
X107190476Y-87695000D01*
X107047619Y-87742619D01*
X106952380Y-87742619D01*
X106809523Y-87695000D01*
X106761904Y-87647380D01*
X105285714Y-86409285D02*
X105523809Y-86409285D01*
X105523809Y-87837857D01*
X105285714Y-87837857D01*
X104952380Y-87028333D02*
X104476190Y-87028333D01*
X105047619Y-86742619D02*
X104714285Y-87742619D01*
X104380952Y-86742619D01*
X103571428Y-87742619D02*
X104047619Y-87742619D01*
X104095238Y-87266428D01*
X104047619Y-87314047D01*
X103952380Y-87361666D01*
X103714285Y-87361666D01*
X103619047Y-87314047D01*
X103571428Y-87266428D01*
X103523809Y-87171190D01*
X103523809Y-86933095D01*
X103571428Y-86837857D01*
X103619047Y-86790238D01*
X103714285Y-86742619D01*
X103952380Y-86742619D01*
X104047619Y-86790238D01*
X104095238Y-86837857D01*
X103190476Y-86409285D02*
X102952380Y-86409285D01*
X102952380Y-87837857D01*
X103190476Y-87837857D01*
X115546285Y-124023380D02*
X115212952Y-123547190D01*
X114974857Y-124023380D02*
X114974857Y-123023380D01*
X115355809Y-123023380D01*
X115451047Y-123071000D01*
X115498666Y-123118619D01*
X115546285Y-123213857D01*
X115546285Y-123356714D01*
X115498666Y-123451952D01*
X115451047Y-123499571D01*
X115355809Y-123547190D01*
X114974857Y-123547190D01*
X115879619Y-123023380D02*
X116546285Y-124023380D01*
X116546285Y-123023380D02*
X115879619Y-124023380D01*
X116927238Y-123642428D02*
X117689142Y-123642428D01*
X176785714Y-130318690D02*
X176785714Y-130556785D01*
X175357142Y-130556785D01*
X175357142Y-130318690D01*
X176166666Y-129985357D02*
X176166666Y-129509166D01*
X176452380Y-130080595D02*
X175452380Y-129747261D01*
X176452380Y-129413928D01*
X175452380Y-129175833D02*
X175452380Y-128509166D01*
X176452380Y-128937738D01*
X176785714Y-128223452D02*
X176785714Y-127985357D01*
X175357142Y-127985357D01*
X175357142Y-128223452D01*
X176785714Y-125652023D02*
X176785714Y-125890119D01*
X175357142Y-125890119D01*
X175357142Y-125652023D01*
X176166666Y-125318690D02*
X176166666Y-124842500D01*
X176452380Y-125413928D02*
X175452380Y-125080595D01*
X176452380Y-124747261D01*
X175452380Y-123985357D02*
X175452380Y-124175833D01*
X175500000Y-124271071D01*
X175547619Y-124318690D01*
X175690476Y-124413928D01*
X175880952Y-124461547D01*
X176261904Y-124461547D01*
X176357142Y-124413928D01*
X176404761Y-124366309D01*
X176452380Y-124271071D01*
X176452380Y-124080595D01*
X176404761Y-123985357D01*
X176357142Y-123937738D01*
X176261904Y-123890119D01*
X176023809Y-123890119D01*
X175928571Y-123937738D01*
X175880952Y-123985357D01*
X175833333Y-124080595D01*
X175833333Y-124271071D01*
X175880952Y-124366309D01*
X175928571Y-124413928D01*
X176023809Y-124461547D01*
X176785714Y-123556785D02*
X176785714Y-123318690D01*
X175357142Y-123318690D01*
X175357142Y-123556785D01*
X176785714Y-120985357D02*
X176785714Y-121223452D01*
X175357142Y-121223452D01*
X175357142Y-120985357D01*
X176166666Y-120652023D02*
X176166666Y-120175833D01*
X176452380Y-120747261D02*
X175452380Y-120413928D01*
X176452380Y-120080595D01*
X175452380Y-119842500D02*
X175452380Y-119223452D01*
X175833333Y-119556785D01*
X175833333Y-119413928D01*
X175880952Y-119318690D01*
X175928571Y-119271071D01*
X176023809Y-119223452D01*
X176261904Y-119223452D01*
X176357142Y-119271071D01*
X176404761Y-119318690D01*
X176452380Y-119413928D01*
X176452380Y-119699642D01*
X176404761Y-119794880D01*
X176357142Y-119842500D01*
X176785714Y-118890119D02*
X176785714Y-118652023D01*
X175357142Y-118652023D01*
X175357142Y-118890119D01*
X176785714Y-115556785D02*
X176785714Y-115794880D01*
X175357142Y-115794880D01*
X175357142Y-115556785D01*
X176452380Y-115175833D02*
X175452380Y-115175833D01*
X175452380Y-114937738D01*
X175500000Y-114794880D01*
X175595238Y-114699642D01*
X175690476Y-114652023D01*
X175880952Y-114604404D01*
X176023809Y-114604404D01*
X176214285Y-114652023D01*
X176309523Y-114699642D01*
X176404761Y-114794880D01*
X176452380Y-114937738D01*
X176452380Y-115175833D01*
X175452380Y-114271071D02*
X175452380Y-113652023D01*
X175833333Y-113985357D01*
X175833333Y-113842500D01*
X175880952Y-113747261D01*
X175928571Y-113699642D01*
X176023809Y-113652023D01*
X176261904Y-113652023D01*
X176357142Y-113699642D01*
X176404761Y-113747261D01*
X176452380Y-113842500D01*
X176452380Y-114128214D01*
X176404761Y-114223452D01*
X176357142Y-114271071D01*
X175452380Y-113080595D02*
X175690476Y-113080595D01*
X175595238Y-113318690D02*
X175690476Y-113080595D01*
X175595238Y-112842500D01*
X175880952Y-113223452D02*
X175690476Y-113080595D01*
X175880952Y-112937738D01*
X176785714Y-112556785D02*
X176785714Y-112318690D01*
X175357142Y-112318690D01*
X175357142Y-112556785D01*
X176785714Y-109223452D02*
X176785714Y-109461547D01*
X175357142Y-109461547D01*
X175357142Y-109223452D01*
X176452380Y-108842500D02*
X175452380Y-108842500D01*
X175452380Y-108604404D01*
X175500000Y-108461547D01*
X175595238Y-108366309D01*
X175690476Y-108318690D01*
X175880952Y-108271071D01*
X176023809Y-108271071D01*
X176214285Y-108318690D01*
X176309523Y-108366309D01*
X176404761Y-108461547D01*
X176452380Y-108604404D01*
X176452380Y-108842500D01*
X175547619Y-107890119D02*
X175500000Y-107842500D01*
X175452380Y-107747261D01*
X175452380Y-107509166D01*
X175500000Y-107413928D01*
X175547619Y-107366309D01*
X175642857Y-107318690D01*
X175738095Y-107318690D01*
X175880952Y-107366309D01*
X176452380Y-107937738D01*
X176452380Y-107318690D01*
X176785714Y-106985357D02*
X176785714Y-106747261D01*
X175357142Y-106747261D01*
X175357142Y-106985357D01*
X176785714Y-105175833D02*
X176785714Y-105413928D01*
X175357142Y-105413928D01*
X175357142Y-105175833D01*
X175500000Y-104271071D02*
X175452380Y-104366309D01*
X175452380Y-104509166D01*
X175500000Y-104652023D01*
X175595238Y-104747261D01*
X175690476Y-104794880D01*
X175880952Y-104842500D01*
X176023809Y-104842500D01*
X176214285Y-104794880D01*
X176309523Y-104747261D01*
X176404761Y-104652023D01*
X176452380Y-104509166D01*
X176452380Y-104413928D01*
X176404761Y-104271071D01*
X176357142Y-104223452D01*
X176023809Y-104223452D01*
X176023809Y-104413928D01*
X176452380Y-103794880D02*
X175452380Y-103794880D01*
X176452380Y-103223452D01*
X175452380Y-103223452D01*
X176452380Y-102747261D02*
X175452380Y-102747261D01*
X175452380Y-102509166D01*
X175500000Y-102366309D01*
X175595238Y-102271071D01*
X175690476Y-102223452D01*
X175880952Y-102175833D01*
X176023809Y-102175833D01*
X176214285Y-102223452D01*
X176309523Y-102271071D01*
X176404761Y-102366309D01*
X176452380Y-102509166D01*
X176452380Y-102747261D01*
X176785714Y-101842500D02*
X176785714Y-101604404D01*
X175357142Y-101604404D01*
X175357142Y-101842500D01*
X154714285Y-104361904D02*
X154714285Y-103561904D01*
X155019047Y-103561904D01*
X155095238Y-103600000D01*
X155133333Y-103638095D01*
X155171428Y-103714285D01*
X155171428Y-103828571D01*
X155133333Y-103904761D01*
X155095238Y-103942857D01*
X155019047Y-103980952D01*
X154714285Y-103980952D01*
X155514285Y-103561904D02*
X155514285Y-104209523D01*
X155552380Y-104285714D01*
X155590476Y-104323809D01*
X155666666Y-104361904D01*
X155819047Y-104361904D01*
X155895238Y-104323809D01*
X155933333Y-104285714D01*
X155971428Y-104209523D01*
X155971428Y-103561904D01*
X156733333Y-104361904D02*
X156352380Y-104361904D01*
X156352380Y-103561904D01*
X157380952Y-104361904D02*
X157000000Y-104361904D01*
X157000000Y-103561904D01*
X157647619Y-103561904D02*
X157647619Y-104209523D01*
X157685714Y-104285714D01*
X157723809Y-104323809D01*
X157800000Y-104361904D01*
X157952380Y-104361904D01*
X158028571Y-104323809D01*
X158066666Y-104285714D01*
X158104761Y-104209523D01*
X158104761Y-103561904D01*
X158485714Y-104361904D02*
X158485714Y-103561904D01*
X158790476Y-103561904D01*
X158866666Y-103600000D01*
X158904761Y-103638095D01*
X158942857Y-103714285D01*
X158942857Y-103828571D01*
X158904761Y-103904761D01*
X158866666Y-103942857D01*
X158790476Y-103980952D01*
X158485714Y-103980952D01*
X160466666Y-103523809D02*
X159780952Y-104552380D01*
X161342857Y-104361904D02*
X161342857Y-103561904D01*
X161647619Y-103561904D01*
X161723809Y-103600000D01*
X161761904Y-103638095D01*
X161800000Y-103714285D01*
X161800000Y-103828571D01*
X161761904Y-103904761D01*
X161723809Y-103942857D01*
X161647619Y-103980952D01*
X161342857Y-103980952D01*
X162142857Y-103561904D02*
X162142857Y-104209523D01*
X162180952Y-104285714D01*
X162219047Y-104323809D01*
X162295238Y-104361904D01*
X162447619Y-104361904D01*
X162523809Y-104323809D01*
X162561904Y-104285714D01*
X162600000Y-104209523D01*
X162600000Y-103561904D01*
X163361904Y-104361904D02*
X162980952Y-104361904D01*
X162980952Y-103561904D01*
X164009523Y-104361904D02*
X163628571Y-104361904D01*
X163628571Y-103561904D01*
X164276190Y-104361904D02*
X164276190Y-103561904D01*
X164466666Y-103561904D01*
X164580952Y-103600000D01*
X164657142Y-103676190D01*
X164695238Y-103752380D01*
X164733333Y-103904761D01*
X164733333Y-104019047D01*
X164695238Y-104171428D01*
X164657142Y-104247619D01*
X164580952Y-104323809D01*
X164466666Y-104361904D01*
X164276190Y-104361904D01*
X165228571Y-103561904D02*
X165380952Y-103561904D01*
X165457142Y-103600000D01*
X165533333Y-103676190D01*
X165571428Y-103828571D01*
X165571428Y-104095238D01*
X165533333Y-104247619D01*
X165457142Y-104323809D01*
X165380952Y-104361904D01*
X165228571Y-104361904D01*
X165152380Y-104323809D01*
X165076190Y-104247619D01*
X165038095Y-104095238D01*
X165038095Y-103828571D01*
X165076190Y-103676190D01*
X165152380Y-103600000D01*
X165228571Y-103561904D01*
X165838095Y-103561904D02*
X166028571Y-104361904D01*
X166180952Y-103790476D01*
X166333333Y-104361904D01*
X166523809Y-103561904D01*
X166828571Y-104361904D02*
X166828571Y-103561904D01*
X167285714Y-104361904D01*
X167285714Y-103561904D01*
X106547619Y-107738095D02*
X105738095Y-107738095D01*
X105642857Y-107785714D01*
X105595238Y-107833333D01*
X105547619Y-107928571D01*
X105547619Y-108119047D01*
X105595238Y-108214285D01*
X105642857Y-108261904D01*
X105738095Y-108309523D01*
X106547619Y-108309523D01*
X105595238Y-108738095D02*
X105547619Y-108880952D01*
X105547619Y-109119047D01*
X105595238Y-109214285D01*
X105642857Y-109261904D01*
X105738095Y-109309523D01*
X105833333Y-109309523D01*
X105928571Y-109261904D01*
X105976190Y-109214285D01*
X106023809Y-109119047D01*
X106071428Y-108928571D01*
X106119047Y-108833333D01*
X106166666Y-108785714D01*
X106261904Y-108738095D01*
X106357142Y-108738095D01*
X106452380Y-108785714D01*
X106500000Y-108833333D01*
X106547619Y-108928571D01*
X106547619Y-109166666D01*
X106500000Y-109309523D01*
X106071428Y-110071428D02*
X106023809Y-110214285D01*
X105976190Y-110261904D01*
X105880952Y-110309523D01*
X105738095Y-110309523D01*
X105642857Y-110261904D01*
X105595238Y-110214285D01*
X105547619Y-110119047D01*
X105547619Y-109738095D01*
X106547619Y-109738095D01*
X106547619Y-110071428D01*
X106500000Y-110166666D01*
X106452380Y-110214285D01*
X106357142Y-110261904D01*
X106261904Y-110261904D01*
X106166666Y-110214285D01*
X106119047Y-110166666D01*
X106071428Y-110071428D01*
X106071428Y-109738095D01*
X164742619Y-118712023D02*
X164695000Y-118664404D01*
X164647380Y-118569166D01*
X164647380Y-118331071D01*
X164695000Y-118235833D01*
X164742619Y-118188214D01*
X164837857Y-118140595D01*
X164933095Y-118140595D01*
X165075952Y-118188214D01*
X165647380Y-118759642D01*
X165647380Y-118140595D01*
X165552142Y-117712023D02*
X165599761Y-117664404D01*
X165647380Y-117712023D01*
X165599761Y-117759642D01*
X165552142Y-117712023D01*
X165647380Y-117712023D01*
X165647380Y-116712023D02*
X165647380Y-117283452D01*
X165647380Y-116997738D02*
X164647380Y-116997738D01*
X164790238Y-117092976D01*
X164885476Y-117188214D01*
X164933095Y-117283452D01*
X165647380Y-116283452D02*
X164647380Y-116283452D01*
X165361666Y-115950119D01*
X164647380Y-115616785D01*
X165647380Y-115616785D01*
X165647380Y-115140595D02*
X164647380Y-115140595D01*
X165361666Y-114807261D01*
X164647380Y-114473928D01*
X165647380Y-114473928D01*
X164647380Y-113331071D02*
X165647380Y-112664404D01*
X164647380Y-112664404D02*
X165647380Y-113331071D01*
X164647380Y-111045357D02*
X164647380Y-111521547D01*
X165123571Y-111569166D01*
X165075952Y-111521547D01*
X165028333Y-111426309D01*
X165028333Y-111188214D01*
X165075952Y-111092976D01*
X165123571Y-111045357D01*
X165218809Y-110997738D01*
X165456904Y-110997738D01*
X165552142Y-111045357D01*
X165599761Y-111092976D01*
X165647380Y-111188214D01*
X165647380Y-111426309D01*
X165599761Y-111521547D01*
X165552142Y-111569166D01*
X165552142Y-110569166D02*
X165599761Y-110521547D01*
X165647380Y-110569166D01*
X165599761Y-110616785D01*
X165552142Y-110569166D01*
X165647380Y-110569166D01*
X164647380Y-109616785D02*
X164647380Y-110092976D01*
X165123571Y-110140595D01*
X165075952Y-110092976D01*
X165028333Y-109997738D01*
X165028333Y-109759642D01*
X165075952Y-109664404D01*
X165123571Y-109616785D01*
X165218809Y-109569166D01*
X165456904Y-109569166D01*
X165552142Y-109616785D01*
X165599761Y-109664404D01*
X165647380Y-109759642D01*
X165647380Y-109997738D01*
X165599761Y-110092976D01*
X165552142Y-110140595D01*
X165647380Y-108378690D02*
X164647380Y-108378690D01*
X165361666Y-108045357D01*
X164647380Y-107712023D01*
X165647380Y-107712023D01*
X165647380Y-107235833D02*
X164647380Y-107235833D01*
X165361666Y-106902500D01*
X164647380Y-106569166D01*
X165647380Y-106569166D01*
X166305000Y-118140595D02*
X166257380Y-118235833D01*
X166257380Y-118378690D01*
X166305000Y-118521547D01*
X166400238Y-118616785D01*
X166495476Y-118664404D01*
X166685952Y-118712023D01*
X166828809Y-118712023D01*
X167019285Y-118664404D01*
X167114523Y-118616785D01*
X167209761Y-118521547D01*
X167257380Y-118378690D01*
X167257380Y-118283452D01*
X167209761Y-118140595D01*
X167162142Y-118092976D01*
X166828809Y-118092976D01*
X166828809Y-118283452D01*
X167257380Y-117664404D02*
X166257380Y-117664404D01*
X167257380Y-117092976D01*
X166257380Y-117092976D01*
X167257380Y-116616785D02*
X166257380Y-116616785D01*
X166257380Y-116378690D01*
X166305000Y-116235833D01*
X166400238Y-116140595D01*
X166495476Y-116092976D01*
X166685952Y-116045357D01*
X166828809Y-116045357D01*
X167019285Y-116092976D01*
X167114523Y-116140595D01*
X167209761Y-116235833D01*
X167257380Y-116378690D01*
X167257380Y-116616785D01*
X166876428Y-114854880D02*
X166876428Y-114092976D01*
X167638333Y-113331071D02*
X167590714Y-113378690D01*
X167447857Y-113473928D01*
X167352619Y-113521547D01*
X167209761Y-113569166D01*
X166971666Y-113616785D01*
X166781190Y-113616785D01*
X166543095Y-113569166D01*
X166400238Y-113521547D01*
X166305000Y-113473928D01*
X166162142Y-113378690D01*
X166114523Y-113331071D01*
X166876428Y-112950119D02*
X166876428Y-112188214D01*
X167257380Y-112569166D02*
X166495476Y-112569166D01*
X166876428Y-111712023D02*
X166876428Y-110950119D01*
X166876428Y-109712023D02*
X166876428Y-108950119D01*
X167257380Y-109331071D02*
X166495476Y-109331071D01*
X167257380Y-107950119D02*
X167257380Y-108521547D01*
X167257380Y-108235833D02*
X166257380Y-108235833D01*
X166400238Y-108331071D01*
X166495476Y-108426309D01*
X166543095Y-108521547D01*
X166352619Y-107569166D02*
X166305000Y-107521547D01*
X166257380Y-107426309D01*
X166257380Y-107188214D01*
X166305000Y-107092976D01*
X166352619Y-107045357D01*
X166447857Y-106997738D01*
X166543095Y-106997738D01*
X166685952Y-107045357D01*
X167257380Y-107616785D01*
X167257380Y-106997738D01*
X166257380Y-106712023D02*
X167257380Y-106378690D01*
X166257380Y-106045357D01*
X116276666Y-134437380D02*
X115943333Y-133961190D01*
X115705238Y-134437380D02*
X115705238Y-133437380D01*
X116086190Y-133437380D01*
X116181428Y-133485000D01*
X116229047Y-133532619D01*
X116276666Y-133627857D01*
X116276666Y-133770714D01*
X116229047Y-133865952D01*
X116181428Y-133913571D01*
X116086190Y-133961190D01*
X115705238Y-133961190D01*
X116657619Y-134389761D02*
X116800476Y-134437380D01*
X117038571Y-134437380D01*
X117133809Y-134389761D01*
X117181428Y-134342142D01*
X117229047Y-134246904D01*
X117229047Y-134151666D01*
X117181428Y-134056428D01*
X117133809Y-134008809D01*
X117038571Y-133961190D01*
X116848095Y-133913571D01*
X116752857Y-133865952D01*
X116705238Y-133818333D01*
X116657619Y-133723095D01*
X116657619Y-133627857D01*
X116705238Y-133532619D01*
X116752857Y-133485000D01*
X116848095Y-133437380D01*
X117086190Y-133437380D01*
X117229047Y-133485000D01*
X117514761Y-133437380D02*
X118086190Y-133437380D01*
X117800476Y-134437380D02*
X117800476Y-133437380D01*
X119181428Y-134056428D02*
X119943333Y-134056428D01*
X120276666Y-133532619D02*
X120467142Y-133389761D01*
X120657619Y-133532619D01*
X114443047Y-130691000D02*
X114347809Y-130643380D01*
X114204952Y-130643380D01*
X114062095Y-130691000D01*
X113966857Y-130786238D01*
X113919238Y-130881476D01*
X113871619Y-131071952D01*
X113871619Y-131214809D01*
X113919238Y-131405285D01*
X113966857Y-131500523D01*
X114062095Y-131595761D01*
X114204952Y-131643380D01*
X114300190Y-131643380D01*
X114443047Y-131595761D01*
X114490666Y-131548142D01*
X114490666Y-131214809D01*
X114300190Y-131214809D01*
X114919238Y-131643380D02*
X114919238Y-130643380D01*
X115490666Y-131643380D01*
X115490666Y-130643380D01*
X115966857Y-131643380D02*
X115966857Y-130643380D01*
X116204952Y-130643380D01*
X116347809Y-130691000D01*
X116443047Y-130786238D01*
X116490666Y-130881476D01*
X116538285Y-131071952D01*
X116538285Y-131214809D01*
X116490666Y-131405285D01*
X116443047Y-131500523D01*
X116347809Y-131595761D01*
X116204952Y-131643380D01*
X115966857Y-131643380D01*
X116966857Y-131262428D02*
X117728761Y-131262428D01*
X115078047Y-125436380D02*
X115649476Y-125436380D01*
X115363761Y-126436380D02*
X115363761Y-125436380D01*
X115887571Y-125436380D02*
X116554238Y-126436380D01*
X116554238Y-125436380D02*
X115887571Y-126436380D01*
X116935190Y-126055428D02*
X117697095Y-126055428D01*
X109621309Y-136980714D02*
X109383214Y-136980714D01*
X109383214Y-135552142D01*
X109621309Y-135552142D01*
X109954642Y-136361666D02*
X110430833Y-136361666D01*
X109859404Y-136647380D02*
X110192738Y-135647380D01*
X110526071Y-136647380D01*
X110811785Y-135742619D02*
X110859404Y-135695000D01*
X110954642Y-135647380D01*
X111192738Y-135647380D01*
X111287976Y-135695000D01*
X111335595Y-135742619D01*
X111383214Y-135837857D01*
X111383214Y-135933095D01*
X111335595Y-136075952D01*
X110764166Y-136647380D01*
X111383214Y-136647380D01*
X111716547Y-136980714D02*
X111954642Y-136980714D01*
X111954642Y-135552142D01*
X111716547Y-135552142D01*
X114287976Y-136980714D02*
X114049880Y-136980714D01*
X114049880Y-135552142D01*
X114287976Y-135552142D01*
X114621309Y-136361666D02*
X115097500Y-136361666D01*
X114526071Y-136647380D02*
X114859404Y-135647380D01*
X115192738Y-136647380D01*
X116049880Y-136647380D02*
X115478452Y-136647380D01*
X115764166Y-136647380D02*
X115764166Y-135647380D01*
X115668928Y-135790238D01*
X115573690Y-135885476D01*
X115478452Y-135933095D01*
X116383214Y-136980714D02*
X116621309Y-136980714D01*
X116621309Y-135552142D01*
X116383214Y-135552142D01*
X119716547Y-136980714D02*
X119478452Y-136980714D01*
X119478452Y-135552142D01*
X119716547Y-135552142D01*
X120049880Y-136361666D02*
X120526071Y-136361666D01*
X119954642Y-136647380D02*
X120287976Y-135647380D01*
X120621309Y-136647380D01*
X121145119Y-135647380D02*
X121240357Y-135647380D01*
X121335595Y-135695000D01*
X121383214Y-135742619D01*
X121430833Y-135837857D01*
X121478452Y-136028333D01*
X121478452Y-136266428D01*
X121430833Y-136456904D01*
X121383214Y-136552142D01*
X121335595Y-136599761D01*
X121240357Y-136647380D01*
X121145119Y-136647380D01*
X121049880Y-136599761D01*
X121002261Y-136552142D01*
X120954642Y-136456904D01*
X120907023Y-136266428D01*
X120907023Y-136028333D01*
X120954642Y-135837857D01*
X121002261Y-135742619D01*
X121049880Y-135695000D01*
X121145119Y-135647380D01*
X121811785Y-136980714D02*
X122049880Y-136980714D01*
X122049880Y-135552142D01*
X121811785Y-135552142D01*
X125145119Y-136980714D02*
X124907023Y-136980714D01*
X124907023Y-135552142D01*
X125145119Y-135552142D01*
X125526071Y-136647380D02*
X125526071Y-135647380D01*
X125764166Y-135647380D01*
X125907023Y-135695000D01*
X126002261Y-135790238D01*
X126049880Y-135885476D01*
X126097500Y-136075952D01*
X126097500Y-136218809D01*
X126049880Y-136409285D01*
X126002261Y-136504523D01*
X125907023Y-136599761D01*
X125764166Y-136647380D01*
X125526071Y-136647380D01*
X126573690Y-136647380D02*
X126764166Y-136647380D01*
X126859404Y-136599761D01*
X126907023Y-136552142D01*
X127002261Y-136409285D01*
X127049880Y-136218809D01*
X127049880Y-135837857D01*
X127002261Y-135742619D01*
X126954642Y-135695000D01*
X126859404Y-135647380D01*
X126668928Y-135647380D01*
X126573690Y-135695000D01*
X126526071Y-135742619D01*
X126478452Y-135837857D01*
X126478452Y-136075952D01*
X126526071Y-136171190D01*
X126573690Y-136218809D01*
X126668928Y-136266428D01*
X126859404Y-136266428D01*
X126954642Y-136218809D01*
X127002261Y-136171190D01*
X127049880Y-136075952D01*
X127621309Y-135647380D02*
X127621309Y-135885476D01*
X127383214Y-135790238D02*
X127621309Y-135885476D01*
X127859404Y-135790238D01*
X127478452Y-136075952D02*
X127621309Y-135885476D01*
X127764166Y-136075952D01*
X128145119Y-136980714D02*
X128383214Y-136980714D01*
X128383214Y-135552142D01*
X128145119Y-135552142D01*
X129954642Y-136980714D02*
X129716547Y-136980714D01*
X129716547Y-135552142D01*
X129954642Y-135552142D01*
X130335595Y-136647380D02*
X130335595Y-135647380D01*
X130573690Y-135647380D01*
X130716547Y-135695000D01*
X130811785Y-135790238D01*
X130859404Y-135885476D01*
X130907023Y-136075952D01*
X130907023Y-136218809D01*
X130859404Y-136409285D01*
X130811785Y-136504523D01*
X130716547Y-136599761D01*
X130573690Y-136647380D01*
X130335595Y-136647380D01*
X131478452Y-136075952D02*
X131383214Y-136028333D01*
X131335595Y-135980714D01*
X131287976Y-135885476D01*
X131287976Y-135837857D01*
X131335595Y-135742619D01*
X131383214Y-135695000D01*
X131478452Y-135647380D01*
X131668928Y-135647380D01*
X131764166Y-135695000D01*
X131811785Y-135742619D01*
X131859404Y-135837857D01*
X131859404Y-135885476D01*
X131811785Y-135980714D01*
X131764166Y-136028333D01*
X131668928Y-136075952D01*
X131478452Y-136075952D01*
X131383214Y-136123571D01*
X131335595Y-136171190D01*
X131287976Y-136266428D01*
X131287976Y-136456904D01*
X131335595Y-136552142D01*
X131383214Y-136599761D01*
X131478452Y-136647380D01*
X131668928Y-136647380D01*
X131764166Y-136599761D01*
X131811785Y-136552142D01*
X131859404Y-136456904D01*
X131859404Y-136266428D01*
X131811785Y-136171190D01*
X131764166Y-136123571D01*
X131668928Y-136075952D01*
X132192738Y-136980714D02*
X132430833Y-136980714D01*
X132430833Y-135552142D01*
X132192738Y-135552142D01*
X135526071Y-136980714D02*
X135287976Y-136980714D01*
X135287976Y-135552142D01*
X135526071Y-135552142D01*
X135907023Y-136647380D02*
X135907023Y-135647380D01*
X136145119Y-135647380D01*
X136287976Y-135695000D01*
X136383214Y-135790238D01*
X136430833Y-135885476D01*
X136478452Y-136075952D01*
X136478452Y-136218809D01*
X136430833Y-136409285D01*
X136383214Y-136504523D01*
X136287976Y-136599761D01*
X136145119Y-136647380D01*
X135907023Y-136647380D01*
X136811785Y-135647380D02*
X137478452Y-135647380D01*
X137049880Y-136647380D01*
X137764166Y-136980714D02*
X138002261Y-136980714D01*
X138002261Y-135552142D01*
X137764166Y-135552142D01*
X141097500Y-136980714D02*
X140859404Y-136980714D01*
X140859404Y-135552142D01*
X141097500Y-135552142D01*
X141478452Y-136647380D02*
X141478452Y-135647380D01*
X141716547Y-135647380D01*
X141859404Y-135695000D01*
X141954642Y-135790238D01*
X142002261Y-135885476D01*
X142049880Y-136075952D01*
X142049880Y-136218809D01*
X142002261Y-136409285D01*
X141954642Y-136504523D01*
X141859404Y-136599761D01*
X141716547Y-136647380D01*
X141478452Y-136647380D01*
X142907023Y-135647380D02*
X142716547Y-135647380D01*
X142621309Y-135695000D01*
X142573690Y-135742619D01*
X142478452Y-135885476D01*
X142430833Y-136075952D01*
X142430833Y-136456904D01*
X142478452Y-136552142D01*
X142526071Y-136599761D01*
X142621309Y-136647380D01*
X142811785Y-136647380D01*
X142907023Y-136599761D01*
X142954642Y-136552142D01*
X143002261Y-136456904D01*
X143002261Y-136218809D01*
X142954642Y-136123571D01*
X142907023Y-136075952D01*
X142811785Y-136028333D01*
X142621309Y-136028333D01*
X142526071Y-136075952D01*
X142478452Y-136123571D01*
X142430833Y-136218809D01*
X143573690Y-135647380D02*
X143573690Y-135885476D01*
X143335595Y-135790238D02*
X143573690Y-135885476D01*
X143811785Y-135790238D01*
X143430833Y-136075952D02*
X143573690Y-135885476D01*
X143716547Y-136075952D01*
X144097500Y-136980714D02*
X144335595Y-136980714D01*
X144335595Y-135552142D01*
X144097500Y-135552142D01*
X145907023Y-136980714D02*
X145668928Y-136980714D01*
X145668928Y-135552142D01*
X145907023Y-135552142D01*
X146287976Y-136647380D02*
X146287976Y-135647380D01*
X146526071Y-135647380D01*
X146668928Y-135695000D01*
X146764166Y-135790238D01*
X146811785Y-135885476D01*
X146859404Y-136075952D01*
X146859404Y-136218809D01*
X146811785Y-136409285D01*
X146764166Y-136504523D01*
X146668928Y-136599761D01*
X146526071Y-136647380D01*
X146287976Y-136647380D01*
X147764166Y-135647380D02*
X147287976Y-135647380D01*
X147240357Y-136123571D01*
X147287976Y-136075952D01*
X147383214Y-136028333D01*
X147621309Y-136028333D01*
X147716547Y-136075952D01*
X147764166Y-136123571D01*
X147811785Y-136218809D01*
X147811785Y-136456904D01*
X147764166Y-136552142D01*
X147716547Y-136599761D01*
X147621309Y-136647380D01*
X147383214Y-136647380D01*
X147287976Y-136599761D01*
X147240357Y-136552142D01*
X148383214Y-135647380D02*
X148383214Y-135885476D01*
X148145119Y-135790238D02*
X148383214Y-135885476D01*
X148621309Y-135790238D01*
X148240357Y-136075952D02*
X148383214Y-135885476D01*
X148526071Y-136075952D01*
X148907023Y-136980714D02*
X149145119Y-136980714D01*
X149145119Y-135552142D01*
X148907023Y-135552142D01*
X109907023Y-138257380D02*
X109573690Y-137781190D01*
X109335595Y-138257380D02*
X109335595Y-137257380D01*
X109716547Y-137257380D01*
X109811785Y-137305000D01*
X109859404Y-137352619D01*
X109907023Y-137447857D01*
X109907023Y-137590714D01*
X109859404Y-137685952D01*
X109811785Y-137733571D01*
X109716547Y-137781190D01*
X109335595Y-137781190D01*
X110478452Y-137685952D02*
X110383214Y-137638333D01*
X110335595Y-137590714D01*
X110287976Y-137495476D01*
X110287976Y-137447857D01*
X110335595Y-137352619D01*
X110383214Y-137305000D01*
X110478452Y-137257380D01*
X110668928Y-137257380D01*
X110764166Y-137305000D01*
X110811785Y-137352619D01*
X110859404Y-137447857D01*
X110859404Y-137495476D01*
X110811785Y-137590714D01*
X110764166Y-137638333D01*
X110668928Y-137685952D01*
X110478452Y-137685952D01*
X110383214Y-137733571D01*
X110335595Y-137781190D01*
X110287976Y-137876428D01*
X110287976Y-138066904D01*
X110335595Y-138162142D01*
X110383214Y-138209761D01*
X110478452Y-138257380D01*
X110668928Y-138257380D01*
X110764166Y-138209761D01*
X110811785Y-138162142D01*
X110859404Y-138066904D01*
X110859404Y-137876428D01*
X110811785Y-137781190D01*
X110764166Y-137733571D01*
X110668928Y-137685952D01*
X113049880Y-138590714D02*
X113049880Y-137162142D01*
X115097500Y-138257380D02*
X114764166Y-137781190D01*
X114526071Y-138257380D02*
X114526071Y-137257380D01*
X114907023Y-137257380D01*
X115002261Y-137305000D01*
X115049880Y-137352619D01*
X115097500Y-137447857D01*
X115097500Y-137590714D01*
X115049880Y-137685952D01*
X115002261Y-137733571D01*
X114907023Y-137781190D01*
X114526071Y-137781190D01*
X115430833Y-137257380D02*
X116097500Y-137257380D01*
X115668928Y-138257380D01*
X118240357Y-138590714D02*
X118240357Y-137162142D01*
X120287976Y-138257380D02*
X119954642Y-137781190D01*
X119716547Y-138257380D02*
X119716547Y-137257380D01*
X120097500Y-137257380D01*
X120192738Y-137305000D01*
X120240357Y-137352619D01*
X120287976Y-137447857D01*
X120287976Y-137590714D01*
X120240357Y-137685952D01*
X120192738Y-137733571D01*
X120097500Y-137781190D01*
X119716547Y-137781190D01*
X121145119Y-137257380D02*
X120954642Y-137257380D01*
X120859404Y-137305000D01*
X120811785Y-137352619D01*
X120716547Y-137495476D01*
X120668928Y-137685952D01*
X120668928Y-138066904D01*
X120716547Y-138162142D01*
X120764166Y-138209761D01*
X120859404Y-138257380D01*
X121049880Y-138257380D01*
X121145119Y-138209761D01*
X121192738Y-138162142D01*
X121240357Y-138066904D01*
X121240357Y-137828809D01*
X121192738Y-137733571D01*
X121145119Y-137685952D01*
X121049880Y-137638333D01*
X120859404Y-137638333D01*
X120764166Y-137685952D01*
X120716547Y-137733571D01*
X120668928Y-137828809D01*
X123430833Y-138590714D02*
X123430833Y-137162142D01*
X125478452Y-138257380D02*
X125145119Y-137781190D01*
X124907023Y-138257380D02*
X124907023Y-137257380D01*
X125287976Y-137257380D01*
X125383214Y-137305000D01*
X125430833Y-137352619D01*
X125478452Y-137447857D01*
X125478452Y-137590714D01*
X125430833Y-137685952D01*
X125383214Y-137733571D01*
X125287976Y-137781190D01*
X124907023Y-137781190D01*
X126383214Y-137257380D02*
X125907023Y-137257380D01*
X125859404Y-137733571D01*
X125907023Y-137685952D01*
X126002261Y-137638333D01*
X126240357Y-137638333D01*
X126335595Y-137685952D01*
X126383214Y-137733571D01*
X126430833Y-137828809D01*
X126430833Y-138066904D01*
X126383214Y-138162142D01*
X126335595Y-138209761D01*
X126240357Y-138257380D01*
X126002261Y-138257380D01*
X125907023Y-138209761D01*
X125859404Y-138162142D01*
X128621309Y-138590714D02*
X128621309Y-137162142D01*
X130668928Y-138257380D02*
X130335595Y-137781190D01*
X130097500Y-138257380D02*
X130097500Y-137257380D01*
X130478452Y-137257380D01*
X130573690Y-137305000D01*
X130621309Y-137352619D01*
X130668928Y-137447857D01*
X130668928Y-137590714D01*
X130621309Y-137685952D01*
X130573690Y-137733571D01*
X130478452Y-137781190D01*
X130097500Y-137781190D01*
X131526071Y-137590714D02*
X131526071Y-138257380D01*
X131287976Y-137209761D02*
X131049880Y-137924047D01*
X131668928Y-137924047D01*
X133811785Y-138590714D02*
X133811785Y-137162142D01*
X135859404Y-138257380D02*
X135526071Y-137781190D01*
X135287976Y-138257380D02*
X135287976Y-137257380D01*
X135668928Y-137257380D01*
X135764166Y-137305000D01*
X135811785Y-137352619D01*
X135859404Y-137447857D01*
X135859404Y-137590714D01*
X135811785Y-137685952D01*
X135764166Y-137733571D01*
X135668928Y-137781190D01*
X135287976Y-137781190D01*
X136192738Y-137257380D02*
X136811785Y-137257380D01*
X136478452Y-137638333D01*
X136621309Y-137638333D01*
X136716547Y-137685952D01*
X136764166Y-137733571D01*
X136811785Y-137828809D01*
X136811785Y-138066904D01*
X136764166Y-138162142D01*
X136716547Y-138209761D01*
X136621309Y-138257380D01*
X136335595Y-138257380D01*
X136240357Y-138209761D01*
X136192738Y-138162142D01*
X139002261Y-138590714D02*
X139002261Y-137162142D01*
X141049880Y-138257380D02*
X140716547Y-137781190D01*
X140478452Y-138257380D02*
X140478452Y-137257380D01*
X140859404Y-137257380D01*
X140954642Y-137305000D01*
X141002261Y-137352619D01*
X141049880Y-137447857D01*
X141049880Y-137590714D01*
X141002261Y-137685952D01*
X140954642Y-137733571D01*
X140859404Y-137781190D01*
X140478452Y-137781190D01*
X141430833Y-137352619D02*
X141478452Y-137305000D01*
X141573690Y-137257380D01*
X141811785Y-137257380D01*
X141907023Y-137305000D01*
X141954642Y-137352619D01*
X142002261Y-137447857D01*
X142002261Y-137543095D01*
X141954642Y-137685952D01*
X141383214Y-138257380D01*
X142002261Y-138257380D01*
X144192738Y-138590714D02*
X144192738Y-137162142D01*
X146240357Y-138257380D02*
X145907023Y-137781190D01*
X145668928Y-138257380D02*
X145668928Y-137257380D01*
X146049880Y-137257380D01*
X146145119Y-137305000D01*
X146192738Y-137352619D01*
X146240357Y-137447857D01*
X146240357Y-137590714D01*
X146192738Y-137685952D01*
X146145119Y-137733571D01*
X146049880Y-137781190D01*
X145668928Y-137781190D01*
X147192738Y-138257380D02*
X146621309Y-138257380D01*
X146907023Y-138257380D02*
X146907023Y-137257380D01*
X146811785Y-137400238D01*
X146716547Y-137495476D01*
X146621309Y-137543095D01*
X149383214Y-138590714D02*
X149383214Y-137162142D01*
X151383214Y-137305000D02*
X151287976Y-137257380D01*
X151145119Y-137257380D01*
X151002261Y-137305000D01*
X150907023Y-137400238D01*
X150859404Y-137495476D01*
X150811785Y-137685952D01*
X150811785Y-137828809D01*
X150859404Y-138019285D01*
X150907023Y-138114523D01*
X151002261Y-138209761D01*
X151145119Y-138257380D01*
X151240357Y-138257380D01*
X151383214Y-138209761D01*
X151430833Y-138162142D01*
X151430833Y-137828809D01*
X151240357Y-137828809D01*
X151859404Y-138257380D02*
X151859404Y-137257380D01*
X152430833Y-138257380D01*
X152430833Y-137257380D01*
X152907023Y-138257380D02*
X152907023Y-137257380D01*
X153145119Y-137257380D01*
X153287976Y-137305000D01*
X153383214Y-137400238D01*
X153430833Y-137495476D01*
X153478452Y-137685952D01*
X153478452Y-137828809D01*
X153430833Y-138019285D01*
X153383214Y-138114523D01*
X153287976Y-138209761D01*
X153145119Y-138257380D01*
X152907023Y-138257380D01*
X154907023Y-138590714D02*
X154907023Y-137162142D01*
X155621309Y-137876428D02*
X156383214Y-137876428D01*
X156002261Y-138257380D02*
X156002261Y-137495476D01*
X157383214Y-138257380D02*
X156811785Y-138257380D01*
X157097500Y-138257380D02*
X157097500Y-137257380D01*
X157002261Y-137400238D01*
X156907023Y-137495476D01*
X156811785Y-137543095D01*
X157764166Y-137352619D02*
X157811785Y-137305000D01*
X157907023Y-137257380D01*
X158145119Y-137257380D01*
X158240357Y-137305000D01*
X158287976Y-137352619D01*
X158335595Y-137447857D01*
X158335595Y-137543095D01*
X158287976Y-137685952D01*
X157716547Y-138257380D01*
X158335595Y-138257380D01*
X158621309Y-137257380D02*
X158954642Y-138257380D01*
X159287976Y-137257380D01*
X103052619Y-122801666D02*
X103528809Y-122468333D01*
X103052619Y-122230238D02*
X104052619Y-122230238D01*
X104052619Y-122611190D01*
X104005000Y-122706428D01*
X103957380Y-122754047D01*
X103862142Y-122801666D01*
X103719285Y-122801666D01*
X103624047Y-122754047D01*
X103576428Y-122706428D01*
X103528809Y-122611190D01*
X103528809Y-122230238D01*
X104052619Y-123135000D02*
X103052619Y-123801666D01*
X104052619Y-123801666D02*
X103052619Y-123135000D01*
X102719285Y-124468333D02*
X102719285Y-124230238D01*
X104147857Y-124230238D01*
X104147857Y-124468333D01*
X103052619Y-124849285D02*
X104052619Y-124849285D01*
X104052619Y-125087380D01*
X104005000Y-125230238D01*
X103909761Y-125325476D01*
X103814523Y-125373095D01*
X103624047Y-125420714D01*
X103481190Y-125420714D01*
X103290714Y-125373095D01*
X103195476Y-125325476D01*
X103100238Y-125230238D01*
X103052619Y-125087380D01*
X103052619Y-124849285D01*
X103052619Y-126373095D02*
X103052619Y-125801666D01*
X103052619Y-126087380D02*
X104052619Y-126087380D01*
X103909761Y-125992142D01*
X103814523Y-125896904D01*
X103766904Y-125801666D01*
X102719285Y-126706428D02*
X102719285Y-126944523D01*
X104147857Y-126944523D01*
X104147857Y-126706428D01*
X104100238Y-128182619D02*
X102814523Y-127325476D01*
X104052619Y-128373095D02*
X104052619Y-128944523D01*
X103052619Y-128658809D02*
X104052619Y-128658809D01*
X104052619Y-129182619D02*
X103052619Y-129849285D01*
X104052619Y-129849285D02*
X103052619Y-129182619D01*
X102719285Y-130515952D02*
X102719285Y-130277857D01*
X104147857Y-130277857D01*
X104147857Y-130515952D01*
X103052619Y-130896904D02*
X104052619Y-130896904D01*
X104052619Y-131135000D01*
X104005000Y-131277857D01*
X103909761Y-131373095D01*
X103814523Y-131420714D01*
X103624047Y-131468333D01*
X103481190Y-131468333D01*
X103290714Y-131420714D01*
X103195476Y-131373095D01*
X103100238Y-131277857D01*
X103052619Y-131135000D01*
X103052619Y-130896904D01*
X104052619Y-132087380D02*
X104052619Y-132182619D01*
X104005000Y-132277857D01*
X103957380Y-132325476D01*
X103862142Y-132373095D01*
X103671666Y-132420714D01*
X103433571Y-132420714D01*
X103243095Y-132373095D01*
X103147857Y-132325476D01*
X103100238Y-132277857D01*
X103052619Y-132182619D01*
X103052619Y-132087380D01*
X103100238Y-131992142D01*
X103147857Y-131944523D01*
X103243095Y-131896904D01*
X103433571Y-131849285D01*
X103671666Y-131849285D01*
X103862142Y-131896904D01*
X103957380Y-131944523D01*
X104005000Y-131992142D01*
X104052619Y-132087380D01*
X102719285Y-132754047D02*
X102719285Y-132992142D01*
X104147857Y-132992142D01*
X104147857Y-132754047D01*
X175457142Y-106521428D02*
X175457142Y-105921428D01*
X175742857Y-106521428D02*
X175742857Y-105921428D01*
X176085714Y-106521428D01*
X176085714Y-105921428D01*
X176285714Y-105921428D02*
X176628571Y-105921428D01*
X176457142Y-106521428D02*
X176457142Y-105921428D01*
X175457142Y-112021428D02*
X175457142Y-111421428D01*
X175742857Y-112021428D02*
X175742857Y-111421428D01*
X176085714Y-112021428D01*
X176085714Y-111421428D01*
X176285714Y-111421428D02*
X176628571Y-111421428D01*
X176457142Y-112021428D02*
X176457142Y-111421428D01*
X154705428Y-101857142D02*
X154705428Y-101742857D01*
X154734000Y-101685714D01*
X154791142Y-101628571D01*
X154905428Y-101600000D01*
X155105428Y-101600000D01*
X155219714Y-101628571D01*
X155276857Y-101685714D01*
X155305428Y-101742857D01*
X155305428Y-101857142D01*
X155276857Y-101914285D01*
X155219714Y-101971428D01*
X155105428Y-102000000D01*
X154905428Y-102000000D01*
X154791142Y-101971428D01*
X154734000Y-101914285D01*
X154705428Y-101857142D01*
X155305428Y-101342857D02*
X154705428Y-101342857D01*
X154705428Y-101114285D01*
X154734000Y-101057142D01*
X154762571Y-101028571D01*
X154819714Y-101000000D01*
X154905428Y-101000000D01*
X154962571Y-101028571D01*
X154991142Y-101057142D01*
X155019714Y-101114285D01*
X155019714Y-101342857D01*
X154705428Y-100828571D02*
X154705428Y-100485714D01*
X155305428Y-100657142D02*
X154705428Y-100657142D01*
X155305428Y-100285714D02*
X154705428Y-100285714D01*
X154705428Y-99885714D02*
X154705428Y-99771428D01*
X154734000Y-99714285D01*
X154791142Y-99657142D01*
X154905428Y-99628571D01*
X155105428Y-99628571D01*
X155219714Y-99657142D01*
X155276857Y-99714285D01*
X155305428Y-99771428D01*
X155305428Y-99885714D01*
X155276857Y-99942857D01*
X155219714Y-100000000D01*
X155105428Y-100028571D01*
X154905428Y-100028571D01*
X154791142Y-100000000D01*
X154734000Y-99942857D01*
X154705428Y-99885714D01*
X155305428Y-99371428D02*
X154705428Y-99371428D01*
X155305428Y-99028571D01*
X154705428Y-99028571D01*
X155134000Y-98771428D02*
X155134000Y-98485714D01*
X155305428Y-98828571D02*
X154705428Y-98628571D01*
X155305428Y-98428571D01*
X155305428Y-97942857D02*
X155305428Y-98228571D01*
X154705428Y-98228571D01*
X156271428Y-102928571D02*
X155985714Y-103128571D01*
X156271428Y-103271428D02*
X155671428Y-103271428D01*
X155671428Y-103042857D01*
X155700000Y-102985714D01*
X155728571Y-102957142D01*
X155785714Y-102928571D01*
X155871428Y-102928571D01*
X155928571Y-102957142D01*
X155957142Y-102985714D01*
X155985714Y-103042857D01*
X155985714Y-103271428D01*
X155957142Y-102671428D02*
X155957142Y-102471428D01*
X156271428Y-102385714D02*
X156271428Y-102671428D01*
X155671428Y-102671428D01*
X155671428Y-102385714D01*
X156242857Y-102157142D02*
X156271428Y-102071428D01*
X156271428Y-101928571D01*
X156242857Y-101871428D01*
X156214285Y-101842857D01*
X156157142Y-101814285D01*
X156100000Y-101814285D01*
X156042857Y-101842857D01*
X156014285Y-101871428D01*
X155985714Y-101928571D01*
X155957142Y-102042857D01*
X155928571Y-102100000D01*
X155900000Y-102128571D01*
X155842857Y-102157142D01*
X155785714Y-102157142D01*
X155728571Y-102128571D01*
X155700000Y-102100000D01*
X155671428Y-102042857D01*
X155671428Y-101900000D01*
X155700000Y-101814285D01*
X156271428Y-101557142D02*
X155671428Y-101557142D01*
X156242857Y-101300000D02*
X156271428Y-101214285D01*
X156271428Y-101071428D01*
X156242857Y-101014285D01*
X156214285Y-100985714D01*
X156157142Y-100957142D01*
X156100000Y-100957142D01*
X156042857Y-100985714D01*
X156014285Y-101014285D01*
X155985714Y-101071428D01*
X155957142Y-101185714D01*
X155928571Y-101242857D01*
X155900000Y-101271428D01*
X155842857Y-101300000D01*
X155785714Y-101300000D01*
X155728571Y-101271428D01*
X155700000Y-101242857D01*
X155671428Y-101185714D01*
X155671428Y-101042857D01*
X155700000Y-100957142D01*
X155671428Y-100785714D02*
X155671428Y-100442857D01*
X156271428Y-100614285D02*
X155671428Y-100614285D01*
X155957142Y-100242857D02*
X155957142Y-100042857D01*
X156271428Y-99957142D02*
X156271428Y-100242857D01*
X155671428Y-100242857D01*
X155671428Y-99957142D01*
X156271428Y-99357142D02*
X155985714Y-99557142D01*
X156271428Y-99700000D02*
X155671428Y-99700000D01*
X155671428Y-99471428D01*
X155700000Y-99414285D01*
X155728571Y-99385714D01*
X155785714Y-99357142D01*
X155871428Y-99357142D01*
X155928571Y-99385714D01*
X155957142Y-99414285D01*
X155985714Y-99471428D01*
X155985714Y-99700000D01*
X155957142Y-98442857D02*
X155957142Y-98642857D01*
X156271428Y-98642857D02*
X155671428Y-98642857D01*
X155671428Y-98357142D01*
X155671428Y-98014285D02*
X155671428Y-97900000D01*
X155700000Y-97842857D01*
X155757142Y-97785714D01*
X155871428Y-97757142D01*
X156071428Y-97757142D01*
X156185714Y-97785714D01*
X156242857Y-97842857D01*
X156271428Y-97900000D01*
X156271428Y-98014285D01*
X156242857Y-98071428D01*
X156185714Y-98128571D01*
X156071428Y-98157142D01*
X155871428Y-98157142D01*
X155757142Y-98128571D01*
X155700000Y-98071428D01*
X155671428Y-98014285D01*
X156271428Y-97157142D02*
X155985714Y-97357142D01*
X156271428Y-97500000D02*
X155671428Y-97500000D01*
X155671428Y-97271428D01*
X155700000Y-97214285D01*
X155728571Y-97185714D01*
X155785714Y-97157142D01*
X155871428Y-97157142D01*
X155928571Y-97185714D01*
X155957142Y-97214285D01*
X155985714Y-97271428D01*
X155985714Y-97500000D01*
X157237428Y-103385714D02*
X156637428Y-103385714D01*
X156637428Y-103157142D01*
X156666000Y-103100000D01*
X156694571Y-103071428D01*
X156751714Y-103042857D01*
X156837428Y-103042857D01*
X156894571Y-103071428D01*
X156923142Y-103100000D01*
X156951714Y-103157142D01*
X156951714Y-103385714D01*
X156637428Y-102785714D02*
X157123142Y-102785714D01*
X157180285Y-102757142D01*
X157208857Y-102728571D01*
X157237428Y-102671428D01*
X157237428Y-102557142D01*
X157208857Y-102500000D01*
X157180285Y-102471428D01*
X157123142Y-102442857D01*
X156637428Y-102442857D01*
X157237428Y-101871428D02*
X157237428Y-102157142D01*
X156637428Y-102157142D01*
X157237428Y-101385714D02*
X157237428Y-101671428D01*
X156637428Y-101671428D01*
X156637428Y-100728571D02*
X157123142Y-100728571D01*
X157180285Y-100700000D01*
X157208857Y-100671428D01*
X157237428Y-100614285D01*
X157237428Y-100500000D01*
X157208857Y-100442857D01*
X157180285Y-100414285D01*
X157123142Y-100385714D01*
X156637428Y-100385714D01*
X157237428Y-100100000D02*
X156637428Y-100100000D01*
X156637428Y-99871428D01*
X156666000Y-99814285D01*
X156694571Y-99785714D01*
X156751714Y-99757142D01*
X156837428Y-99757142D01*
X156894571Y-99785714D01*
X156923142Y-99814285D01*
X156951714Y-99871428D01*
X156951714Y-100100000D01*
X156608857Y-99071428D02*
X157380285Y-99585714D01*
X157237428Y-98871428D02*
X156637428Y-98871428D01*
X156637428Y-98728571D01*
X156666000Y-98642857D01*
X156723142Y-98585714D01*
X156780285Y-98557142D01*
X156894571Y-98528571D01*
X156980285Y-98528571D01*
X157094571Y-98557142D01*
X157151714Y-98585714D01*
X157208857Y-98642857D01*
X157237428Y-98728571D01*
X157237428Y-98871428D01*
X156637428Y-98157142D02*
X156637428Y-98042857D01*
X156666000Y-97985714D01*
X156723142Y-97928571D01*
X156837428Y-97900000D01*
X157037428Y-97900000D01*
X157151714Y-97928571D01*
X157208857Y-97985714D01*
X157237428Y-98042857D01*
X157237428Y-98157142D01*
X157208857Y-98214285D01*
X157151714Y-98271428D01*
X157037428Y-98300000D01*
X156837428Y-98300000D01*
X156723142Y-98271428D01*
X156666000Y-98214285D01*
X156637428Y-98157142D01*
X156637428Y-97700000D02*
X157237428Y-97557142D01*
X156808857Y-97442857D01*
X157237428Y-97328571D01*
X156637428Y-97185714D01*
X157237428Y-96957142D02*
X156637428Y-96957142D01*
X157237428Y-96614285D01*
X156637428Y-96614285D01*
X125635428Y-109894666D02*
X126111619Y-109894666D01*
X125540190Y-110180380D02*
X125873523Y-109180380D01*
X126206857Y-110180380D01*
X127111619Y-110180380D02*
X126778285Y-109704190D01*
X126540190Y-110180380D02*
X126540190Y-109180380D01*
X126921142Y-109180380D01*
X127016380Y-109228000D01*
X127064000Y-109275619D01*
X127111619Y-109370857D01*
X127111619Y-109513714D01*
X127064000Y-109608952D01*
X127016380Y-109656571D01*
X126921142Y-109704190D01*
X126540190Y-109704190D01*
X127540190Y-110180380D02*
X127540190Y-109180380D01*
X127778285Y-109180380D01*
X127921142Y-109228000D01*
X128016380Y-109323238D01*
X128064000Y-109418476D01*
X128111619Y-109608952D01*
X128111619Y-109751809D01*
X128064000Y-109942285D01*
X128016380Y-110037523D01*
X127921142Y-110132761D01*
X127778285Y-110180380D01*
X127540190Y-110180380D01*
X128540190Y-109180380D02*
X128540190Y-109989904D01*
X128587809Y-110085142D01*
X128635428Y-110132761D01*
X128730666Y-110180380D01*
X128921142Y-110180380D01*
X129016380Y-110132761D01*
X129064000Y-110085142D01*
X129111619Y-109989904D01*
X129111619Y-109180380D01*
X129587809Y-110180380D02*
X129587809Y-109180380D01*
X130064000Y-110180380D02*
X130064000Y-109180380D01*
X130635428Y-110180380D01*
X130635428Y-109180380D01*
X131302095Y-109180380D02*
X131492571Y-109180380D01*
X131587809Y-109228000D01*
X131683047Y-109323238D01*
X131730666Y-109513714D01*
X131730666Y-109847047D01*
X131683047Y-110037523D01*
X131587809Y-110132761D01*
X131492571Y-110180380D01*
X131302095Y-110180380D01*
X131206857Y-110132761D01*
X131111619Y-110037523D01*
X131064000Y-109847047D01*
X131064000Y-109513714D01*
X131111619Y-109323238D01*
X131206857Y-109228000D01*
X131302095Y-109180380D01*
X132921142Y-110180380D02*
X132921142Y-109180380D01*
X133492571Y-110180380D01*
X133492571Y-109180380D01*
X133921142Y-109894666D02*
X134397333Y-109894666D01*
X133825904Y-110180380D02*
X134159238Y-109180380D01*
X134492571Y-110180380D01*
X134825904Y-110180380D02*
X134825904Y-109180380D01*
X135397333Y-110180380D01*
X135397333Y-109180380D01*
X136064000Y-109180380D02*
X136254476Y-109180380D01*
X136349714Y-109228000D01*
X136444952Y-109323238D01*
X136492571Y-109513714D01*
X136492571Y-109847047D01*
X136444952Y-110037523D01*
X136349714Y-110132761D01*
X136254476Y-110180380D01*
X136064000Y-110180380D01*
X135968761Y-110132761D01*
X135873523Y-110037523D01*
X135825904Y-109847047D01*
X135825904Y-109513714D01*
X135873523Y-109323238D01*
X135968761Y-109228000D01*
X136064000Y-109180380D01*
X123595238Y-128071428D02*
X124357142Y-128071428D01*
X123976190Y-128452380D02*
X123976190Y-127690476D01*
X124738095Y-127452380D02*
X125357142Y-127452380D01*
X125023809Y-127833333D01*
X125166666Y-127833333D01*
X125261904Y-127880952D01*
X125309523Y-127928571D01*
X125357142Y-128023809D01*
X125357142Y-128261904D01*
X125309523Y-128357142D01*
X125261904Y-128404761D01*
X125166666Y-128452380D01*
X124880952Y-128452380D01*
X124785714Y-128404761D01*
X124738095Y-128357142D01*
X125642857Y-127452380D02*
X125976190Y-128452380D01*
X126309523Y-127452380D01*
X126547619Y-127452380D02*
X127166666Y-127452380D01*
X126833333Y-127833333D01*
X126976190Y-127833333D01*
X127071428Y-127880952D01*
X127119047Y-127928571D01*
X127166666Y-128023809D01*
X127166666Y-128261904D01*
X127119047Y-128357142D01*
X127071428Y-128404761D01*
X126976190Y-128452380D01*
X126690476Y-128452380D01*
X126595238Y-128404761D01*
X126547619Y-128357142D01*
X128595238Y-128785714D02*
X128595238Y-127357142D01*
X129833333Y-127500000D02*
X129738095Y-127452380D01*
X129595238Y-127452380D01*
X129452380Y-127500000D01*
X129357142Y-127595238D01*
X129309523Y-127690476D01*
X129261904Y-127880952D01*
X129261904Y-128023809D01*
X129309523Y-128214285D01*
X129357142Y-128309523D01*
X129452380Y-128404761D01*
X129595238Y-128452380D01*
X129690476Y-128452380D01*
X129833333Y-128404761D01*
X129880952Y-128357142D01*
X129880952Y-128023809D01*
X129690476Y-128023809D01*
X130309523Y-128452380D02*
X130309523Y-127452380D01*
X130880952Y-128452380D01*
X130880952Y-127452380D01*
X131357142Y-128452380D02*
X131357142Y-127452380D01*
X131595238Y-127452380D01*
X131738095Y-127500000D01*
X131833333Y-127595238D01*
X131880952Y-127690476D01*
X131928571Y-127880952D01*
X131928571Y-128023809D01*
X131880952Y-128214285D01*
X131833333Y-128309523D01*
X131738095Y-128404761D01*
X131595238Y-128452380D01*
X131357142Y-128452380D01*
X133071428Y-127404761D02*
X132214285Y-128690476D01*
X134119047Y-127404761D02*
X133261904Y-128690476D01*
X134452380Y-128071428D02*
X135214285Y-128071428D01*
X134833333Y-128452380D02*
X134833333Y-127690476D01*
X136166666Y-127452380D02*
X135690476Y-127452380D01*
X135642857Y-127928571D01*
X135690476Y-127880952D01*
X135785714Y-127833333D01*
X136023809Y-127833333D01*
X136119047Y-127880952D01*
X136166666Y-127928571D01*
X136214285Y-128023809D01*
X136214285Y-128261904D01*
X136166666Y-128357142D01*
X136119047Y-128404761D01*
X136023809Y-128452380D01*
X135785714Y-128452380D01*
X135690476Y-128404761D01*
X135642857Y-128357142D01*
X136500000Y-127452380D02*
X136833333Y-128452380D01*
X137166666Y-127452380D01*
X138500000Y-128785714D02*
X138500000Y-127357142D01*
X140500000Y-127500000D02*
X140404761Y-127452380D01*
X140261904Y-127452380D01*
X140119047Y-127500000D01*
X140023809Y-127595238D01*
X139976190Y-127690476D01*
X139928571Y-127880952D01*
X139928571Y-128023809D01*
X139976190Y-128214285D01*
X140023809Y-128309523D01*
X140119047Y-128404761D01*
X140261904Y-128452380D01*
X140357142Y-128452380D01*
X140500000Y-128404761D01*
X140547619Y-128357142D01*
X140547619Y-128023809D01*
X140357142Y-128023809D01*
X140976190Y-128452380D02*
X140976190Y-127452380D01*
X141547619Y-128452380D01*
X141547619Y-127452380D01*
X142023809Y-128452380D02*
X142023809Y-127452380D01*
X142261904Y-127452380D01*
X142404761Y-127500000D01*
X142500000Y-127595238D01*
X142547619Y-127690476D01*
X142595238Y-127880952D01*
X142595238Y-128023809D01*
X142547619Y-128214285D01*
X142500000Y-128309523D01*
X142404761Y-128404761D01*
X142261904Y-128452380D01*
X142023809Y-128452380D01*
X143738095Y-127404761D02*
X142880952Y-128690476D01*
X144785714Y-127404761D02*
X143928571Y-128690476D01*
X145119047Y-128071428D02*
X145880952Y-128071428D01*
X145500000Y-128452380D02*
X145500000Y-127690476D01*
X146880952Y-128452380D02*
X146309523Y-128452380D01*
X146595238Y-128452380D02*
X146595238Y-127452380D01*
X146500000Y-127595238D01*
X146404761Y-127690476D01*
X146309523Y-127738095D01*
X147261904Y-127547619D02*
X147309523Y-127500000D01*
X147404761Y-127452380D01*
X147642857Y-127452380D01*
X147738095Y-127500000D01*
X147785714Y-127547619D01*
X147833333Y-127642857D01*
X147833333Y-127738095D01*
X147785714Y-127880952D01*
X147214285Y-128452380D01*
X147833333Y-128452380D01*
X148119047Y-127452380D02*
X148452380Y-128452380D01*
X148785714Y-127452380D01*
X149357142Y-128785714D02*
X149357142Y-127357142D01*
X151357142Y-127500000D02*
X151261904Y-127452380D01*
X151119047Y-127452380D01*
X150976190Y-127500000D01*
X150880952Y-127595238D01*
X150833333Y-127690476D01*
X150785714Y-127880952D01*
X150785714Y-128023809D01*
X150833333Y-128214285D01*
X150880952Y-128309523D01*
X150976190Y-128404761D01*
X151119047Y-128452380D01*
X151214285Y-128452380D01*
X151357142Y-128404761D01*
X151404761Y-128357142D01*
X151404761Y-128023809D01*
X151214285Y-128023809D01*
X151833333Y-128452380D02*
X151833333Y-127452380D01*
X152404761Y-128452380D01*
X152404761Y-127452380D01*
X152880952Y-128452380D02*
X152880952Y-127452380D01*
X153119047Y-127452380D01*
X153261904Y-127500000D01*
X153357142Y-127595238D01*
X153404761Y-127690476D01*
X153452380Y-127880952D01*
X153452380Y-128023809D01*
X153404761Y-128214285D01*
X153357142Y-128309523D01*
X153261904Y-128404761D01*
X153119047Y-128452380D01*
X152880952Y-128452380D01*
X160542857Y-132323809D02*
X160657142Y-132361904D01*
X160847619Y-132361904D01*
X160923809Y-132323809D01*
X160961904Y-132285714D01*
X161000000Y-132209523D01*
X161000000Y-132133333D01*
X160961904Y-132057142D01*
X160923809Y-132019047D01*
X160847619Y-131980952D01*
X160695238Y-131942857D01*
X160619047Y-131904761D01*
X160580952Y-131866666D01*
X160542857Y-131790476D01*
X160542857Y-131714285D01*
X160580952Y-131638095D01*
X160619047Y-131600000D01*
X160695238Y-131561904D01*
X160885714Y-131561904D01*
X161000000Y-131600000D01*
X161800000Y-132285714D02*
X161761904Y-132323809D01*
X161647619Y-132361904D01*
X161571428Y-132361904D01*
X161457142Y-132323809D01*
X161380952Y-132247619D01*
X161342857Y-132171428D01*
X161304761Y-132019047D01*
X161304761Y-131904761D01*
X161342857Y-131752380D01*
X161380952Y-131676190D01*
X161457142Y-131600000D01*
X161571428Y-131561904D01*
X161647619Y-131561904D01*
X161761904Y-131600000D01*
X161800000Y-131638095D01*
X162104761Y-132133333D02*
X162485714Y-132133333D01*
X162028571Y-132361904D02*
X162295238Y-131561904D01*
X162561904Y-132361904D01*
X163285714Y-132361904D02*
X163019047Y-131980952D01*
X162828571Y-132361904D02*
X162828571Y-131561904D01*
X163133333Y-131561904D01*
X163209523Y-131600000D01*
X163247619Y-131638095D01*
X163285714Y-131714285D01*
X163285714Y-131828571D01*
X163247619Y-131904761D01*
X163209523Y-131942857D01*
X163133333Y-131980952D01*
X162828571Y-131980952D01*
X163628571Y-131942857D02*
X163895238Y-131942857D01*
X164009523Y-132361904D02*
X163628571Y-132361904D01*
X163628571Y-131561904D01*
X164009523Y-131561904D01*
X164619047Y-131942857D02*
X164733333Y-131980952D01*
X164771428Y-132019047D01*
X164809523Y-132095238D01*
X164809523Y-132209523D01*
X164771428Y-132285714D01*
X164733333Y-132323809D01*
X164657142Y-132361904D01*
X164352380Y-132361904D01*
X164352380Y-131561904D01*
X164619047Y-131561904D01*
X164695238Y-131600000D01*
X164733333Y-131638095D01*
X164771428Y-131714285D01*
X164771428Y-131790476D01*
X164733333Y-131866666D01*
X164695238Y-131904761D01*
X164619047Y-131942857D01*
X164352380Y-131942857D01*
X165114285Y-132133333D02*
X165495238Y-132133333D01*
X165038095Y-132361904D02*
X165304761Y-131561904D01*
X165571428Y-132361904D01*
X165838095Y-132361904D02*
X165838095Y-131561904D01*
X166295238Y-132361904D01*
X166295238Y-131561904D01*
X167095238Y-131600000D02*
X167019047Y-131561904D01*
X166904761Y-131561904D01*
X166790476Y-131600000D01*
X166714285Y-131676190D01*
X166676190Y-131752380D01*
X166638095Y-131904761D01*
X166638095Y-132019047D01*
X166676190Y-132171428D01*
X166714285Y-132247619D01*
X166790476Y-132323809D01*
X166904761Y-132361904D01*
X166980952Y-132361904D01*
X167095238Y-132323809D01*
X167133333Y-132285714D01*
X167133333Y-132019047D01*
X166980952Y-132019047D01*
X167476190Y-131942857D02*
X167742857Y-131942857D01*
X167857142Y-132361904D02*
X167476190Y-132361904D01*
X167476190Y-131561904D01*
X167857142Y-131561904D01*
X168657142Y-132361904D02*
X168390476Y-131980952D01*
X168200000Y-132361904D02*
X168200000Y-131561904D01*
X168504761Y-131561904D01*
X168580952Y-131600000D01*
X168619047Y-131638095D01*
X168657142Y-131714285D01*
X168657142Y-131828571D01*
X168619047Y-131904761D01*
X168580952Y-131942857D01*
X168504761Y-131980952D01*
X168200000Y-131980952D01*
X168961904Y-131828571D02*
X169533333Y-131828571D01*
X169190476Y-131485714D02*
X168961904Y-132514285D01*
X169457142Y-132171428D02*
X168885714Y-132171428D01*
X169228571Y-132514285D02*
X169457142Y-131485714D01*
D11*
%TO.C,A1*%
X131021666Y-110137142D02*
X131021666Y-109532380D01*
X131384523Y-110258095D02*
X130114523Y-109834761D01*
X131384523Y-109411428D01*
X131384523Y-108322857D02*
X131384523Y-109048571D01*
X131384523Y-108685714D02*
X130114523Y-108685714D01*
X130295952Y-108806666D01*
X130416904Y-108927619D01*
X130477380Y-109048571D01*
D10*
%TO.C,J3*%
X103966666Y-98952380D02*
X103966666Y-99666666D01*
X103919047Y-99809523D01*
X103823809Y-99904761D01*
X103680952Y-99952380D01*
X103585714Y-99952380D01*
X104347619Y-98952380D02*
X104966666Y-98952380D01*
X104633333Y-99333333D01*
X104776190Y-99333333D01*
X104871428Y-99380952D01*
X104919047Y-99428571D01*
X104966666Y-99523809D01*
X104966666Y-99761904D01*
X104919047Y-99857142D01*
X104871428Y-99904761D01*
X104776190Y-99952380D01*
X104490476Y-99952380D01*
X104395238Y-99904761D01*
X104347619Y-99857142D01*
%TO.C,SW2*%
X150595238Y-129166666D02*
X150547619Y-129309523D01*
X150547619Y-129547619D01*
X150595238Y-129642857D01*
X150642857Y-129690476D01*
X150738095Y-129738095D01*
X150833333Y-129738095D01*
X150928571Y-129690476D01*
X150976190Y-129642857D01*
X151023809Y-129547619D01*
X151071428Y-129357142D01*
X151119047Y-129261904D01*
X151166666Y-129214285D01*
X151261904Y-129166666D01*
X151357142Y-129166666D01*
X151452380Y-129214285D01*
X151500000Y-129261904D01*
X151547619Y-129357142D01*
X151547619Y-129595238D01*
X151500000Y-129738095D01*
X151547619Y-130071428D02*
X150547619Y-130309523D01*
X151261904Y-130500000D01*
X150547619Y-130690476D01*
X151547619Y-130928571D01*
X151452380Y-131261904D02*
X151500000Y-131309523D01*
X151547619Y-131404761D01*
X151547619Y-131642857D01*
X151500000Y-131738095D01*
X151452380Y-131785714D01*
X151357142Y-131833333D01*
X151261904Y-131833333D01*
X151119047Y-131785714D01*
X150547619Y-131214285D01*
X150547619Y-131833333D01*
%TO.C,J6*%
X153366666Y-127452380D02*
X153366666Y-128166666D01*
X153319047Y-128309523D01*
X153223809Y-128404761D01*
X153080952Y-128452380D01*
X152985714Y-128452380D01*
X154271428Y-127452380D02*
X154080952Y-127452380D01*
X153985714Y-127500000D01*
X153938095Y-127547619D01*
X153842857Y-127690476D01*
X153795238Y-127880952D01*
X153795238Y-128261904D01*
X153842857Y-128357142D01*
X153890476Y-128404761D01*
X153985714Y-128452380D01*
X154176190Y-128452380D01*
X154271428Y-128404761D01*
X154319047Y-128357142D01*
X154366666Y-128261904D01*
X154366666Y-128023809D01*
X154319047Y-127928571D01*
X154271428Y-127880952D01*
X154176190Y-127833333D01*
X153985714Y-127833333D01*
X153890476Y-127880952D01*
X153842857Y-127928571D01*
X153795238Y-128023809D01*
%TO.C,J7*%
X167452380Y-99333333D02*
X168166666Y-99333333D01*
X168309523Y-99380952D01*
X168404761Y-99476190D01*
X168452380Y-99619047D01*
X168452380Y-99714285D01*
X167452380Y-98952380D02*
X167452380Y-98285714D01*
X168452380Y-98714285D01*
D11*
%TO.C,J2*%
X156576666Y-96304523D02*
X156576666Y-97211666D01*
X156516190Y-97393095D01*
X156395238Y-97514047D01*
X156213809Y-97574523D01*
X156092857Y-97574523D01*
X157120952Y-96425476D02*
X157181428Y-96365000D01*
X157302380Y-96304523D01*
X157604761Y-96304523D01*
X157725714Y-96365000D01*
X157786190Y-96425476D01*
X157846666Y-96546428D01*
X157846666Y-96667380D01*
X157786190Y-96848809D01*
X157060476Y-97574523D01*
X157846666Y-97574523D01*
D10*
%TO.C,S1*%
X169404761Y-87761904D02*
X169452380Y-87619047D01*
X169452380Y-87380952D01*
X169404761Y-87285714D01*
X169357142Y-87238095D01*
X169261904Y-87190476D01*
X169166666Y-87190476D01*
X169071428Y-87238095D01*
X169023809Y-87285714D01*
X168976190Y-87380952D01*
X168928571Y-87571428D01*
X168880952Y-87666666D01*
X168833333Y-87714285D01*
X168738095Y-87761904D01*
X168642857Y-87761904D01*
X168547619Y-87714285D01*
X168500000Y-87666666D01*
X168452380Y-87571428D01*
X168452380Y-87333333D01*
X168500000Y-87190476D01*
X169452380Y-86238095D02*
X169452380Y-86809523D01*
X169452380Y-86523809D02*
X168452380Y-86523809D01*
X168595238Y-86619047D01*
X168690476Y-86714285D01*
X168738095Y-86809523D01*
%TO.C,J17*%
X158222380Y-145694523D02*
X158936666Y-145694523D01*
X159079523Y-145742142D01*
X159174761Y-145837380D01*
X159222380Y-145980238D01*
X159222380Y-146075476D01*
X159222380Y-144694523D02*
X159222380Y-145265952D01*
X159222380Y-144980238D02*
X158222380Y-144980238D01*
X158365238Y-145075476D01*
X158460476Y-145170714D01*
X158508095Y-145265952D01*
X158222380Y-144361190D02*
X158222380Y-143694523D01*
X159222380Y-144123095D01*
%TO.C,R2*%
X158833333Y-98452380D02*
X158500000Y-97976190D01*
X158261904Y-98452380D02*
X158261904Y-97452380D01*
X158642857Y-97452380D01*
X158738095Y-97500000D01*
X158785714Y-97547619D01*
X158833333Y-97642857D01*
X158833333Y-97785714D01*
X158785714Y-97880952D01*
X158738095Y-97928571D01*
X158642857Y-97976190D01*
X158261904Y-97976190D01*
X159214285Y-97547619D02*
X159261904Y-97500000D01*
X159357142Y-97452380D01*
X159595238Y-97452380D01*
X159690476Y-97500000D01*
X159738095Y-97547619D01*
X159785714Y-97642857D01*
X159785714Y-97738095D01*
X159738095Y-97880952D01*
X159166666Y-98452380D01*
X159785714Y-98452380D01*
D11*
%TO.C,J1*%
X104714523Y-119168333D02*
X105621666Y-119168333D01*
X105803095Y-119228809D01*
X105924047Y-119349761D01*
X105984523Y-119531190D01*
X105984523Y-119652142D01*
X105984523Y-117898333D02*
X105984523Y-118624047D01*
X105984523Y-118261190D02*
X104714523Y-118261190D01*
X104895952Y-118382142D01*
X105016904Y-118503095D01*
X105077380Y-118624047D01*
D10*
%TO.C,SW1*%
X155904761Y-107333333D02*
X155952380Y-107190476D01*
X155952380Y-106952380D01*
X155904761Y-106857142D01*
X155857142Y-106809523D01*
X155761904Y-106761904D01*
X155666666Y-106761904D01*
X155571428Y-106809523D01*
X155523809Y-106857142D01*
X155476190Y-106952380D01*
X155428571Y-107142857D01*
X155380952Y-107238095D01*
X155333333Y-107285714D01*
X155238095Y-107333333D01*
X155142857Y-107333333D01*
X155047619Y-107285714D01*
X155000000Y-107238095D01*
X154952380Y-107142857D01*
X154952380Y-106904761D01*
X155000000Y-106761904D01*
X154952380Y-106428571D02*
X155952380Y-106190476D01*
X155238095Y-106000000D01*
X155952380Y-105809523D01*
X154952380Y-105571428D01*
X155952380Y-104666666D02*
X155952380Y-105238095D01*
X155952380Y-104952380D02*
X154952380Y-104952380D01*
X155095238Y-105047619D01*
X155190476Y-105142857D01*
X155238095Y-105238095D01*
%TO.C,J4*%
X160166666Y-118452380D02*
X160166666Y-119166666D01*
X160119047Y-119309523D01*
X160023809Y-119404761D01*
X159880952Y-119452380D01*
X159785714Y-119452380D01*
X161071428Y-118785714D02*
X161071428Y-119452380D01*
X160833333Y-118404761D02*
X160595238Y-119119047D01*
X161214285Y-119119047D01*
D12*
%TO.C,A1*%
X113030000Y-118120000D02*
X148590000Y-118120000D01*
X148590000Y-100340000D02*
X113030000Y-100340000D01*
D13*
%TO.C,J3*%
X103760000Y-97810000D02*
X134240000Y-97810000D01*
X134240000Y-97810000D02*
X134240000Y-90190000D01*
X103760000Y-90190000D02*
X134240000Y-90190000D01*
X103760000Y-96540000D02*
X134240000Y-96540000D01*
X103760000Y-90190000D02*
X103760000Y-97810000D01*
%TO.C,J6*%
X154240000Y-127310000D02*
X123760000Y-127310000D01*
X123760000Y-119690000D02*
X123760000Y-127310000D01*
X154240000Y-120960000D02*
X123760000Y-120960000D01*
X154240000Y-119690000D02*
X123760000Y-119690000D01*
X154240000Y-127310000D02*
X154240000Y-119690000D01*
%TO.C,J7*%
X174810000Y-100460000D02*
X167190000Y-100460000D01*
X174810000Y-100460000D02*
X174810000Y-130940000D01*
X167190000Y-100460000D02*
X167190000Y-130940000D01*
X167190000Y-130940000D02*
X174810000Y-130940000D01*
X168460000Y-100460000D02*
X168460000Y-130940000D01*
D12*
%TO.C,J2*%
X163540000Y-95800000D02*
X136140000Y-95800000D01*
X136140000Y-95800000D02*
X136140000Y-87300000D01*
X136140000Y-87300000D02*
X163540000Y-87300000D01*
X163540000Y-87300000D02*
X163540000Y-95800000D01*
D13*
X157250000Y-90000000D02*
G75*
G03*
X152250000Y-90000000I-2500000J0D01*
G01*
X162250000Y-90000000D02*
G75*
G03*
X157250000Y-90000000I-2500000J0D01*
G01*
X142250000Y-90000000D02*
G75*
G03*
X137250000Y-90000000I-2500000J0D01*
G01*
X147250000Y-90000000D02*
G75*
G03*
X142250000Y-90000000I-2500000J0D01*
G01*
X152250000Y-90000000D02*
G75*
G03*
X147250000Y-90000000I-2500000J0D01*
G01*
%TO.C,S1*%
X169750000Y-88250000D02*
X168250000Y-88250000D01*
X172250000Y-94000000D02*
X172250000Y-89500000D01*
X168250000Y-95250000D02*
X169750000Y-95250000D01*
X165750000Y-89500000D02*
X165750000Y-94000000D01*
%TO.C,J17*%
X122770000Y-141940000D02*
X122770000Y-144600000D01*
X116120000Y-141542929D02*
X116120000Y-141940000D01*
X146120000Y-141542929D02*
X146120000Y-141940000D01*
X152770000Y-141940000D02*
X152770000Y-144600000D01*
X116880000Y-144600000D02*
X116880000Y-150600000D01*
X157770000Y-139230000D02*
X157770000Y-140500000D01*
X146120000Y-150600000D02*
X146120000Y-144600000D01*
X116880000Y-141542929D02*
X116880000Y-141940000D01*
X111880000Y-150600000D02*
X111120000Y-150600000D01*
X132770000Y-141940000D02*
X132770000Y-144600000D01*
X147770000Y-141940000D02*
X147770000Y-144600000D01*
X116120000Y-150600000D02*
X116120000Y-144600000D01*
X131880000Y-144600000D02*
X131880000Y-150600000D01*
X141880000Y-150600000D02*
X141120000Y-150600000D01*
X121880000Y-141542929D02*
X121880000Y-141940000D01*
X127770000Y-141940000D02*
X127770000Y-144600000D01*
X116880000Y-150600000D02*
X116120000Y-150600000D01*
X151120000Y-141542929D02*
X151120000Y-141940000D01*
X141120000Y-141542929D02*
X141120000Y-141940000D01*
X136880000Y-144600000D02*
X136880000Y-150600000D01*
X111880000Y-141542929D02*
X111880000Y-141940000D01*
X107630000Y-141940000D02*
X107630000Y-144600000D01*
X156880000Y-141610000D02*
X156880000Y-141940000D01*
X146880000Y-141542929D02*
X146880000Y-141940000D01*
X131120000Y-141542929D02*
X131120000Y-141940000D01*
X136880000Y-150600000D02*
X136120000Y-150600000D01*
X157830000Y-141940000D02*
X107630000Y-141940000D01*
X151120000Y-150600000D02*
X151120000Y-144600000D01*
X131120000Y-150600000D02*
X131120000Y-144600000D01*
X112770000Y-141940000D02*
X112770000Y-144600000D01*
X146880000Y-150600000D02*
X146120000Y-150600000D01*
X111120000Y-141542929D02*
X111120000Y-141940000D01*
X130230000Y-141940000D02*
X130230000Y-144600000D01*
X156120000Y-141610000D02*
X156120000Y-141940000D01*
X151880000Y-150600000D02*
X151120000Y-150600000D01*
X121120000Y-150600000D02*
X121120000Y-144600000D01*
X156220000Y-144600000D02*
X156220000Y-150600000D01*
X115230000Y-141940000D02*
X115230000Y-144600000D01*
X156500000Y-139230000D02*
X157770000Y-139230000D01*
X141880000Y-144600000D02*
X141880000Y-150600000D01*
X156460000Y-144600000D02*
X156460000Y-150600000D01*
X121880000Y-144600000D02*
X121880000Y-150600000D01*
X142770000Y-141940000D02*
X142770000Y-144600000D01*
X141120000Y-150600000D02*
X141120000Y-144600000D01*
X140230000Y-141940000D02*
X140230000Y-144600000D01*
X121880000Y-150600000D02*
X121120000Y-150600000D01*
X126120000Y-141542929D02*
X126120000Y-141940000D01*
X120230000Y-141940000D02*
X120230000Y-144600000D01*
X111880000Y-144600000D02*
X111880000Y-150600000D01*
X145230000Y-141940000D02*
X145230000Y-144600000D01*
X111120000Y-150600000D02*
X111120000Y-144600000D01*
X156120000Y-150600000D02*
X156120000Y-144600000D01*
X110230000Y-141940000D02*
X110230000Y-144600000D01*
X156820000Y-144600000D02*
X156820000Y-150600000D01*
X156580000Y-144600000D02*
X156580000Y-150600000D01*
X146880000Y-144600000D02*
X146880000Y-150600000D01*
X151880000Y-144600000D02*
X151880000Y-150600000D01*
X136880000Y-141542929D02*
X136880000Y-141940000D01*
X121120000Y-141542929D02*
X121120000Y-141940000D01*
X156340000Y-144600000D02*
X156340000Y-150600000D01*
X155230000Y-141940000D02*
X155230000Y-144600000D01*
X131880000Y-141542929D02*
X131880000Y-141940000D01*
X156700000Y-144600000D02*
X156700000Y-150600000D01*
X156880000Y-150600000D02*
X156120000Y-150600000D01*
X126880000Y-141542929D02*
X126880000Y-141940000D01*
X150230000Y-141940000D02*
X150230000Y-144600000D01*
X126120000Y-150600000D02*
X126120000Y-144600000D01*
X156880000Y-144600000D02*
X156880000Y-150600000D01*
X126880000Y-144600000D02*
X126880000Y-150600000D01*
X131880000Y-150600000D02*
X131120000Y-150600000D01*
X141880000Y-141542929D02*
X141880000Y-141940000D01*
X157830000Y-144600000D02*
X157830000Y-141940000D01*
X135230000Y-141940000D02*
X135230000Y-144600000D01*
X151880000Y-141542929D02*
X151880000Y-141940000D01*
X117770000Y-141940000D02*
X117770000Y-144600000D01*
X136120000Y-141542929D02*
X136120000Y-141940000D01*
X107630000Y-144600000D02*
X157830000Y-144600000D01*
X125230000Y-141940000D02*
X125230000Y-144600000D01*
X126880000Y-150600000D02*
X126120000Y-150600000D01*
X136120000Y-150600000D02*
X136120000Y-144600000D01*
X137770000Y-141940000D02*
X137770000Y-144600000D01*
%TO.C,R2*%
X161380000Y-100000000D02*
X160420000Y-100000000D01*
X166620000Y-100000000D02*
G75*
G03*
X166620000Y-100000000I-2620000J0D01*
G01*
D14*
%TO.C,J1*%
X104414000Y-135666000D02*
X104414000Y-120366000D01*
X122154000Y-135666000D02*
X104414000Y-135666000D01*
X118384000Y-119671000D02*
X118384000Y-119671000D01*
X118384000Y-119671000D02*
X118384000Y-119671000D01*
X118384000Y-119771000D02*
X118384000Y-119771000D01*
X122154000Y-120366000D02*
X122154000Y-135666000D01*
X104414000Y-120366000D02*
X122154000Y-120366000D01*
X118384000Y-119671000D02*
G75*
G03*
X118384000Y-119771000I0J-50000D01*
G01*
X118384000Y-119771000D02*
G75*
G03*
X118384000Y-119671000I0J50000D01*
G01*
X118384000Y-119671000D02*
G75*
G03*
X118384000Y-119771000I0J-50000D01*
G01*
D13*
%TO.C,J4*%
X157000000Y-119500000D02*
X161500000Y-119500000D01*
X166000000Y-130500000D02*
X157000000Y-130500000D01*
X166000000Y-119500000D02*
X166000000Y-130500000D01*
X161500000Y-119500000D02*
X166000000Y-119500000D01*
X157000000Y-130500000D02*
X157000000Y-119500000D01*
X157000000Y-126000000D02*
G75*
G03*
X166000000Y-126000000I4500000J0D01*
G01*
X162500000Y-126000000D02*
G75*
G03*
X162500000Y-126000000I-1000000J0D01*
G01*
%TD*%
G36*
X175942121Y-133020002D02*
G01*
X175988614Y-133073658D01*
X176000000Y-133126000D01*
X176000000Y-140874000D01*
X175979998Y-140942121D01*
X175926342Y-140988614D01*
X175874000Y-141000000D01*
X160126000Y-141000000D01*
X160057879Y-140979998D01*
X160011386Y-140926342D01*
X160000000Y-140874000D01*
X160000000Y-133126000D01*
X160020002Y-133057879D01*
X160073658Y-133011386D01*
X160126000Y-133000000D01*
X175874000Y-133000000D01*
X175942121Y-133020002D01*
G37*
M02*
