%TF.GenerationSoftware,KiCad,Pcbnew,(6.0.7)*%
%TF.CreationDate,2022-10-06T11:11:12-05:00*%
%TF.ProjectId,ScareBanger_PCB,53636172-6542-4616-9e67-65725f504342,rev?*%
%TF.SameCoordinates,Original*%
%TF.FileFunction,Soldermask,Top*%
%TF.FilePolarity,Negative*%
%FSLAX46Y46*%
G04 Gerber Fmt 4.6, Leading zero omitted, Abs format (unit mm)*
G04 Created by KiCad (PCBNEW (6.0.7)) date 2022-10-06 11:11:12*
%MOMM*%
%LPD*%
G01*
G04 APERTURE LIST*
%ADD10R,1.665000X1.665000*%
%ADD11C,1.665000*%
%ADD12R,3.000000X3.000000*%
%ADD13C,3.000000*%
%ADD14R,1.500000X1.500000*%
%ADD15C,1.500000*%
%ADD16C,2.400000*%
%ADD17C,2.000000*%
%ADD18R,2.300000X2.300000*%
%ADD19C,2.200000*%
%ADD20O,2.400000X2.400000*%
%ADD21C,3.200000*%
%ADD22C,1.303000*%
%ADD23R,2.000000X4.500000*%
%ADD24O,3.500000X1.800000*%
%ADD25O,2.700000X1.800000*%
%ADD26R,1.700000X1.700000*%
%ADD27O,1.700000X1.700000*%
G04 APERTURE END LIST*
D10*
%TO.C,A1*%
X148590000Y-101610000D03*
D11*
X146050000Y-101610000D03*
X143510000Y-101610000D03*
X140970000Y-101610000D03*
X138430000Y-101610000D03*
X135890000Y-101610000D03*
X133350000Y-101610000D03*
X130810000Y-101610000D03*
X128270000Y-101610000D03*
X125730000Y-101610000D03*
X123190000Y-101610000D03*
X120650000Y-101610000D03*
X118110000Y-101610000D03*
X115570000Y-101610000D03*
X113030000Y-101610000D03*
X113030000Y-116850000D03*
X115570000Y-116850000D03*
X118110000Y-116850000D03*
X120650000Y-116850000D03*
X123190000Y-116850000D03*
X125730000Y-116850000D03*
X128270000Y-116850000D03*
X130810000Y-116850000D03*
X133350000Y-116850000D03*
X135890000Y-116850000D03*
X138430000Y-116850000D03*
X140970000Y-116850000D03*
X143510000Y-116850000D03*
X146050000Y-116850000D03*
X148590000Y-116850000D03*
%TD*%
D12*
%TO.C,J3*%
X106300000Y-94000000D03*
D13*
X111380000Y-94000000D03*
X116460000Y-94000000D03*
X121540000Y-94000000D03*
X126620000Y-94000000D03*
X131700000Y-94000000D03*
%TD*%
D14*
%TO.C,SW2*%
X154000000Y-130500000D03*
D15*
X154000000Y-133000000D03*
X154000000Y-135500000D03*
%TD*%
D12*
%TO.C,J6*%
X151700000Y-123500000D03*
D13*
X146620000Y-123500000D03*
X141540000Y-123500000D03*
X136460000Y-123500000D03*
X131380000Y-123500000D03*
X126300000Y-123500000D03*
%TD*%
D12*
%TO.C,J7*%
X171000000Y-103000000D03*
D13*
X171000000Y-108080000D03*
X171000000Y-113160000D03*
X171000000Y-118240000D03*
X171000000Y-123320000D03*
X171000000Y-128400000D03*
%TD*%
D16*
%TO.C,J2*%
X160000000Y-92000000D03*
X154920000Y-92000000D03*
X149840000Y-92000000D03*
X144760000Y-92000000D03*
X139680000Y-92000000D03*
%TD*%
D17*
%TO.C,S1*%
X166750000Y-88500000D03*
X166750000Y-95000000D03*
X171250000Y-95000000D03*
X171250000Y-88500000D03*
%TD*%
D18*
%TO.C,J17*%
X156500000Y-140500000D03*
D19*
X151500000Y-140500000D03*
X146500000Y-140500000D03*
X141500000Y-140500000D03*
X136500000Y-140500000D03*
X131500000Y-140500000D03*
X126500000Y-140500000D03*
X121500000Y-140500000D03*
X116500000Y-140500000D03*
X111500000Y-140500000D03*
%TD*%
D16*
%TO.C,R2*%
X164000000Y-100000000D03*
D20*
X158920000Y-100000000D03*
%TD*%
D21*
%TO.C,J1*%
X112034000Y-133731000D03*
X112034000Y-122301000D03*
D22*
X118384000Y-123571000D03*
X120924000Y-124841000D03*
X118384000Y-126111000D03*
X120924000Y-127381000D03*
X118384000Y-128651000D03*
X120924000Y-129921000D03*
X118384000Y-131191000D03*
X120924000Y-132461000D03*
%TD*%
D14*
%TO.C,SW1*%
X158000000Y-106500000D03*
D15*
X160500000Y-106500000D03*
X163000000Y-106500000D03*
%TD*%
D23*
%TO.C,J4*%
X165850000Y-126000000D03*
D24*
X162900000Y-120500000D03*
D25*
X160300000Y-123200000D03*
%TD*%
D26*
%TO.C,J16*%
X149860000Y-134620000D03*
D27*
X147320000Y-134620000D03*
X144780000Y-134620000D03*
X142240000Y-134620000D03*
X139700000Y-134620000D03*
X137160000Y-134620000D03*
X134620000Y-134620000D03*
X132080000Y-134620000D03*
X129540000Y-134620000D03*
X127000000Y-134620000D03*
%TD*%
M02*
